<svg width="35" height="39" viewBox="0 0 35 39" fill="none" xmlns="http://www.w3.org/2000/svg">
<path fill-rule="evenodd" clip-rule="evenodd" d="M5.81055 8H5C2.23828 8 0 10.2383 0 13V26C0 28.7617 2.23828 31 5 31H17.291L19.9561 23.9531C16.1973 25.1289 11.665 23.5293 10.0146 19.1504L5.81055 8ZM22.0928 18.3047C22.1221 18.2344 22.1514 18.1641 22.1787 18.0918L23.7217 14L25.9844 8H9.0166L12.8213 18.0918C14.4209 22.334 20.3477 22.4043 22.0928 18.3047ZM29.1895 8L26.5273 15.0605L24.9854 19.1504C24.9512 19.2422 24.915 19.332 24.8779 19.4219L20.499 31H30C32.7617 31 35 28.7617 35 26V13C35 10.2383 32.7617 8 30 8H29.1895Z" fill="#C2C2C2"/>
<path d="M8.55037 6.76402C7.31737 3.4939 9.73401 0 13.2289 0H21.7711C25.266 0 27.6826 3.4939 26.4496 6.76402L22.1785 18.0918C20.5517 22.4065 14.4483 22.4065 12.8215 18.0918L8.55037 6.76402Z" fill="#C2C2C2"/>
<path fill-rule="evenodd" clip-rule="evenodd" d="M15.1325 36.7076C15.6273 35.3992 14.6606 34 13.2618 34H2.5C1.11929 34 0 35.1193 0 36.5C0 37.8807 1.11929 39 2.5 39H12.8835C13.7152 39 14.46 38.4854 14.7542 37.7076L15.1325 36.7076ZM18.4969 36.2924C18.002 37.6008 18.9687 39 20.3676 39H32.5C33.8807 39 35 37.8807 35 36.5C35 35.1193 33.8807 34 32.5 34H20.7458C19.9142 34 19.1694 34.5146 18.8752 35.2924L18.4969 36.2924Z" fill="#C2C2C2"/>
</svg>
