<svg width="161" height="50" viewBox="0 0 161 50" fill="none" xmlns="http://www.w3.org/2000/svg">
<rect width="160.674" height="50" rx="15" fill="white" fill-opacity="0.2"/>
<path d="M21.3486 17.9185C21.3486 18.2909 21.6505 18.5928 22.0229 18.5928C22.3954 18.5928 22.6973 18.2909 22.6973 17.9185V11.1748C22.6973 10.8021 22.9994 10.5 23.3721 10.5C23.7448 10.5 24.0469 10.8021 24.0469 11.1748V17.9185C24.0469 18.2909 24.3488 18.5928 24.7212 18.5928C25.0936 18.5928 25.3955 18.2909 25.3955 17.9185V11.1743C25.3955 10.8019 25.6974 10.5 26.0698 10.5C26.4422 10.5 26.7441 10.8019 26.7441 11.1743V19.6045C26.7441 20.1632 26.2912 20.6162 25.7324 20.6162C25.1737 20.6162 24.7207 21.0692 24.7207 21.6279V38.1514C24.7207 38.8962 24.1169 39.5 23.3721 39.5C22.6272 39.5 22.0234 38.8962 22.0234 38.1514V21.6279C22.0234 21.0692 21.5705 20.6162 21.0117 20.6162C20.453 20.6162 20 20.1632 20 19.6045V11.1743C20 10.8019 20.3019 10.5 20.6743 10.5C21.0467 10.5 21.3486 10.8019 21.3486 11.1743V17.9185Z" fill="#C2C2C2"/>
<path fill-rule="evenodd" clip-rule="evenodd" d="M44.2032 13.4553C41.7671 11.6009 38.7264 10.5 35.4286 10.5C32.9826 10.5 30.6781 11.1057 28.6567 12.1752C28.7294 12.5044 28.7678 12.8466 28.7678 13.1977V21.6281C28.7678 22.1869 28.3148 22.6398 27.756 22.6398C27.1973 22.6398 26.7443 23.0928 26.7443 23.6515V36.6128C29.165 38.426 32.1714 39.5 35.4286 39.5C39.0746 39.5 42.4062 38.1544 44.9541 35.9326V30.7331C44.9541 29.988 44.35 29.384 43.6049 29.384C42.8598 29.384 42.2558 28.7799 42.2558 28.0348V21.9654C42.2558 21.8094 42.2738 21.654 42.3095 21.5021L44.2032 13.4553ZM24.7209 23.9885V34.7773C23.5916 33.5413 22.6735 32.109 22.0236 30.5376V23.9885C22.0236 23.2436 22.6274 22.6398 23.3723 22.6398C24.1171 22.6398 24.7209 23.2436 24.7209 23.9885ZM26.0695 16.2321V13.9245C26.289 13.7389 26.514 13.5597 26.7443 13.3872V16.2321C26.7443 16.4185 26.5933 16.5695 26.4069 16.5695C26.2206 16.5695 26.0695 16.4185 26.0695 16.2321Z" fill="#C2C2C2"/>
<path d="M48.1691 10.5C49.0007 10.5 49.6748 11.1741 49.6748 12.0057V38.1509C49.6748 38.896 49.0708 39.5 48.3257 39.5C47.5806 39.5 46.9766 38.896 46.9766 38.1509V28.709C46.9766 27.9642 46.3728 27.3604 45.6279 27.3604C44.8831 27.3604 44.2793 26.7565 44.2793 26.0117V22.3562C44.2793 22.0962 44.3094 21.837 44.3689 21.5839L46.7035 11.6609C46.8635 10.9807 47.4704 10.5 48.1691 10.5Z" fill="#C2C2C2"/>
<path d="M66.0948 32.1989C65.1573 32.1989 64.3216 32.0379 63.5877 31.7159C62.8585 31.3939 62.2785 30.9465 61.8476 30.3736C61.4215 29.7959 61.1895 29.1259 61.1516 28.3636H62.9414C62.9792 28.8324 63.1402 29.2372 63.4243 29.5781C63.7084 29.9143 64.0801 30.1747 64.5394 30.3594C64.9987 30.544 65.5076 30.6364 66.0664 30.6364C66.6914 30.6364 67.2453 30.5275 67.7283 30.3097C68.2112 30.0919 68.59 29.7888 68.8647 29.4006C69.1393 29.0123 69.2766 28.5625 69.2766 28.0511C69.2766 27.5161 69.144 27.045 68.8789 26.6378C68.6137 26.2259 68.2255 25.9039 67.7141 25.6719C67.2027 25.4399 66.5777 25.3239 65.8391 25.3239H64.6743V23.7614H65.8391C66.4167 23.7614 66.9234 23.6572 67.359 23.4489C67.7993 23.2405 68.1426 22.947 68.3888 22.5682C68.6398 22.1894 68.7652 21.7443 68.7652 21.233C68.7652 20.7405 68.6563 20.312 68.4385 19.9474C68.2207 19.5829 67.913 19.2988 67.5152 19.0952C67.1222 18.8916 66.6582 18.7898 66.1232 18.7898C65.6213 18.7898 65.1478 18.8821 64.7027 19.0668C64.2624 19.2467 63.9025 19.5095 63.6232 19.8551C63.3438 20.196 63.1923 20.608 63.1686 21.0909H61.4641C61.4925 20.3286 61.7221 19.661 62.153 19.0881C62.5839 18.5104 63.1473 18.0606 63.8434 17.7386C64.5441 17.4167 65.3135 17.2557 66.1516 17.2557C67.0512 17.2557 67.823 17.438 68.4669 17.8026C69.1109 18.1624 69.6057 18.6383 69.9513 19.2301C70.2969 19.822 70.4698 20.4612 70.4698 21.1477C70.4698 21.9669 70.2543 22.6652 69.8235 23.2429C69.3973 23.8205 68.8173 24.2206 68.0834 24.4432V24.5568C69.002 24.7083 69.7193 25.099 70.2354 25.7287C70.7515 26.3537 71.0095 27.1278 71.0095 28.0511C71.0095 28.8419 70.7941 29.5521 70.3632 30.1818C69.9371 30.8068 69.3547 31.2992 68.6161 31.6591C67.8774 32.0189 67.037 32.1989 66.0948 32.1989ZM77.153 32.2557C76.4617 32.2557 75.8344 32.1255 75.2709 31.8651C74.7075 31.5999 74.26 31.2188 73.9286 30.7216C73.5971 30.2197 73.4314 29.6136 73.4314 28.9034C73.4314 28.2784 73.5545 27.7718 73.8007 27.3835C74.0469 26.9905 74.376 26.6828 74.788 26.4602C75.1999 26.2377 75.6544 26.072 76.1516 25.9631C76.6535 25.8494 77.1577 25.7595 77.6644 25.6932C78.3273 25.608 78.8647 25.544 79.2766 25.5014C79.6933 25.4541 79.9963 25.3759 80.1857 25.267C80.3798 25.1581 80.4769 24.9687 80.4769 24.6989V24.642C80.4769 23.9413 80.2851 23.3968 79.9016 23.0085C79.5228 22.6203 78.9475 22.4261 78.1757 22.4261C77.3755 22.4261 76.7482 22.6013 76.2936 22.9517C75.8391 23.3021 75.5195 23.6761 75.3348 24.0739L73.7439 23.5057C74.028 22.8428 74.4068 22.3267 74.8803 21.9574C75.3585 21.5833 75.8793 21.3229 76.4428 21.1761C77.011 21.0246 77.5697 20.9489 78.1189 20.9489C78.4693 20.9489 78.8718 20.9915 79.3263 21.0767C79.7856 21.1572 80.2283 21.3253 80.6544 21.581C81.0853 21.8366 81.4428 22.2225 81.7269 22.7386C82.011 23.2547 82.153 23.946 82.153 24.8125V32H80.4769V30.5227H80.3916C80.278 30.7595 80.0886 31.0128 79.8235 31.2827C79.5583 31.5526 79.2056 31.7822 78.7652 31.9716C78.3249 32.161 77.7875 32.2557 77.153 32.2557ZM77.4087 30.75C78.0716 30.75 78.6303 30.6198 79.0848 30.3594C79.5441 30.099 79.8898 29.7628 80.1218 29.3509C80.3585 28.9389 80.4769 28.5057 80.4769 28.0511V26.517C80.4059 26.6023 80.2496 26.6804 80.0081 26.7514C79.7714 26.8177 79.4968 26.8769 79.1843 26.929C78.8765 26.9763 78.5758 27.0189 78.2823 27.0568C77.9934 27.09 77.7591 27.1184 77.5791 27.142C77.1435 27.1989 76.7363 27.2912 76.3576 27.419C75.9835 27.5421 75.6805 27.7292 75.4485 27.9801C75.2212 28.2263 75.1076 28.5625 75.1076 28.9886C75.1076 29.571 75.323 30.0114 75.7539 30.3097C76.1895 30.6032 76.7411 30.75 77.4087 30.75ZM85.2123 32V21.0909H89.6725C90.8468 21.0909 91.7795 21.3561 92.4708 21.8864C93.1621 22.4167 93.5078 23.1174 93.5078 23.9886C93.5078 24.6515 93.3113 25.1652 92.9183 25.5298C92.5253 25.8897 92.021 26.1335 91.4055 26.2614C91.808 26.3182 92.1986 26.4602 92.5774 26.6875C92.9609 26.9148 93.2781 27.2273 93.5291 27.625C93.78 28.018 93.9055 28.5009 93.9055 29.0739C93.9055 29.6326 93.7634 30.1321 93.4794 30.5724C93.1953 31.0128 92.7881 31.3608 92.2578 31.6165C91.7275 31.8722 91.093 32 90.3544 32H85.2123ZM86.8032 30.4659H90.3544C90.932 30.4659 91.3842 30.3286 91.7109 30.054C92.0376 29.7794 92.201 29.4053 92.201 28.9318C92.201 28.3684 92.0376 27.9257 91.7109 27.6037C91.3842 27.277 90.932 27.1136 90.3544 27.1136H86.8032V30.4659ZM86.8032 25.6648H89.6725C90.1224 25.6648 90.5082 25.6032 90.8302 25.4801C91.1522 25.3523 91.3984 25.1723 91.5688 24.9403C91.744 24.7036 91.8316 24.4242 91.8316 24.1023C91.8316 23.643 91.6399 23.2831 91.2563 23.0227C90.8728 22.7576 90.3449 22.625 89.6725 22.625H86.8032V25.6648ZM95.8178 22.6534V21.0909H104.681V22.6534H101.102V32H99.4257V22.6534H95.8178ZM107.126 36.0909V21.0909H108.746V22.8239H108.945C109.068 22.6345 109.238 22.393 109.456 22.0994C109.678 21.8011 109.996 21.536 110.408 21.304C110.824 21.0672 111.388 20.9489 112.098 20.9489C113.017 20.9489 113.826 21.1785 114.527 21.6378C115.228 22.0971 115.775 22.7481 116.168 23.5909C116.561 24.4337 116.757 25.428 116.757 26.5739C116.757 27.7292 116.561 28.7306 116.168 29.5781C115.775 30.4209 115.23 31.0743 114.534 31.5384C113.838 31.9976 113.035 32.2273 112.126 32.2273C111.426 32.2273 110.865 32.1113 110.443 31.8793C110.022 31.6425 109.697 31.375 109.47 31.0767C109.243 30.7737 109.068 30.5227 108.945 30.3239H108.803V36.0909H107.126ZM108.774 26.5455C108.774 27.3693 108.895 28.0961 109.136 28.7259C109.378 29.3509 109.731 29.8409 110.195 30.196C110.659 30.5464 111.227 30.7216 111.899 30.7216C112.6 30.7216 113.185 30.5369 113.653 30.1676C114.127 29.7936 114.482 29.2917 114.719 28.6619C114.96 28.0275 115.081 27.322 115.081 26.5455C115.081 25.7784 114.963 25.0871 114.726 24.4716C114.494 23.8513 114.141 23.3613 113.668 23.0014C113.199 22.6368 112.609 22.4545 111.899 22.4545C111.217 22.4545 110.644 22.6274 110.18 22.973C109.716 23.3139 109.366 23.7921 109.129 24.4077C108.892 25.0185 108.774 25.7311 108.774 26.5455ZM122.524 32.2557C121.833 32.2557 121.205 32.1255 120.642 31.8651C120.079 31.5999 119.631 31.2188 119.3 30.7216C118.968 30.2197 118.803 29.6136 118.803 28.9034C118.803 28.2784 118.926 27.7718 119.172 27.3835C119.418 26.9905 119.747 26.6828 120.159 26.4602C120.571 26.2377 121.026 26.072 121.523 25.9631C122.025 25.8494 122.529 25.7595 123.035 25.6932C123.698 25.608 124.236 25.544 124.648 25.5014C125.064 25.4541 125.367 25.3759 125.557 25.267C125.751 25.1581 125.848 24.9687 125.848 24.6989V24.642C125.848 23.9413 125.656 23.3968 125.273 23.0085C124.894 22.6203 124.319 22.4261 123.547 22.4261C122.747 22.4261 122.119 22.6013 121.665 22.9517C121.21 23.3021 120.891 23.6761 120.706 24.0739L119.115 23.5057C119.399 22.8428 119.778 22.3267 120.251 21.9574C120.73 21.5833 121.25 21.3229 121.814 21.1761C122.382 21.0246 122.941 20.9489 123.49 20.9489C123.84 20.9489 124.243 20.9915 124.697 21.0767C125.157 21.1572 125.599 21.3253 126.026 21.581C126.456 21.8366 126.814 22.2225 127.098 22.7386C127.382 23.2547 127.524 23.946 127.524 24.8125V32H125.848V30.5227H125.763C125.649 30.7595 125.46 31.0128 125.195 31.2827C124.929 31.5526 124.577 31.7822 124.136 31.9716C123.696 32.161 123.159 32.2557 122.524 32.2557ZM122.78 30.75C123.443 30.75 124.001 30.6198 124.456 30.3594C124.915 30.099 125.261 29.7628 125.493 29.3509C125.73 28.9389 125.848 28.5057 125.848 28.0511V26.517C125.777 26.6023 125.621 26.6804 125.379 26.7514C125.142 26.8177 124.868 26.8769 124.555 26.929C124.248 26.9763 123.947 27.0189 123.653 27.0568C123.365 27.09 123.13 27.1184 122.95 27.142C122.515 27.1989 122.107 27.2912 121.729 27.419C121.355 27.5421 121.052 27.7292 120.82 27.9801C120.592 28.2263 120.479 28.5625 120.479 28.9886C120.479 29.571 120.694 30.0114 121.125 30.3097C121.561 30.6032 122.112 30.75 122.78 30.75ZM130.583 32V21.0909H132.26V25.8352H133.367L137.288 21.0909H139.447L135.044 26.3466L139.504 32H137.345L133.765 27.3977H132.26V32H130.583Z" fill="#C2C2C2"/>
</svg>
