<svg width="44" height="43" viewBox="0 0 44 43" fill="none" xmlns="http://www.w3.org/2000/svg">
<path fill-rule="evenodd" clip-rule="evenodd" d="M0 1C0 0.447715 0.447715 0 1 0C1.55228 0 2 0.447715 2 1V11C2 11.5523 2.44772 12 3 12C3.55228 12 4 11.5523 4 11V1C4 0.447715 4.44772 0 5 0C5.55228 0 6 0.447715 6 1V11C6 11.5523 6.44772 12 7 12C7.55228 12 8 11.5523 8 11V1C8 0.447715 8.44771 0 9 0C9.55229 0 10 0.447715 10 1V12V14C10 14.5523 9.55228 15 9 15H8.5C7.67157 15 7 15.6716 7 16.5V41C7 42.1046 6.10457 43 5 43C3.89543 43 3 42.1046 3 41V16.5C3 15.6716 2.32843 15 1.5 15H1C0.447715 15 0 14.5523 0 14V12V1Z" fill="#C2C2C2"/>
<path fill-rule="evenodd" clip-rule="evenodd" d="M35.8871 4.3817C32.2751 1.63229 27.7666 0 22.877 0C19.3161 0 15.9575 0.865639 13 2.39796V9V12V15V16.5C13 17.3284 12.3284 18 11.5 18C10.6716 18 10 18.6716 10 19.5V38.7189C13.5894 41.4075 18.0472 43 22.877 43C28.2826 43 33.2223 41.005 37 37.7112V29C37 28.4477 36.5523 28 36 28C34.3431 28 33 26.6569 33 25V17C33 16.7687 33.0268 16.5381 33.0797 16.3129L35.8871 4.3817ZM10 4.28114C9.65867 4.53681 9.3252 4.80239 9 5.07746V8.5C9 8.77614 9.22386 9 9.5 9C9.77614 9 10 8.77614 10 8.5V4.28114ZM3 29.7097C3.96363 32.0402 5.3252 34.1644 7 35.9975V20C7 18.8954 6.10457 18 5 18C3.89543 18 3 18.8954 3 20V29.7097Z" fill="#C2C2C2"/>
<path fill-rule="evenodd" clip-rule="evenodd" d="M44 25V2.23212C44 0.999356 43.0006 0 41.7679 0C40.7321 0 39.8323 0.712596 39.5951 1.72088L36.1329 16.4351C36.0446 16.8104 36 17.1947 36 17.5803V23C36 24.1046 36.8954 25 38 25C39.1046 25 40 25.8954 40 27V41C40 42.1046 40.8954 43 42 43C43.1046 43 44 42.1046 44 41V25Z" fill="#C2C2C2"/>
</svg>
