<svg width="22" height="22" viewBox="0 0 22 22" fill="none" xmlns="http://www.w3.org/2000/svg">
<path d="M21.5006 18.6956C21.9185 19.1093 21.9185 19.78 21.5006 20.1937L19.9893 21.6897C19.5713 22.1034 18.8937 22.1034 18.4757 21.6897L0.313461 3.71166C-0.104487 3.29795 -0.104487 2.6272 0.313461 2.21349L1.82477 0.717512C2.24271 0.303803 2.92034 0.303803 3.33829 0.717512L21.5006 18.6956Z" fill="white"/>
<path d="M18.6617 0.310282C19.0797 -0.103427 19.7573 -0.103427 20.1752 0.310281L21.6865 1.80626C22.1045 2.21997 22.1045 2.89072 21.6865 3.30443L3.52426 21.2825C3.10631 21.6962 2.42868 21.6962 2.01074 21.2825L0.49943 19.7865C0.0814822 19.3728 0.0814822 18.702 0.49943 18.2883L18.6617 0.310282Z" fill="white"/>
</svg>
