<svg width="45" height="22" viewBox="0 0 45 22" fill="none" xmlns="http://www.w3.org/2000/svg">
<path fill-rule="evenodd" clip-rule="evenodd" d="M5 0C2.23858 0 0 2.23858 0 5V17C0 19.7614 2.23858 22 5 22H6.41604C6.14845 21.3875 6 20.7111 6 20V19C6 16.2386 8.23858 14 11 14H35C37.7614 14 40 16.2386 40 19V20C40 20.7111 39.8516 21.3875 39.584 22H40C42.7614 22 45 19.7614 45 17V5C45 2.23858 42.7614 0 40 0H5ZM6 9C7.65685 9 9 7.65685 9 6C9 4.34315 7.65685 3 6 3C4.34315 3 3 4.34315 3 6C3 7.65685 4.34315 9 6 9ZM18 6C18 7.65685 16.6569 9 15 9C13.3431 9 12 7.65685 12 6C12 4.34315 13.3431 3 15 3C16.6569 3 18 4.34315 18 6ZM24 9C25.6569 9 27 7.65685 27 6C27 4.34315 25.6569 3 24 3C22.3431 3 21 4.34315 21 6C21 7.65685 22.3431 9 24 9ZM11.5 17C10.1193 17 9 18.1193 9 19.5C9 20.8807 10.1193 22 11.5 22H34.5C35.8807 22 37 20.8807 37 19.5C37 18.1193 35.8807 17 34.5 17H11.5Z" fill="#C2C2C2"/>
</svg>
