<svg width="445" height="96" viewBox="0 0 445 96" fill="none" xmlns="http://www.w3.org/2000/svg">
<g clip-path="url(#clip0_1361_3779)">
<path d="M80.7793 0H88.1547C92.2111 0 95.4999 3.30553 95.4999 7.3824V14.7648H88.1547V11.0736C88.1547 9.0344 86.511 7.3824 84.4821 7.3824H80.7793" fill="#887E71"/>
<path d="M95.5014 81.1777V88.5905C95.5014 92.6674 92.1823 95.9729 88.126 95.9729H80.7808V88.5905H84.4534C86.4823 88.5905 88.126 86.9385 88.126 84.8993V81.1777" fill="#887E71"/>
<path d="M0.00146484 14.7678V7.35506C0.00146484 3.27668 3.29034 0 7.34818 0H14.6934V7.35506H11.0208C8.99187 7.35506 7.34818 9.00707 7.34818 11.0463V14.7678" fill="#887E71"/>
<path d="M14.7206 95.9866H7.34521C3.28888 95.9866 0 92.6507 0 88.5738V81.1914H7.34521V84.8826C7.34521 86.9218 8.98889 88.5738 11.0178 88.5738H14.7206" fill="#887E71"/>
<path d="M44.0786 81.2077V66.4429H29.3882V59.0605H66.1142V66.4429H51.4238V81.2077H58.769C62.8254 81.2077 66.1142 84.5133 66.1142 88.5901V95.9725H58.769V92.2813C58.769 90.2421 57.1253 88.5901 55.0964 88.5901H47.7512C49.7801 88.5901 51.4238 90.2421 51.4238 92.2813C51.4238 94.3205 49.7801 95.9725 47.7512 95.9725C45.7223 95.9725 44.0786 94.3205 44.0786 92.2813C44.0786 90.2421 45.7223 88.5901 47.7512 88.5901H40.406C38.3771 88.5901 36.7334 90.2421 36.7334 92.2813V95.9725H29.3882V88.5901C29.3882 84.5133 32.6771 81.2077 36.7334 81.2077H44.0786Z" fill="#887E71"/>
<path d="M80.811 51.6784H66.1206V66.4432H58.7754V29.5312H66.1206V44.296H80.811V36.9136C80.811 32.8368 84.0999 29.5312 88.1562 29.5312H95.5014V36.9136H91.8288C89.7999 36.9136 88.1562 38.5657 88.1562 40.6048V47.9872C88.1562 45.948 89.7999 44.296 91.8288 44.296C93.8578 44.296 95.5014 45.948 95.5014 47.9872C95.5014 50.0264 93.8578 51.6784 91.8288 51.6784C89.7999 51.6784 88.1562 50.0264 88.1562 47.9872V55.3696C88.1562 57.4088 89.7999 59.0608 91.8288 59.0608H95.5014V66.4432H88.1562C84.0999 66.4432 80.811 63.1377 80.811 59.0608V51.6784Z" fill="#887E71"/>
<path d="M14.6977 44.296H29.3882V29.5312H36.7334V66.4432H29.3882V51.6784H14.6977V59.0608C14.6977 63.1377 11.4089 66.4432 7.35253 66.4432H0.00732422V59.0608H3.67993C5.70885 59.0608 7.35253 57.4088 7.35253 55.3696V47.9872C7.35253 50.0264 5.70885 51.6784 3.67993 51.6784C1.65101 51.6784 0.00732422 50.0249 0.00732422 47.9872C0.00732422 45.9496 1.65101 44.296 3.67993 44.296C5.70885 44.296 7.35253 45.948 7.35253 47.9872V40.6048C7.35253 38.5657 5.70885 36.9136 3.67993 36.9136H0.00732422V29.5312H7.35253C11.4089 29.5312 14.6977 32.8368 14.6977 36.9136V44.296Z" fill="#887E71"/>
<path d="M51.4302 14.7648V29.5296H66.1206V36.912H29.3945V29.5296H44.0849V14.7648H36.7397C32.6834 14.7648 29.3945 11.4593 29.3945 7.3824V0H36.7397V3.6912C36.7397 5.73039 38.3834 7.3824 40.4123 7.3824H47.7576C45.7286 7.3824 44.0849 5.73039 44.0849 3.6912C44.0849 1.652 45.7286 0 47.756 0C49.7834 0 51.4286 1.652 51.4286 3.6912C51.4286 5.73039 49.785 7.3824 47.756 7.3824H55.1013C57.1302 7.3824 58.7739 5.73039 58.7739 3.6912V0H66.1191V7.3824C66.1191 11.4593 62.8302 14.7648 58.7739 14.7648H51.4286H51.4302Z" fill="#887E71"/>
<path d="M119.29 52.7655C119.793 52.6652 120.246 52.3859 120.649 51.9303C121.202 51.3746 121.53 50.4636 121.631 49.1973V10.4784C121.631 7.18956 122.424 4.62045 124.011 2.77257C125.597 0.924698 127.849 0 130.771 0H150.94L150.486 0.227758C150.184 0.379597 149.856 0.595208 149.504 0.873072C149.151 1.15246 148.825 1.46828 148.522 1.82206C148.22 2.17737 148.069 2.55696 148.069 2.96085V52.7639H152.979V63.3167C152.979 63.0131 152.802 62.5818 152.45 62.0261C152.097 61.4688 151.379 60.8736 150.297 60.242C149.214 59.6088 147.552 59.0652 145.312 58.6097C143.07 58.1542 139.86 57.9006 135.681 57.8505H132.811C129.487 57.9006 126.704 58.1542 124.464 58.6097C122.222 59.0652 120.548 59.6088 119.441 60.242C118.332 60.8736 117.614 61.4688 117.288 62.0261C116.96 62.5818 116.797 63.0131 116.797 63.3167V52.7639H119.29V52.7655ZM139.08 52.7655V7.06202C139.08 6.35445 139.558 5.67117 140.515 5.01219L141.951 4.17708H133.566C132.759 4.17708 132.08 4.45646 131.527 5.01219C130.974 5.56792 130.696 6.25272 130.696 7.06202V47.4511C130.594 49.3749 130.066 51.1469 129.109 52.7655H139.08Z" fill="#887E71"/>
<path d="M177.074 7.06202C177.074 6.65813 177.212 6.27853 177.489 5.92323C177.766 5.56944 178.08 5.26577 178.434 5.01219C178.786 4.76014 179.114 4.55668 179.416 4.40484L179.718 4.253C179.768 4.253 179.793 4.22871 179.793 4.17708H171.56C170.703 4.17708 169.998 4.45646 169.445 5.01219C168.892 5.56792 168.614 6.25272 168.614 7.06202V18.2981C167.455 18.7035 166.058 19.285 164.422 20.0442C162.784 20.8034 161.186 21.7144 159.625 22.7773V10.4784C159.826 3.49381 162.873 0 168.765 0H176.923C179.843 0 182.097 0.924698 183.684 2.77106C185.27 4.61893 186.063 7.18804 186.063 10.4769V20.3464C186.063 23.8903 185.03 26.6477 182.966 28.6216C185.03 30.4953 186.063 33.3043 186.063 37.0486V46.6145C186.063 49.7029 185.27 52.2204 183.684 54.1684C182.097 56.1181 179.843 57.0913 176.923 57.0913H168.765C165.793 57.0913 163.527 56.1302 161.967 54.2064C160.405 52.2841 159.625 49.753 159.625 46.6145V35.758C161.387 36.3654 164.408 37.7577 168.689 39.9336V50.3345C168.789 51.0436 169.091 51.6251 169.596 52.0807C170.149 52.6379 170.804 52.9158 171.56 52.9158H174.128C174.329 52.9158 174.53 52.8915 174.732 52.8399C175.337 52.7396 175.84 52.4861 176.243 52.0807C176.796 51.5249 177.074 50.8417 177.074 50.0308V32.3416C177.074 31.0267 176.394 30.0899 175.035 29.5326C174.782 29.5842 174.454 29.6344 174.053 29.6845C173.649 29.7361 173.297 29.7862 172.995 29.8363C172.693 29.8879 172.516 29.9122 172.466 29.9122C170.804 30.3176 169.57 30.761 168.765 31.2408C167.958 31.7221 167.429 32.1898 167.179 32.6453C166.926 33.1008 166.801 33.4303 166.801 33.6323V25.2052H174.959C176.369 24.6996 177.074 23.7628 177.074 22.3962V7.06202Z" fill="#887E71"/>
<path d="M213.256 34.1657H205.324C202.403 34.1657 200.15 33.1924 198.564 31.2428C196.978 29.2947 196.185 26.7772 196.185 23.6888V2.96281C196.185 2.55892 196.033 2.17932 195.731 1.82402C195.429 1.47023 195.101 1.15441 194.749 0.875025C194.396 0.597161 194.069 0.38155 193.767 0.229711L193.465 0.0778725C193.414 0.0778725 193.39 0.0535783 193.39 0.00195312H205.173V27.257C205.273 28.0162 205.589 28.6615 206.118 29.1929C206.646 29.7244 207.313 29.9901 208.119 29.9901H210.31C211.115 29.9901 211.807 29.7001 212.387 29.117C212.967 28.534 213.256 27.8401 213.256 27.0292H213.331V4.25344C213.331 3.84954 213.18 3.40618 212.878 2.92485C212.576 2.44504 212.248 1.97586 211.896 1.52034C211.543 1.06482 211.216 0.685227 210.914 0.38155C210.813 0.281336 210.712 0.205417 210.612 0.153792L210.461 0.00195312H222.32V46.4646C222.32 49.553 221.539 52.0705 219.979 54.0186C218.417 55.9682 216.15 56.9415 213.18 56.9415H205.022C202.101 56.9415 199.848 55.9682 198.262 54.0186C196.676 52.0705 195.882 49.553 195.882 46.4646V36.5191C197.644 37.1265 200.641 38.5189 204.871 40.6947V50.0328C204.921 50.792 205.223 51.4373 205.778 51.9687C206.331 52.5002 207.01 52.7659 207.817 52.7659H210.385C211.191 52.7659 211.871 52.4759 212.425 51.8928C212.978 51.3113 213.256 50.6159 213.256 49.805V34.1657Z" fill="#887E71"/>
<path d="M260.918 56.9415H252.836L250.872 44.4148C250.721 43.8074 249.965 43.1241 248.606 42.3649C247.246 41.6057 244.803 41.05 241.279 40.6947L238.71 56.9415H230.628L239.013 3.3424C238.76 2.83678 238.432 2.33116 238.031 1.82402C237.627 1.31839 237.275 0.888691 236.973 0.533388L236.444 0.00195312H252.005L260.918 56.9415ZM249.663 36.4432L246.566 17.0079L245.811 6.83469L244.98 17.1597L241.958 36.4432H249.663Z" fill="#887E71"/>
<path d="M278.518 56.941H269.53V4.253C269.53 3.54543 269.051 2.6344 268.094 1.5199L266.659 0H286.828C292.668 0 295.715 3.49229 295.967 10.4769V22.6999C295.967 25.8384 295.174 28.3695 293.588 30.2918C292.002 32.2156 289.748 33.1767 286.828 33.1767H278.518V56.9395V56.941ZM284.033 29.0786C284.838 29.0786 285.53 28.7886 286.11 28.2055C286.69 27.6225 286.979 26.9286 286.979 26.1178V7.06202C286.979 6.25272 286.689 5.56944 286.11 5.01219C285.53 4.45646 284.838 4.17708 284.033 4.17708H275.724L276.177 4.40484C276.428 4.55668 276.743 4.76014 277.121 5.01219C277.499 5.26576 277.825 5.56944 278.103 5.92323C278.379 6.27853 278.518 6.65812 278.518 7.06202V29.0786H284.033Z" fill="#887E71"/>
<path d="M305.334 4.253C305.334 3.84911 305.183 3.40574 304.881 2.92441C304.578 2.4446 304.251 1.97542 303.899 1.5199C303.545 1.06439 303.219 0.684792 302.917 0.381115C302.815 0.280902 302.714 0.204982 302.614 0.153357L302.463 0.00151839H314.323V30.9766L312.51 43.0478L323.312 0H333.66V56.9395H324.671V25.8885L326.409 13.9692L315.607 56.9395H305.334V4.253Z" fill="#887E71"/>
<path d="M373.166 56.941H363.573L356.85 34.1652C356.044 32.0395 354.684 30.3692 352.771 29.1545V56.941H343.783V4.253C343.783 3.54543 343.304 2.6344 342.347 1.5199L340.912 0H352.771V22.548L353.527 22.9276L362.365 0H371.353L361.987 24.1423H356.246L359.268 25.7367C362.691 27.6103 364.857 29.812 365.764 32.3416L366.293 33.7082L373.166 56.9395V56.941Z" fill="#887E71"/>
<path d="M410.253 56.9415H402.171L400.207 44.4148C400.056 43.8074 399.3 43.1241 397.941 42.3649C396.581 41.6057 394.138 41.05 390.614 40.6947L388.045 56.9415H379.963L388.347 3.3424C388.095 2.83678 387.767 2.33116 387.366 1.82402C386.962 1.31839 386.61 0.888691 386.308 0.533388L385.779 0.00195312H401.34L410.253 56.9415ZM398.998 36.4432L395.901 17.0079L395.146 6.83469L394.315 17.1597L391.293 36.4432H398.998Z" fill="#887E71"/>
<path d="M435.936 34.1657H428.004C425.082 34.1657 422.83 33.1924 421.244 31.2428C419.657 29.2947 418.864 26.7772 418.864 23.6888V2.96281C418.864 2.55892 418.713 2.17932 418.411 1.82402C418.109 1.47023 417.781 1.15441 417.429 0.875025C417.075 0.597161 416.749 0.38155 416.447 0.229711L416.145 0.0778725C416.094 0.0778725 416.069 0.0535783 416.069 0.00195312H427.853V27.257C427.953 28.0162 428.269 28.6615 428.797 29.1929C429.326 29.7244 429.992 29.9901 430.799 29.9901H432.99C433.795 29.9901 434.487 29.7001 435.067 29.117C435.647 28.534 435.936 27.8401 435.936 27.0292H436.011V4.25344C436.011 3.84954 435.86 3.40618 435.558 2.92485C435.256 2.44504 434.928 1.97586 434.576 1.52034C434.222 1.06482 433.896 0.685227 433.594 0.38155C433.493 0.281336 433.391 0.205417 433.292 0.153792L433.141 0.00195312H445V46.4646C445 49.553 444.219 52.0705 442.658 54.0186C441.096 55.9682 438.83 56.9415 435.86 56.9415H427.702C424.78 56.9415 422.528 55.9682 420.941 54.0186C419.355 52.0705 418.562 49.553 418.562 46.4646V36.5191C420.324 37.1265 423.321 38.5189 427.551 40.6947V50.0328C427.601 50.792 427.903 51.4373 428.457 51.9687C429.01 52.5002 429.69 52.7659 430.497 52.7659H433.065C433.87 52.7659 434.55 52.4759 435.105 51.8928C435.658 51.3113 435.936 50.6159 435.936 49.805V34.1657Z" fill="#887E71"/>
<path d="M128.428 96.0004H124.832V76.5954C124.832 76.515 124.791 76.3935 124.711 76.231C124.489 75.8256 123.926 75.4916 123.019 75.2289C122.234 75.0057 121.358 74.8948 120.391 74.8948V96.0004H116.795V74.9252C116.795 74.6413 116.603 74.2769 116.221 73.832L115.647 73.2246H128.428V96.0004Z" fill="#887E71"/>
<path d="M144.018 96.0004H140.785L140 90.9897C139.939 90.7468 139.637 90.4735 139.093 90.1698C138.55 89.8661 137.572 89.6444 136.163 89.5017L135.135 96.0004H131.902L135.256 74.5608C135.155 74.3588 135.025 74.1554 134.863 73.9534C134.702 73.7515 134.561 73.5784 134.44 73.4372L134.229 73.2246H140.453L144.018 96.0004ZM139.516 87.8011L138.278 80.027L137.976 75.9577L137.643 80.0877L136.435 87.8011H139.516Z" fill="#887E71"/>
<path d="M151.059 96.0004H147.463V74.9252C147.463 74.6413 147.271 74.2769 146.889 73.832L146.315 73.2246H154.382C156.719 73.2246 157.937 74.6215 158.038 77.4154V82.3046C158.038 83.5603 157.721 84.5715 157.087 85.3413C156.452 86.1112 155.55 86.4953 154.382 86.4953H151.059V96.0004ZM153.264 84.8554C153.586 84.8554 153.864 84.7385 154.095 84.5062C154.326 84.2739 154.443 83.9945 154.443 83.6711V76.0488C154.443 75.7254 154.326 75.4521 154.095 75.2289C153.864 75.0057 153.586 74.8948 153.264 74.8948H149.941L150.122 74.9859C150.223 75.0467 150.349 75.1272 150.5 75.2289C150.651 75.3306 150.782 75.4521 150.892 75.5933C151.003 75.7345 151.059 75.8863 151.059 76.0488V84.8554H153.264Z" fill="#887E71"/>
<path d="M173.841 96.0004H170.003L167.314 86.8901C166.992 86.0398 166.449 85.3717 165.683 84.8858V96.0004H162.087V74.9252C162.087 74.6413 161.895 74.2769 161.513 73.832L160.939 73.2246H165.683V82.2438L165.985 82.3957L169.52 73.2246H173.116L169.369 82.8815H167.073L168.281 83.5193C169.651 84.2678 170.517 85.1485 170.88 86.1613L171.091 86.7079L173.841 96.0004Z" fill="#887E71"/>
<path d="M184.414 85.463H175.652V83.8535H184.414V85.463Z" fill="#887E71"/>
<path d="M195.231 96.0004H191.968C190.8 96.0004 189.898 95.6102 189.264 94.8313C188.629 94.0523 188.312 93.0441 188.312 91.8097V77.4154C188.312 76.0989 188.629 75.0725 189.264 74.333C189.898 73.5936 190.8 73.2246 191.968 73.2246H195.231C197.588 73.2246 198.807 74.6215 198.887 77.4154V91.8097C198.887 93.0441 198.574 94.0523 197.951 94.8313C197.327 95.6102 196.42 96.0004 195.231 96.0004ZM194.113 94.3302C194.456 94.3302 194.737 94.2133 194.959 93.981C195.181 93.7486 195.292 93.4693 195.292 93.1458V76.0488C195.292 75.7254 195.181 75.4521 194.959 75.2289C194.737 75.0057 194.456 74.8948 194.113 74.8948H190.79L190.971 74.9859C191.092 75.0467 191.223 75.1272 191.364 75.2289C191.504 75.3306 191.636 75.4521 191.757 75.5933C191.877 75.7345 191.938 75.8863 191.938 76.0488V93.2369C191.957 93.5406 192.078 93.7988 192.3 94.0113C192.522 94.2239 192.784 94.3302 193.086 94.3302H194.113Z" fill="#887E71"/>
<path d="M209.885 96.0004H206.29V74.8948L202.785 74.8645L202.755 74.8948C202.755 74.6109 202.563 74.2465 202.181 73.8016L201.606 73.2246H213.904V76.6258C213.602 75.4718 211.92 74.8948 208.858 74.8948C208.979 74.9358 209.156 75.036 209.387 75.1985C209.618 75.361 209.784 75.5523 209.885 75.7755V96.0004Z" fill="#887E71"/>
<path d="M226.927 96.0004H217.409V74.9252C217.409 74.6413 217.217 74.2769 216.835 73.832L216.261 73.2246H226.927V76.6258C226.927 76.5241 226.871 76.3829 226.76 76.2006C226.65 76.0184 226.417 75.8271 226.065 75.6237C225.713 75.4217 225.174 75.2486 224.449 75.1074C223.724 74.9662 222.746 74.8842 221.518 74.8645L219.887 74.8948L220.461 75.2289C220.823 75.4916 221.004 75.7649 221.004 76.0488V83.246H225.114V86.6472C225.114 86.3435 224.902 86.0504 224.479 85.7665C223.855 85.3216 222.757 85.0377 221.186 84.9162H221.004V94.3606H226.927V96.0004Z" fill="#887E71"/>
<path d="M243.212 96.0004H239.677L237.471 81.9705L236.928 75.9577L236.505 82.0009L234.329 96.0004H229.827L230.008 95.9093C230.129 95.8486 230.261 95.762 230.401 95.6512C230.542 95.5403 230.673 95.4128 230.794 95.2716C230.915 95.1304 230.975 94.9785 230.975 94.8161L234.359 73.2246H239.647L243.212 96.0004Z" fill="#887E71"/>
<path d="M250.857 83.6407H254.18C255.348 83.6407 256.25 84.0264 256.884 84.7947C257.519 85.5645 257.836 86.5758 257.836 87.8315V91.8097C257.836 93.1049 257.519 94.1282 256.884 94.8768C256.25 95.6254 255.348 96.0004 254.18 96.0004H247.261V74.9252C247.261 74.7627 247.201 74.5866 247.08 74.3938C246.959 74.2009 246.827 74.0142 246.687 73.832C246.546 73.6498 246.415 73.4979 246.294 73.3764C246.253 73.3355 246.214 73.3051 246.173 73.2853L246.113 73.2246H250.857V83.6407ZM250.857 93.1762C250.857 93.3387 250.801 93.4905 250.69 93.6317C250.58 93.7729 250.449 93.8944 250.298 93.9961C250.146 94.0979 250.021 94.1784 249.92 94.2391C249.859 94.2588 249.819 94.2801 249.799 94.2998C249.779 94.2998 249.769 94.3104 249.769 94.3302H253.062C253.384 94.3302 253.66 94.2193 253.893 93.9961C254.124 93.7729 254.241 93.4996 254.241 93.1762V86.4649C254.241 86.1415 254.124 85.8621 253.893 85.6298C253.66 85.3975 253.384 85.2806 253.062 85.2806H250.857V93.1762Z" fill="#887E71"/>
</g>
<defs>
<clipPath id="clip0_1361_3779">
<rect width="445" height="96" fill="white"/>
</clipPath>
</defs>
</svg>
