<svg width="45" height="34" viewBox="0 0 45 34" fill="none" xmlns="http://www.w3.org/2000/svg">
<path fill-rule="evenodd" clip-rule="evenodd" d="M7 0C3.13401 0 0 3.13401 0 7C0 10.866 3.13401 14 7 14H32C34.7614 14 37 11.7614 37 9V5C37 2.23858 34.7614 0 32 0H7ZM40 2.67694C40 2.26803 40.249 1.90031 40.6286 1.74846L43.6286 0.548519C44.2855 0.285789 45 0.769547 45 1.477V12.5228C45 13.2303 44.2854 13.7141 43.6285 13.4512L40.6285 12.2508C40.2489 12.099 40 11.7313 40 11.3224V2.67694ZM5.21246 18.062C5.1034 17.5158 5.52611 17.0083 6.08304 17.0167L15.8183 17.1646C16.1803 17.1701 16.4884 17.4298 16.5551 17.7856L18.3618 27.4198C18.9292 30.4455 16.9172 33.3522 13.8856 33.8868C10.9249 34.4089 8.0893 32.4706 7.50065 29.5224L5.21246 18.062Z" fill="#C2C2C2"/>
</svg>
