<svg width="13" height="23" viewBox="0 0 13 23" fill="none" xmlns="http://www.w3.org/2000/svg">
<circle cx="6.50003" cy="3.21512" r="2.74747" fill="#C2C2C2" stroke="#C2C2C2" stroke-width="0.935308"/>
<mask id="path-2-inside-1_741_5714" fill="white">
<path d="M6.50017 22.623C6.48752 22.623 6.47472 22.6221 6.46209 22.6221H6.53826C6.52557 22.6221 6.51288 22.623 6.50017 22.623ZM6.50017 7.77734C8.96442 7.7774 11.1483 8.97836 12.4984 10.8269C14.0218 12.9126 11.8293 15.2002 9.24649 15.2002H3.75386C1.17108 15.2002 -1.02144 12.9126 0.501872 10.8269C1.85197 8.97832 4.03587 7.77734 6.50017 7.77734Z"/>
</mask>
<path d="M6.50017 22.623C6.48752 22.623 6.47472 22.6221 6.46209 22.6221H6.53826C6.52557 22.6221 6.51288 22.623 6.50017 22.623ZM6.50017 7.77734C8.96442 7.7774 11.1483 8.97836 12.4984 10.8269C14.0218 12.9126 11.8293 15.2002 9.24649 15.2002H3.75386C1.17108 15.2002 -1.02144 12.9126 0.501872 10.8269C1.85197 8.97832 4.03587 7.77734 6.50017 7.77734Z" fill="#C2C2C2"/>
<path d="M6.50017 22.623V23.5584H6.50019L6.50017 22.623ZM6.46209 22.6221V21.6868L6.45741 23.5574L6.46209 22.6221ZM6.53826 22.6221L6.54298 23.5574L6.53826 21.6868V22.6221ZM6.50017 7.77734L6.50019 6.84204H6.50017V7.77734ZM6.50017 22.623V21.6877C6.50803 21.6877 6.5138 21.6879 6.51616 21.6879C6.51816 21.688 6.51922 21.688 6.51584 21.6879C6.51384 21.6878 6.50679 21.6876 6.49943 21.6874C6.49152 21.6871 6.48015 21.6868 6.46677 21.6868L6.46209 22.6221L6.45741 23.5574C6.45035 23.5573 6.44531 23.5572 6.44376 23.5571C6.44274 23.5571 6.44205 23.5571 6.44641 23.5572C6.44939 23.5574 6.45682 23.5576 6.46517 23.5579C6.47388 23.5581 6.48599 23.5584 6.50017 23.5584V22.623ZM6.46209 22.6221V23.5574H6.53826V22.6221V21.6868H6.46209V22.6221ZM6.53826 22.6221L6.53354 21.6868C6.52019 21.6868 6.50883 21.6871 6.50089 21.6874C6.4935 21.6876 6.48645 21.6878 6.48446 21.6879C6.48109 21.688 6.48218 21.688 6.48421 21.6879C6.48661 21.6879 6.49235 21.6877 6.50015 21.6877L6.50017 22.623L6.50019 23.5584C6.51435 23.5584 6.52644 23.5581 6.53519 23.5579C6.54357 23.5576 6.55101 23.5574 6.55399 23.5572C6.55835 23.5571 6.55764 23.5571 6.5566 23.5571C6.555 23.5572 6.54999 23.5573 6.54298 23.5574L6.53826 22.6221ZM6.50017 7.77734L6.50015 8.71265C8.6532 8.7127 10.5615 9.76073 11.7431 11.3785L12.4984 10.8269L13.2537 10.2752C11.7351 8.196 9.27564 6.84209 6.50019 6.84204L6.50017 7.77734ZM9.24649 15.2002V14.2649H3.75386V15.2002V16.1355H9.24649V15.2002ZM0.501872 10.8269L1.25718 11.3785C2.43877 9.76068 4.34708 8.71265 6.50017 8.71265V7.77734V6.84204C3.72466 6.84204 1.26518 8.19595 -0.253437 10.2752L0.501872 10.8269ZM3.75386 15.2002V14.2649C2.71908 14.2649 1.80048 13.8011 1.31225 13.2038C1.07404 12.9123 0.955141 12.6124 0.937635 12.3319C0.920731 12.061 0.993374 11.7397 1.25718 11.3785L0.501872 10.8269L-0.253437 10.2752C-0.751288 10.9569 -0.975823 11.7037 -0.929349 12.4484C-0.883478 13.1834 -0.578446 13.8464 -0.136091 14.3876C0.736811 15.4555 2.20587 16.1355 3.75386 16.1355V15.2002ZM12.4984 10.8269L11.7431 11.3785C12.0069 11.7397 12.0796 12.061 12.0627 12.3319C12.0452 12.6124 11.9263 12.9123 11.6881 13.2038C11.1999 13.8011 10.2813 14.2649 9.24649 14.2649V15.2002V16.1355C10.7945 16.1355 12.2635 15.4555 13.1364 14.3876C13.5788 13.8464 13.8838 13.1834 13.9297 12.4484C13.9761 11.7037 13.7516 10.9569 13.2537 10.2752L12.4984 10.8269Z" fill="#C2C2C2" mask="url(#path-2-inside-1_741_5714)"/>
</svg>
