<svg width="47" height="48" viewBox="0 0 47 48" fill="none" xmlns="http://www.w3.org/2000/svg">
<circle cx="23.5" cy="14.5" r="8.7" fill="#C2C2C2" stroke="#C2C2C2" stroke-width="1.6"/>
<mask id="path-2-inside-1_1622_4547" fill="white">
<path fill-rule="evenodd" clip-rule="evenodd" d="M36.5004 48C40.9187 48 44.6442 44.291 43.0001 40.19C39.9011 32.4595 32.3383 27 23.5004 27C14.6625 27 7.09979 32.4595 4.00075 40.19C2.3567 44.291 6.08216 48 10.5004 48H36.5004Z"/>
</mask>
<path fill-rule="evenodd" clip-rule="evenodd" d="M36.5004 48C40.9187 48 44.6442 44.291 43.0001 40.19C39.9011 32.4595 32.3383 27 23.5004 27C14.6625 27 7.09979 32.4595 4.00075 40.19C2.3567 44.291 6.08216 48 10.5004 48H36.5004Z" fill="#C2C2C2"/>
<path d="M43.0001 40.19L41.515 40.7853L43.0001 40.19ZM23.5004 27V28.6C31.6624 28.6 38.6509 33.641 41.515 40.7853L43.0001 40.19L44.4852 39.5946C41.1512 31.2781 33.0142 25.4 23.5004 25.4V27ZM4.00075 40.19L5.48586 40.7853C8.34994 33.641 15.3384 28.6 23.5004 28.6V27V25.4C13.9867 25.4 5.84964 31.2781 2.51564 39.5946L4.00075 40.19ZM10.5004 48V49.6H36.5004V48V46.4H10.5004V48ZM4.00075 40.19L2.51564 39.5946C1.44313 42.2699 2.1467 44.8543 3.78064 46.695C5.37994 48.4967 7.86095 49.6 10.5004 49.6V48V46.4C8.72164 46.4 7.13079 45.6488 6.1738 44.5707C5.25146 43.5316 4.91432 42.211 5.48586 40.7853L4.00075 40.19ZM43.0001 40.19L41.515 40.7853C42.0865 42.211 41.7494 43.5316 40.8271 44.5707C39.8701 45.6488 38.2792 46.4 36.5004 46.4V48V49.6C39.1399 49.6 41.6209 48.4967 43.2202 46.695C44.8542 44.8543 45.5577 42.2699 44.4852 39.5946L43.0001 40.19Z" fill="#C2C2C2" mask="url(#path-2-inside-1_1622_4547)"/>
</svg>
