<svg width="29" height="26" viewBox="0 0 29 26" fill="none" xmlns="http://www.w3.org/2000/svg">
<path d="M23.333 0C26.4626 0 29 2.53738 29 5.66699C28.9998 8.79646 26.4625 11.333 23.333 11.333H5.66699C2.53749 11.333 0.000176006 8.79646 0 5.66699C0 2.53738 2.53738 0 5.66699 0H23.333ZM5.62109 4C4.70067 4.00006 3.9541 4.74656 3.9541 5.66699C3.95428 6.58728 4.70078 7.33294 5.62109 7.33301H23.3789C24.2992 7.33294 25.0457 6.58728 25.0459 5.66699C25.0459 4.74656 24.2993 4.00007 23.3789 4H5.62109Z" fill="#C2C2C2"/>
<path d="M17.4546 13.334C18.0069 13.334 18.4546 13.7817 18.4546 14.334L18.4546 22.0461C18.4546 24.2301 16.6841 26.0007 14.5 26.0007C12.316 26.0007 10.5455 24.2301 10.5455 22.0461L10.5455 14.334C10.5455 13.7817 10.9932 13.334 11.5455 13.334L17.4546 13.334Z" fill="#C2C2C2"/>
<path d="M29 21.7168C29 24.0828 27.0818 26.0009 24.7158 26.0009C22.3498 26.0009 20.4316 24.0828 20.4316 21.7168V14.3339C20.4316 13.7817 20.8794 13.3339 21.4316 13.3339H24.2061C25.023 13.3339 25.8024 13.1328 26.5145 12.7678C27.4066 12.3106 29 12.8775 29 13.88V21.7168Z" fill="#C2C2C2"/>
<path d="M0 13.8799C0 12.8775 1.59309 12.3106 2.48521 12.7677C3.19715 13.1325 3.97625 13.3336 4.79297 13.3337H7.56836C8.12064 13.3337 8.56836 13.7814 8.56836 14.3337V21.7097C8.56836 24.0757 6.65018 25.9938 4.28418 25.9939C1.91814 25.9939 -8.09459e-08 24.0757 0 21.7097V13.8799Z" fill="#C2C2C2"/>
</svg>
