<svg width="30" height="26" viewBox="0 0 30 26" fill="none" xmlns="http://www.w3.org/2000/svg">
<path d="M5.11133 0C6.95217 0 8.44514 1.49221 8.44531 3.33301V22.667C8.44514 24.5078 6.95217 26 5.11133 26H3.33398C1.49314 26 0.00017623 24.5078 0 22.667V3.33301C0.000176617 1.49221 1.49314 0 3.33398 0H5.11133ZM2.77832 12C2.22604 12 1.77832 12.4477 1.77832 13C1.77832 13.5523 2.22604 14 2.77832 14H5.44434C5.99662 14 6.44434 13.5523 6.44434 13C6.44434 12.4477 5.99662 12 5.44434 12H2.77832Z" fill="#C2C2C2"/>
<path d="M15.5566 0C17.3975 2.92816e-05 18.8895 1.49223 18.8896 3.33301V22.667C18.8895 24.5078 17.3975 26 15.5566 26H13.7793C11.9385 26 10.4455 24.5078 10.4453 22.667V3.33301C10.4455 1.49221 11.9385 0 13.7793 0H15.5566ZM13.2236 12C12.6713 12 12.2236 12.4477 12.2236 13C12.2236 13.5521 12.6706 13.9997 13.2227 14H15.8896C16.4419 14 16.8896 13.5523 16.8896 13C16.8896 12.4477 16.4419 12 15.8896 12H13.2236Z" fill="#C2C2C2"/>
<path d="M26.001 0C27.8418 0 29.3348 1.49221 29.335 3.33301V22.667C29.3348 24.5078 27.8418 26 26.001 26H24.2236C22.3828 26 20.8898 24.5078 20.8896 22.667V3.33301C20.8898 1.49221 22.3828 0 24.2236 0H26.001ZM23.668 12C23.1157 12 22.668 12.4477 22.668 13C22.668 13.5523 23.1157 14 23.668 14H26.335C26.887 13.9997 27.335 13.5521 27.335 13C27.335 12.4479 26.887 12.0003 26.335 12H23.668Z" fill="#C2C2C2"/>
</svg>
