<svg width="232" height="50" viewBox="0 0 232 50" fill="none" xmlns="http://www.w3.org/2000/svg">
<g clip-path="url(#clip0_1323_2241)">
<path d="M42.114 0H45.9592C48.0739 0 49.7886 1.72163 49.7886 3.845V7.69H45.9592V5.7675C45.9592 4.70542 45.1022 3.845 44.0445 3.845H42.114" fill="white"/>
<path d="M49.7896 42.2793V46.1401C49.7896 48.2635 48.0592 49.9851 45.9444 49.9851H42.115V46.1401H44.0297C45.0875 46.1401 45.9444 45.2797 45.9444 44.2176V42.2793" fill="white"/>
<path d="M0.000976562 7.69158V3.83076C0.000976562 1.7066 1.71563 0 3.83118 0H7.66059V3.83076H5.74588C4.68811 3.83076 3.83118 4.69118 3.83118 5.75326V7.69158" fill="white"/>
<path d="M7.67458 49.9929H3.82941C1.71465 49.9929 0 48.2555 0 46.1321V42.2871H3.82941V44.2096C3.82941 45.2717 4.68634 46.1321 5.74412 46.1321H7.67458" fill="white"/>
<path d="M22.9804 42.2967V34.6067H15.3215V30.7617H34.4686V34.6067H26.8098V42.2967H30.6392C32.7539 42.2967 34.4686 44.0183 34.4686 46.1417V49.9867H30.6392V48.0642C30.6392 47.0021 29.7823 46.1417 28.7245 46.1417H24.8951C25.9528 46.1417 26.8098 47.0021 26.8098 48.0642C26.8098 49.1263 25.9528 49.9867 24.8951 49.9867C23.8373 49.9867 22.9804 49.1263 22.9804 48.0642C22.9804 47.0021 23.8373 46.1417 24.8951 46.1417H21.0657C20.0079 46.1417 19.1509 47.0021 19.1509 48.0642V49.9867H15.3215V46.1417C15.3215 44.0183 17.0362 42.2967 19.1509 42.2967H22.9804Z" fill="white"/>
<path d="M42.1306 26.9159H34.4717V34.6058H30.6423V15.3809H34.4717V23.0709H42.1306V19.2259C42.1306 17.1025 43.8452 15.3809 45.96 15.3809H49.7894V19.2259H47.8747C46.8169 19.2259 45.96 20.0863 45.96 21.1484V24.9934C45.96 23.9313 46.8169 23.0709 47.8747 23.0709C48.9325 23.0709 49.7894 23.9313 49.7894 24.9934C49.7894 26.0554 48.9325 26.9159 47.8747 26.9159C46.8169 26.9159 45.96 26.0554 45.96 24.9934V28.8384C45.96 29.9004 46.8169 30.7609 47.8747 30.7609H49.7894V34.6058H45.96C43.8452 34.6058 42.1306 32.8842 42.1306 30.7609V26.9159Z" fill="white"/>
<path d="M7.66273 23.0709H15.3216V15.3809H19.151V34.6058H15.3216V26.9159H7.66273V30.7609C7.66273 32.8842 5.94808 34.6058 3.83332 34.6058H0.00390625V30.7609H1.91861C2.97639 30.7609 3.83332 29.9004 3.83332 28.8384V24.9934C3.83332 26.0554 2.97639 26.9159 1.91861 26.9159C0.860838 26.9159 0.00390625 26.0546 0.00390625 24.9934C0.00390625 23.9321 0.860838 23.0709 1.91861 23.0709C2.97639 23.0709 3.83332 23.9313 3.83332 24.9934V21.1484C3.83332 20.0863 2.97639 19.2259 1.91861 19.2259H0.00390625V15.3809H3.83332C5.94808 15.3809 7.66273 17.1025 7.66273 19.2259V23.0709Z" fill="white"/>
<path d="M26.8129 7.69V15.38H34.4718V19.225H15.3247V15.38H22.9835V7.69H19.1541C17.0394 7.69 15.3247 5.96837 15.3247 3.845V0H19.1541V1.9225C19.1541 2.98458 20.011 3.845 21.0688 3.845H24.8982C23.8405 3.845 22.9835 2.98458 22.9835 1.9225C22.9835 0.860419 23.8405 0 24.8974 0C25.9544 0 26.8122 0.860419 26.8122 1.9225C26.8122 2.98458 25.9552 3.845 24.8974 3.845H28.7269C29.7846 3.845 30.6416 2.98458 30.6416 1.9225V0H34.471V3.845C34.471 5.96837 32.7563 7.69 30.6416 7.69H26.8122H26.8129Z" fill="white"/>
<path d="M62.1914 27.482C62.4537 27.4298 62.69 27.2843 62.9003 27.0471C63.1885 26.7576 63.3595 26.2831 63.4122 25.6236V5.45749C63.4122 3.74456 63.8257 2.40648 64.6527 1.44405C65.4797 0.481613 66.6541 0 68.1773 0H78.6921L78.4558 0.118624C78.2983 0.197707 78.1274 0.310004 77.9438 0.454725C77.7595 0.600237 77.5894 0.764729 77.4319 0.948992C77.2744 1.13405 77.1956 1.33175 77.1956 1.54211V27.4812H79.7554V32.9775C79.7554 32.8193 79.6632 32.5947 79.4797 32.3053C79.2954 32.015 78.9213 31.705 78.3573 31.376C77.7926 31.0463 76.9262 30.7631 75.7582 30.5259C74.5894 30.2887 72.9157 30.1566 70.7371 30.1305H69.2406C67.5079 30.1566 66.0571 30.2887 64.889 30.5259C63.7202 30.7631 62.8475 31.0463 62.2702 31.376C61.6921 31.705 61.3179 32.015 61.1478 32.3053C60.9769 32.5947 60.8918 32.8193 60.8918 32.9775V27.4812H62.1914V27.482ZM72.5093 27.482V3.67813C72.5093 3.30961 72.7581 2.95374 73.2575 2.61052L74.0057 2.17556H69.6344C69.2138 2.17556 68.8594 2.32108 68.5711 2.61052C68.2829 2.89996 68.138 3.25662 68.138 3.67813V24.7141C68.0852 25.7161 67.8095 26.639 67.311 27.482H72.5093Z" fill="white"/>
<path d="M92.3172 3.67813C92.3172 3.46777 92.3889 3.27007 92.5338 3.08501C92.678 2.90075 92.8418 2.74259 93.0261 2.61052C93.2096 2.47924 93.3805 2.37327 93.538 2.29419L93.6956 2.2151C93.7216 2.2151 93.735 2.20245 93.735 2.17556H89.4424C88.9958 2.17556 88.628 2.32108 88.3397 2.61052C88.0515 2.89996 87.9066 3.25662 87.9066 3.67813V9.53025C87.3025 9.7414 86.5739 10.0443 85.7209 10.4397C84.8671 10.8351 84.0338 11.3096 83.2202 11.8632V5.45749C83.325 1.81969 84.9136 0 87.9853 0H92.2385C93.7609 0 94.9361 0.481613 95.7631 1.44326C96.5901 2.40569 97.0036 3.74377 97.0036 5.4567V10.5971C97.0036 12.4429 96.4648 13.879 95.389 14.9071C96.4648 15.883 97.0036 17.346 97.0036 19.2962V24.2784C97.0036 25.8869 96.5901 27.1981 95.7631 28.2127C94.9361 29.2282 93.7609 29.7351 92.2385 29.7351H87.9853C86.4361 29.7351 85.2546 29.2345 84.441 28.2325C83.6266 27.2313 83.2202 25.913 83.2202 24.2784V18.624C84.1386 18.9403 85.7138 19.6655 87.9459 20.7987V26.2159C87.9979 26.5852 88.1554 26.8881 88.4185 27.1253C88.7068 27.4156 89.0486 27.5603 89.4424 27.5603H90.7814C90.8861 27.5603 90.9909 27.5476 91.0964 27.5208C91.4115 27.4686 91.6737 27.3365 91.884 27.1253C92.1723 26.8359 92.3172 26.48 92.3172 26.0577V16.8446C92.3172 16.1597 91.9628 15.6718 91.2539 15.3816C91.1224 15.4085 90.9515 15.4346 90.742 15.4607C90.5317 15.4875 90.3482 15.5136 90.1907 15.5397C90.0331 15.5666 89.941 15.5793 89.915 15.5793C89.0486 15.7904 88.4051 16.0214 87.9853 16.2713C87.5647 16.5219 87.2891 16.7655 87.1583 17.0028C87.0268 17.24 86.9614 17.4116 86.9614 17.5168V13.1277H91.2146C91.9494 12.8644 92.3172 12.3764 92.3172 11.6647V3.67813Z" fill="white"/>
<path d="M111.181 17.7936H107.046C105.522 17.7936 104.348 17.2867 103.521 16.2713C102.694 15.2566 102.281 13.9454 102.281 12.3369V1.54211C102.281 1.33175 102.202 1.13405 102.044 0.948992C101.887 0.764729 101.716 0.600237 101.532 0.454725C101.348 0.310004 101.178 0.197707 101.02 0.118624L100.863 0.0395413C100.836 0.0395413 100.823 0.0268881 100.823 0H106.967V14.1953C107.019 14.5907 107.184 14.9269 107.459 15.2036C107.735 15.4804 108.082 15.6188 108.503 15.6188H109.645C110.065 15.6188 110.425 15.4678 110.728 15.1641C111.03 14.8604 111.181 14.499 111.181 14.0767H111.22V2.21431C111.22 2.00395 111.141 1.77303 110.984 1.52234C110.826 1.27244 110.655 1.02807 110.472 0.790827C110.288 0.553579 110.117 0.355872 109.96 0.197707C109.907 0.145512 109.854 0.105971 109.802 0.0790827L109.724 0H115.906V24.1993C115.906 25.8078 115.499 27.119 114.686 28.1337C113.871 29.1491 112.69 29.656 111.141 29.656H106.888C105.365 29.656 104.191 29.1491 103.364 28.1337C102.537 27.119 102.123 25.8078 102.123 24.1993V19.0194C103.041 19.3357 104.604 20.0609 106.809 21.1942V26.0577C106.835 26.4531 106.993 26.7892 107.282 27.066C107.57 27.3428 107.925 27.4812 108.345 27.4812H109.684C110.104 27.4812 110.458 27.3302 110.748 27.0265C111.036 26.7236 111.181 26.3614 111.181 25.9391V17.7936Z" fill="white"/>
<path d="M136.029 29.656H131.816L130.792 23.1317C130.713 22.8153 130.319 22.4595 129.61 22.0641C128.901 21.6686 127.628 21.3792 125.79 21.1942L124.451 29.656H120.238L124.609 1.73982C124.477 1.47647 124.306 1.21313 124.097 0.948992C123.887 0.685647 123.703 0.461843 123.546 0.276789L123.27 0H131.382L136.029 29.656ZM130.162 18.9798L128.547 8.85726L128.153 3.55872L127.72 8.93634L126.145 18.9798H130.162Z" fill="white"/>
<path d="M145.205 29.6568H140.519V2.2151C140.519 1.84658 140.269 1.37208 139.77 0.791617L139.022 0H149.537C152.582 0 154.171 1.8189 154.302 5.4567V11.8229C154.302 13.4575 153.889 14.7758 153.062 15.777C152.235 16.779 151.059 17.2796 149.537 17.2796H145.205V29.656V29.6568ZM148.08 15.1451C148.5 15.1451 148.86 14.9941 149.163 14.6904C149.465 14.3867 149.616 14.0253 149.616 13.603V3.67813C149.616 3.25662 149.464 2.90075 149.163 2.61052C148.86 2.32108 148.5 2.17556 148.08 2.17556H143.748L143.984 2.29419C144.115 2.37327 144.28 2.47924 144.476 2.61052C144.673 2.74259 144.844 2.90075 144.988 3.08501C145.133 3.27007 145.205 3.46777 145.205 3.67813V15.1451H148.08Z" fill="white"/>
<path d="M159.185 2.21511C159.185 2.00475 159.107 1.77382 158.949 1.52313C158.792 1.27323 158.621 1.02887 158.437 0.791617C158.253 0.554369 158.083 0.356663 157.925 0.198497C157.872 0.146303 157.82 0.106762 157.768 0.0798735L157.689 0.000790827H163.872V16.1337L162.927 22.4207L168.558 0H173.953V29.656H169.267V13.4836L170.173 7.2756L164.541 29.656H159.185V2.21511Z" fill="white"/>
<path d="M194.55 29.6568H189.548L186.043 17.7944C185.623 16.6872 184.914 15.8173 183.917 15.1847V29.6568H179.23V2.2151C179.23 1.84658 178.981 1.37208 178.482 0.791617L177.734 0H183.917V11.7438L184.311 11.9415L188.918 0H193.604L188.721 12.5741H185.728L187.303 13.4045C189.088 14.3804 190.218 15.5271 190.69 16.8446L190.966 17.5563L194.55 29.656V29.6568Z" fill="white"/>
<path d="M213.885 29.656H209.671L208.647 23.1317C208.568 22.8153 208.175 22.4595 207.466 22.0641C206.757 21.6686 205.483 21.3792 203.646 21.1942L202.307 29.656H198.093L202.464 1.73982C202.333 1.47647 202.162 1.21313 201.952 0.948992C201.742 0.685647 201.559 0.461843 201.401 0.276789L201.125 0H209.238L213.885 29.656ZM208.017 18.9798L206.402 8.85726L206.009 3.55872L205.575 8.93634L204 18.9798H208.017Z" fill="white"/>
<path d="M227.274 17.7936H223.139C221.616 17.7936 220.442 17.2867 219.615 16.2713C218.788 15.2566 218.374 13.9454 218.374 12.3369V1.54211C218.374 1.33175 218.296 1.13405 218.138 0.948992C217.981 0.764729 217.81 0.600237 217.626 0.454725C217.442 0.310004 217.272 0.197707 217.114 0.118624L216.957 0.0395413C216.93 0.0395413 216.917 0.0268881 216.917 0H223.061V14.1953C223.113 14.5907 223.277 14.9269 223.553 15.2036C223.829 15.4804 224.176 15.6188 224.597 15.6188H225.739C226.158 15.6188 226.519 15.4678 226.822 15.1641C227.124 14.8604 227.274 14.499 227.274 14.0767H227.314V2.21431C227.314 2.00395 227.235 1.77303 227.078 1.52234C226.92 1.27244 226.749 1.02807 226.566 0.790827C226.381 0.553579 226.211 0.355872 226.054 0.197707C226.001 0.145512 225.948 0.105971 225.896 0.0790827L225.817 0H232V24.1993C232 25.8078 231.593 27.119 230.779 28.1337C229.965 29.1491 228.784 29.656 227.235 29.656H222.982C221.459 29.656 220.284 29.1491 219.457 28.1337C218.63 27.119 218.217 25.8078 218.217 24.1993V19.0194C219.135 19.3357 220.698 20.0609 222.903 21.1942V26.0577C222.929 26.4531 223.087 26.7892 223.376 27.066C223.664 27.3428 224.018 27.4812 224.439 27.4812H225.778C226.198 27.4812 226.552 27.3302 226.841 27.0265C227.13 26.7236 227.274 26.3614 227.274 25.9391V17.7936Z" fill="white"/>
<path d="M66.9558 49.9991H65.0812V39.8924C65.0812 39.8504 65.0599 39.7872 65.0182 39.7026C64.9024 39.4914 64.6086 39.3174 64.1361 39.1806C63.7265 39.0644 63.2697 39.0066 62.7656 39.0066V49.9991H60.8911V39.0224C60.8911 38.8746 60.791 38.6848 60.5918 38.453L60.2925 38.1367H66.9558V49.9991Z" fill="white"/>
<path d="M75.0841 49.9991H73.3985L72.989 47.3894C72.9575 47.2629 72.8 47.1205 72.5164 46.9623C72.2329 46.8042 71.7233 46.6887 70.9884 46.6144L70.4528 49.9991H68.7673L70.5159 38.8326C70.4631 38.7275 70.3953 38.6215 70.3111 38.5163C70.2268 38.4111 70.1536 38.321 70.0905 38.2474L69.9803 38.1367H73.2253L75.0841 49.9991ZM72.7369 45.7287L72.0911 41.6796L71.9336 39.5602L71.7603 41.7113L71.1302 45.7287H72.7369Z" fill="white"/>
<path d="M78.7544 49.9991H76.8798V39.0224C76.8798 38.8746 76.7798 38.6848 76.5805 38.453L76.2812 38.1367H80.4871C81.7056 38.1367 82.3404 38.8643 82.3932 40.3194V42.8659C82.3932 43.5199 82.2278 44.0466 81.897 44.4475C81.5662 44.8485 81.096 45.0485 80.4871 45.0485H78.7544V49.9991ZM79.9043 44.1944C80.0721 44.1944 80.217 44.1336 80.3375 44.0126C80.458 43.8916 80.5186 43.746 80.5186 43.5776V39.6077C80.5186 39.4392 80.458 39.2969 80.3375 39.1806C80.217 39.0644 80.0721 39.0066 79.9043 39.0066H78.1715L78.2661 39.0541C78.3188 39.0857 78.3842 39.1276 78.463 39.1806C78.5417 39.2336 78.6102 39.2969 78.6677 39.3704C78.7252 39.444 78.7544 39.523 78.7544 39.6077V44.1944H79.9043Z" fill="white"/>
<path d="M90.6315 49.9991H88.631L87.229 45.2542C87.0613 44.8113 86.7777 44.4633 86.3784 44.2103V49.9991H84.5039V39.0224C84.5039 38.8746 84.4038 38.6848 84.2046 38.453L83.9053 38.1367H86.3784V42.8342L86.5359 42.9133L88.379 38.1367H90.2535L88.3002 43.1664H87.103L87.7331 43.4985C88.4475 43.8884 88.8988 44.3471 89.0878 44.8746L89.1981 45.1593L90.6315 49.9991Z" fill="white"/>
<path d="M96.1441 44.5101H91.5759V43.6719H96.1441V44.5101Z" fill="white"/>
<path d="M101.784 49.9991H100.082C99.4735 49.9991 99.0033 49.7959 98.6725 49.3902C98.3417 48.9845 98.1763 48.4594 98.1763 47.8164V40.3194C98.1763 39.6338 98.3417 39.0992 98.6725 38.714C99.0033 38.3289 99.4735 38.1367 100.082 38.1367H101.784C103.012 38.1367 103.648 38.8643 103.69 40.3194V47.8164C103.69 48.4594 103.527 48.9845 103.201 49.3902C102.876 49.7959 102.403 49.9991 101.784 49.9991ZM101.201 49.1292C101.38 49.1292 101.526 49.0683 101.642 48.9473C101.758 48.8263 101.815 48.6808 101.815 48.5124V39.6077C101.815 39.4392 101.758 39.2969 101.642 39.1806C101.526 39.0644 101.38 39.0066 101.201 39.0066H99.468L99.5625 39.0541C99.6255 39.0857 99.694 39.1276 99.7673 39.1806C99.8405 39.2336 99.909 39.2969 99.972 39.3704C100.035 39.444 100.067 39.523 100.067 39.6077V48.5598C100.077 48.718 100.14 48.8524 100.256 48.9631C100.371 49.0738 100.508 49.1292 100.665 49.1292H101.201Z" fill="white"/>
<path d="M109.424 49.9991H107.549V39.0066L105.722 38.9908L105.706 39.0066C105.706 38.8587 105.606 38.6689 105.407 38.4372L105.107 38.1367H111.519V39.9082C111.361 39.3071 110.485 39.0066 108.888 39.0066C108.951 39.028 109.043 39.0802 109.164 39.1648C109.284 39.2494 109.371 39.3491 109.424 39.4653V49.9991Z" fill="white"/>
<path d="M118.308 49.9991H113.346V39.0224C113.346 38.8746 113.246 38.6848 113.047 38.453L112.747 38.1367H118.308V39.9082C118.308 39.8552 118.279 39.7816 118.221 39.6867C118.164 39.5918 118.042 39.4922 117.859 39.3862C117.675 39.281 117.394 39.1909 117.016 39.1173C116.638 39.0438 116.129 39.0011 115.488 38.9908L114.638 39.0066L114.937 39.1806C115.126 39.3174 115.22 39.4598 115.22 39.6077V43.3562H117.363V45.1276C117.363 44.9695 117.253 44.8168 117.032 44.6689C116.707 44.4372 116.134 44.2893 115.315 44.2261H115.22V49.145H118.308V49.9991Z" fill="white"/>
<path d="M126.798 49.9991H124.955L123.805 42.6919L123.522 39.5602L123.301 42.7077L122.167 49.9991H119.82L119.915 49.9517C119.978 49.92 120.046 49.875 120.119 49.8172C120.193 49.7595 120.261 49.6931 120.324 49.6195C120.387 49.546 120.419 49.4669 120.419 49.3823L122.183 38.1367H124.94L126.798 49.9991Z" fill="white"/>
<path d="M130.784 43.5618H132.516C133.125 43.5618 133.595 43.7627 133.926 44.1628C134.257 44.5638 134.422 45.0905 134.422 45.7445V47.8164C134.422 48.491 134.257 49.024 133.926 49.4139C133.595 49.8038 133.125 49.9991 132.516 49.9991H128.909V39.0224C128.909 38.9378 128.878 38.8461 128.815 38.7457C128.752 38.6452 128.683 38.5479 128.61 38.453C128.537 38.3582 128.468 38.2791 128.405 38.2158C128.384 38.1944 128.363 38.1786 128.342 38.1684L128.311 38.1367H130.784V43.5618ZM130.784 48.5282C130.784 48.6128 130.755 48.6919 130.697 48.7654C130.64 48.839 130.571 48.9022 130.492 48.9552C130.413 49.0082 130.348 49.0501 130.295 49.0818C130.264 49.092 130.243 49.1031 130.232 49.1134C130.222 49.1134 130.217 49.1189 130.217 49.1292H131.934C132.101 49.1292 132.245 49.0715 132.367 48.9552C132.487 48.839 132.548 48.6966 132.548 48.5282V45.0327C132.548 44.8643 132.487 44.7188 132.367 44.5978C132.245 44.4768 132.101 44.4159 131.934 44.4159H130.784V48.5282Z" fill="white"/>
</g>
<defs>
<clipPath id="clip0_1323_2241">
<rect width="232" height="50" fill="white"/>
</clipPath>
</defs>
</svg>
