<svg width="178" height="50" viewBox="0 0 178 50" fill="none" xmlns="http://www.w3.org/2000/svg">
<rect width="177.401" height="50" rx="15" fill="white" fill-opacity="0.2"/>
<path fill-rule="evenodd" clip-rule="evenodd" d="M20 15.3117C20 13.4665 21.4958 11.9707 23.341 11.9707H40.0463C41.8915 11.9707 43.3873 13.4665 43.3873 15.3117V31.3488C43.3873 33.194 41.8915 34.6898 40.0463 34.6898L40.0463 36.3603C40.0463 37.2829 39.2983 38.0308 38.3757 38.0308C37.4531 38.0308 36.7052 37.2829 36.7052 36.3603V34.6898H27.3503V36.3603C27.3503 37.2829 26.6024 38.0308 25.6798 38.0308C24.7572 38.0308 24.0093 37.2829 24.0093 36.3603V34.6898H23.341C21.4958 34.6898 20 33.194 20 31.3488V15.3117ZM22.0046 24.3326C22.0046 23.41 22.7525 22.662 23.6751 22.662C24.5978 22.662 25.3457 23.41 25.3457 24.3326V31.0147C25.3457 31.9373 24.5978 32.6852 23.6751 32.6852C22.7525 32.6852 22.0046 31.9373 22.0046 31.0147V24.3326ZM29.0208 22.662C28.0982 22.662 27.3503 23.41 27.3503 24.3326V31.0147C27.3503 31.9373 28.0982 32.6852 29.0208 32.6852C29.9434 32.6852 30.6913 31.9373 30.6913 31.0147V24.3326C30.6913 23.41 29.9434 22.662 29.0208 22.662ZM32.696 24.3326C32.696 23.41 33.4439 22.662 34.3665 22.662C35.2891 22.662 36.037 23.41 36.037 24.3326V31.0147C36.037 31.9373 35.2891 32.6852 34.3665 32.6852C33.4439 32.6852 32.696 31.9373 32.696 31.0147V24.3326ZM39.7122 22.662C38.7896 22.662 38.0416 23.41 38.0416 24.3326V31.0147C38.0416 31.9373 38.7896 32.6852 39.7122 32.6852C40.6348 32.6852 41.3827 31.9373 41.3827 31.0147V24.3326C41.3827 23.41 40.6348 22.662 39.7122 22.662ZM45.3919 13.3071C45.3919 12.569 45.9903 11.9707 46.7284 11.9707C47.4664 11.9707 48.0648 12.569 48.0648 13.3071L48.0648 19.321C48.8029 19.321 49.4012 19.9193 49.4012 20.6574V22.662C49.4012 23.4001 48.8029 23.9985 48.0648 23.9985L48.0648 33.3534C48.0648 34.0915 47.4664 34.6898 46.7284 34.6898C45.9903 34.6898 45.3919 34.0915 45.3919 33.3534V13.3071Z" fill="#C2C2C2"/>
<path d="M61.1627 17.4545H63.265L68.2082 29.5284H68.3786L73.3218 17.4545H75.4241V32H73.7764V20.9489H73.6343L69.0889 32H67.498L62.9525 20.9489H62.8105V32H61.1627V17.4545ZM80.4046 29.5284L85.6602 21.0909H87.5921V32H85.9159V23.5625L80.6887 32H78.7284V21.0909H80.4046V29.5284ZM97.9632 25.7784V27.3409H91.9404V25.7784H97.9632ZM92.3382 21.0909V32H90.662V21.0909H92.3382ZM99.2416 21.0909V32H97.5654V21.0909H99.2416ZM103.979 29.5284L109.234 21.0909H111.166V32H109.49V23.5625L104.263 32H102.303V21.0909H103.979V29.5284ZM120.486 24.983V26.5455H114.123V24.983H120.486ZM131.532 17L132.384 18.0227C132.053 18.3447 131.669 18.5696 131.234 18.6974C130.798 18.8253 130.306 18.9034 129.756 18.9318C129.207 18.9602 128.596 18.9886 127.924 19.017C127.167 19.0455 126.539 19.2301 126.042 19.571C125.545 19.9119 125.161 20.4044 124.891 21.0483C124.622 21.6922 124.449 22.483 124.373 23.4205H124.515C124.884 22.7386 125.396 22.2367 126.049 21.9148C126.703 21.5928 127.403 21.4318 128.151 21.4318C129.004 21.4318 129.771 21.6307 130.453 22.0284C131.134 22.4261 131.674 23.0156 132.072 23.7969C132.47 24.5781 132.668 25.5417 132.668 26.6875C132.668 27.8286 132.465 28.8134 132.058 29.642C131.655 30.4706 131.089 31.1098 130.36 31.5597C129.636 32.0047 128.786 32.2273 127.81 32.2273C126.835 32.2273 125.98 31.9976 125.247 31.5384C124.513 31.0743 123.942 30.3878 123.535 29.4787C123.128 28.5649 122.924 27.4356 122.924 26.0909V24.9261C122.924 22.4972 123.336 20.6553 124.16 19.4006C124.988 18.1458 126.234 17.4972 127.896 17.4545C128.483 17.4356 129.006 17.4309 129.465 17.4403C129.925 17.4498 130.325 17.4285 130.666 17.3764C131.006 17.3243 131.295 17.1989 131.532 17ZM127.81 30.7216C128.469 30.7216 129.034 30.5559 129.508 30.2244C129.986 29.893 130.353 29.4266 130.609 28.8253C130.864 28.2192 130.992 27.5066 130.992 26.6875C130.992 25.892 130.862 25.215 130.602 24.6562C130.346 24.0975 129.979 23.6714 129.501 23.3778C129.023 23.0843 128.45 22.9375 127.782 22.9375C127.294 22.9375 126.856 23.0204 126.468 23.1861C126.08 23.3518 125.748 23.5956 125.474 23.9176C125.199 24.2396 124.986 24.6326 124.835 25.0966C124.688 25.5606 124.61 26.0909 124.6 26.6875C124.6 27.9091 124.887 28.8868 125.46 29.6207C126.033 30.3546 126.816 30.7216 127.81 30.7216ZM138.443 32.2557C137.751 32.2557 137.124 32.1255 136.56 31.8651C135.997 31.5999 135.55 31.2188 135.218 30.7216C134.887 30.2197 134.721 29.6136 134.721 28.9034C134.721 28.2784 134.844 27.7718 135.09 27.3835C135.336 26.9905 135.666 26.6828 136.078 26.4602C136.489 26.2377 136.944 26.072 137.441 25.9631C137.943 25.8494 138.447 25.7595 138.954 25.6932C139.617 25.608 140.154 25.544 140.566 25.5014C140.983 25.4541 141.286 25.3759 141.475 25.267C141.669 25.1581 141.766 24.9687 141.766 24.6989V24.642C141.766 23.9413 141.575 23.3968 141.191 23.0085C140.812 22.6203 140.237 22.4261 139.465 22.4261C138.665 22.4261 138.038 22.6013 137.583 22.9517C137.129 23.3021 136.809 23.6761 136.624 24.0739L135.033 23.5057C135.318 22.8428 135.696 22.3267 136.17 21.9574C136.648 21.5833 137.169 21.3229 137.732 21.1761C138.301 21.0246 138.859 20.9489 139.408 20.9489C139.759 20.9489 140.161 20.9915 140.616 21.0767C141.075 21.1572 141.518 21.3253 141.944 21.581C142.375 21.8366 142.732 22.2225 143.016 22.7386C143.301 23.2547 143.443 23.946 143.443 24.8125V32H141.766V30.5227H141.681C141.568 30.7595 141.378 31.0128 141.113 31.2827C140.848 31.5526 140.495 31.7822 140.055 31.9716C139.614 32.161 139.077 32.2557 138.443 32.2557ZM138.698 30.75C139.361 30.75 139.92 30.6198 140.374 30.3594C140.834 30.099 141.179 29.7628 141.411 29.3509C141.648 28.9389 141.766 28.5057 141.766 28.0511V26.517C141.695 26.6023 141.539 26.6804 141.298 26.7514C141.061 26.8177 140.786 26.8769 140.474 26.929C140.166 26.9763 139.865 27.0189 139.572 27.0568C139.283 27.09 139.049 27.1184 138.869 27.142C138.433 27.1989 138.026 27.2912 137.647 27.419C137.273 27.5421 136.97 27.7292 136.738 27.9801C136.511 28.2263 136.397 28.5625 136.397 28.9886C136.397 29.571 136.613 30.0114 137.043 30.3097C137.479 30.6032 138.031 30.75 138.698 30.75ZM146.502 36.0909V21.0909H148.121V22.8239H148.32C148.443 22.6345 148.614 22.393 148.831 22.0994C149.054 21.8011 149.371 21.536 149.783 21.304C150.2 21.0672 150.763 20.9489 151.473 20.9489C152.392 20.9489 153.202 21.1785 153.902 21.6378C154.603 22.0971 155.15 22.7481 155.543 23.5909C155.936 24.4337 156.133 25.428 156.133 26.5739C156.133 27.7292 155.936 28.7306 155.543 29.5781C155.15 30.4209 154.606 31.0743 153.91 31.5384C153.214 31.9976 152.411 32.2273 151.502 32.2273C150.801 32.2273 150.24 32.1113 149.819 31.8793C149.397 31.6425 149.073 31.375 148.846 31.0767C148.618 30.7737 148.443 30.5227 148.32 30.3239H148.178V36.0909H146.502ZM148.15 26.5455C148.15 27.3693 148.27 28.0961 148.512 28.7259C148.753 29.3509 149.106 29.8409 149.57 30.196C150.034 30.5464 150.602 30.7216 151.275 30.7216C151.975 30.7216 152.56 30.5369 153.029 30.1676C153.502 29.7936 153.857 29.2917 154.094 28.6619C154.336 28.0275 154.456 27.322 154.456 26.5455C154.456 25.7784 154.338 25.0871 154.101 24.4716C153.869 23.8513 153.517 23.3613 153.043 23.0014C152.574 22.6368 151.985 22.4545 151.275 22.4545C150.593 22.4545 150.02 22.6274 149.556 22.973C149.092 23.3139 148.741 23.7921 148.505 24.4077C148.268 25.0185 148.15 25.7311 148.15 26.5455Z" fill="#C2C2C2"/>
</svg>
