<svg width="44" height="39" viewBox="0 0 44 39" fill="none" xmlns="http://www.w3.org/2000/svg">
<path fill-rule="evenodd" clip-rule="evenodd" d="M0 5C0 2.23858 2.23858 0 5 0H30C32.7614 0 35 2.23858 35 5V29C35 31.7614 32.7614 34 30 34V36.5C30 37.8807 28.8807 39 27.5 39C26.1193 39 25 37.8807 25 36.5V34H11V36.5C11 37.8807 9.88071 39 8.5 39C7.11929 39 6 37.8807 6 36.5V34H5C2.23858 34 0 31.7614 0 29V5ZM3 18.5C3 17.1193 4.11929 16 5.5 16C6.88071 16 8 17.1193 8 18.5V28.5C8 29.8807 6.88071 31 5.5 31C4.11929 31 3 29.8807 3 28.5V18.5ZM13.5 16C12.1193 16 11 17.1193 11 18.5V28.5C11 29.8807 12.1193 31 13.5 31C14.8807 31 16 29.8807 16 28.5V18.5C16 17.1193 14.8807 16 13.5 16ZM19 18.5C19 17.1193 20.1193 16 21.5 16C22.8807 16 24 17.1193 24 18.5V28.5C24 29.8807 22.8807 31 21.5 31C20.1193 31 19 29.8807 19 28.5V18.5ZM29.5 16C28.1193 16 27 17.1193 27 18.5V28.5C27 29.8807 28.1193 31 29.5 31C30.8807 31 32 29.8807 32 28.5V18.5C32 17.1193 30.8807 16 29.5 16ZM38 2C38 0.89543 38.8954 0 40 0C41.1046 0 42 0.895431 42 2V11C43.1046 11 44 11.8954 44 13V16C44 17.1046 43.1046 18 42 18V32C42 33.1046 41.1046 34 40 34C38.8954 34 38 33.1046 38 32V2Z" fill="#C2C2C2"/>
</svg>
