<svg width="43" height="43" viewBox="0 0 43 43" fill="none" xmlns="http://www.w3.org/2000/svg">
<path fill-rule="evenodd" clip-rule="evenodd" d="M21.5 0C9.62588 0 0 9.62588 0 21.5C0 33.3741 9.62588 43 21.5 43C33.3741 43 43 33.3741 43 21.5C43 9.62588 33.3741 0 21.5 0ZM13 12C13 10.8954 13.8954 10 15 10H22.5C26.6421 10 30 13.3579 30 17.5C30 21.6421 26.6421 25 22.5 25H18C17.4477 25 17 25.4477 17 26V32C17 33.1046 16.1046 34 15 34C13.8954 34 13 33.1046 13 32V25V12ZM17 15C17 14.4477 17.4477 14 18 14H22.5C24.433 14 26 15.567 26 17.5C26 19.433 24.433 21 22.5 21H18C17.4477 21 17 20.5523 17 20V15Z" fill="#C2C2C2"/>
</svg>
