<svg width="173" height="50" viewBox="0 0 173 50" fill="none" xmlns="http://www.w3.org/2000/svg">
<rect width="172.733" height="50" rx="15" fill="white" fill-opacity="0.2"/>
<path fill-rule="evenodd" clip-rule="evenodd" d="M34.3665 10.6328C26.4321 10.6328 20 17.0649 20 24.9993C20 32.9337 26.4321 39.3658 34.3665 39.3658C42.3009 39.3658 48.733 32.9337 48.733 24.9993C48.733 17.0649 42.3009 10.6328 34.3665 10.6328ZM28.6863 18.6521C28.6863 17.914 29.2846 17.3157 30.0227 17.3157C30.0344 17.3157 30.046 17.3158 30.0576 17.3161H35.0344C37.8023 17.3161 40.046 19.5599 40.046 22.3277C40.046 25.0955 37.8023 27.3393 35.0344 27.3393H32.0273C31.6583 27.3393 31.3591 27.6384 31.3591 28.0075V32.0163C31.3591 32.7544 30.7608 33.3527 30.0227 33.3527C29.2846 33.3527 28.6863 32.7544 28.6863 32.0163V18.6521ZM32.0275 19.989C31.6585 19.989 31.3593 20.2881 31.3593 20.6572V23.9982C31.3593 24.3673 31.6585 24.6664 32.0275 24.6664H35.0344C36.3261 24.6664 37.3732 23.6193 37.3732 22.3277C37.3732 21.0361 36.3261 19.989 35.0344 19.989H32.0275Z" fill="#C2C2C2"/>
<path d="M71.375 17.4545V32H69.6136V19.017H62.284V32H60.5227V17.4545H71.375ZM77.9108 32.2557C77.2195 32.2557 76.5922 32.1255 76.0287 31.8651C75.4653 31.5999 75.0178 31.2188 74.6864 30.7216C74.355 30.2197 74.1892 29.6136 74.1892 28.9034C74.1892 28.2784 74.3123 27.7718 74.5585 27.3835C74.8048 26.9905 75.1338 26.6828 75.5458 26.4602C75.9577 26.2377 76.4122 26.072 76.9094 25.9631C77.4113 25.8494 77.9156 25.7595 78.4222 25.6932C79.0851 25.608 79.6225 25.544 80.0344 25.5014C80.4511 25.4541 80.7541 25.3759 80.9435 25.267C81.1376 25.1581 81.2347 24.9687 81.2347 24.6989V24.642C81.2347 23.9413 81.0429 23.3968 80.6594 23.0085C80.2806 22.6203 79.7053 22.4261 78.9335 22.4261C78.1334 22.4261 77.506 22.6013 77.0514 22.9517C76.5969 23.3021 76.2773 23.6761 76.0926 24.0739L74.5017 23.5057C74.7858 22.8428 75.1646 22.3267 75.6381 21.9574C76.1163 21.5833 76.6371 21.3229 77.2006 21.1761C77.7688 21.0246 78.3275 20.9489 78.8767 20.9489C79.2271 20.9489 79.6296 20.9915 80.0841 21.0767C80.5434 21.1572 80.9861 21.3253 81.4122 21.581C81.8431 21.8366 82.2006 22.2225 82.4847 22.7386C82.7688 23.2547 82.9108 23.946 82.9108 24.8125V32H81.2347V30.5227H81.1495C81.0358 30.7595 80.8464 31.0128 80.5813 31.2827C80.3161 31.5526 79.9634 31.7822 79.523 31.9716C79.0827 32.161 78.5453 32.2557 77.9108 32.2557ZM78.1665 30.75C78.8294 30.75 79.3881 30.6198 79.8426 30.3594C80.3019 30.099 80.6476 29.7628 80.8796 29.3509C81.1163 28.9389 81.2347 28.5057 81.2347 28.0511V26.517C81.1637 26.6023 81.0074 26.6804 80.7659 26.7514C80.5292 26.8177 80.2546 26.8769 79.9421 26.929C79.6343 26.9763 79.3336 27.0189 79.0401 27.0568C78.7513 27.09 78.5169 27.1184 78.337 27.142C77.9014 27.1989 77.4942 27.2912 77.1154 27.419C76.7413 27.5421 76.4383 27.7292 76.2063 27.9801C75.979 28.2263 75.8654 28.5625 75.8654 28.9886C75.8654 29.571 76.0808 30.0114 76.5117 30.3097C76.9473 30.6032 77.4989 30.75 78.1665 30.75ZM85.9701 36.0909V21.0909H87.5894V22.8239H87.7883C87.9114 22.6345 88.0819 22.393 88.2997 22.0994C88.5222 21.8011 88.8394 21.536 89.2514 21.304C89.668 21.0672 90.2315 20.9489 90.9417 20.9489C91.8603 20.9489 92.6699 21.1785 93.3707 21.6378C94.0715 22.0971 94.6183 22.7481 95.0113 23.5909C95.4043 24.4337 95.6008 25.428 95.6008 26.5739C95.6008 27.7292 95.4043 28.7306 95.0113 29.5781C94.6183 30.4209 94.0738 31.0743 93.3778 31.5384C92.6818 31.9976 91.8792 32.2273 90.9701 32.2273C90.2694 32.2273 89.7083 32.1113 89.2869 31.8793C88.8655 31.6425 88.5411 31.375 88.3139 31.0767C88.0866 30.7737 87.9114 30.5227 87.7883 30.3239H87.6463V36.0909H85.9701ZM87.6179 26.5455C87.6179 27.3693 87.7386 28.0961 87.9801 28.7259C88.2215 29.3509 88.5743 29.8409 89.0383 30.196C89.5023 30.5464 90.0705 30.7216 90.7429 30.7216C91.4436 30.7216 92.0284 30.5369 92.4971 30.1676C92.9706 29.7936 93.3257 29.2917 93.5625 28.6619C93.8039 28.0275 93.9247 27.322 93.9247 26.5455C93.9247 25.7784 93.8063 25.0871 93.5696 24.4716C93.3376 23.8513 92.9848 23.3613 92.5113 23.0014C92.0426 22.6368 91.4531 22.4545 90.7429 22.4545C90.061 22.4545 89.4881 22.6274 89.0241 22.973C88.5601 23.3139 88.2097 23.7921 87.973 24.4077C87.7362 25.0185 87.6179 25.7311 87.6179 26.5455ZM98.1576 32V21.0909H99.8338V25.8352H100.942L104.862 21.0909H107.021L102.618 26.3466L107.078 32H104.919L101.339 27.3977H99.8338V32H98.1576ZM112.882 32.2273C111.898 32.2273 111.033 31.9929 110.29 31.5241C109.551 31.0554 108.974 30.3996 108.557 29.5568C108.145 28.714 107.939 27.7292 107.939 26.6023C107.939 25.4659 108.145 24.474 108.557 23.6264C108.974 22.7789 109.551 22.1207 110.29 21.652C111.033 21.1832 111.898 20.9489 112.882 20.9489C113.867 20.9489 114.729 21.1832 115.468 21.652C116.211 22.1207 116.789 22.7789 117.201 23.6264C117.617 24.474 117.826 25.4659 117.826 26.6023C117.826 27.7292 117.617 28.714 117.201 29.5568C116.789 30.3996 116.211 31.0554 115.468 31.5241C114.729 31.9929 113.867 32.2273 112.882 32.2273ZM112.882 30.7216C113.631 30.7216 114.246 30.5298 114.729 30.1463C115.212 29.7628 115.569 29.2585 115.801 28.6335C116.033 28.0085 116.149 27.3314 116.149 26.6023C116.149 25.8731 116.033 25.1937 115.801 24.5639C115.569 23.9342 115.212 23.4252 114.729 23.0369C114.246 22.6487 113.631 22.4545 112.882 22.4545C112.134 22.4545 111.519 22.6487 111.036 23.0369C110.553 23.4252 110.195 23.9342 109.963 24.5639C109.731 25.1937 109.615 25.8731 109.615 26.6023C109.615 27.3314 109.731 28.0085 109.963 28.6335C110.195 29.2585 110.553 29.7628 111.036 30.1463C111.519 30.5298 112.134 30.7216 112.882 30.7216ZM120.384 32V21.0909H124.844C126.019 21.0909 126.951 21.3561 127.643 21.8864C128.334 22.4167 128.68 23.1174 128.68 23.9886C128.68 24.6515 128.483 25.1652 128.09 25.5298C127.697 25.8897 127.193 26.1335 126.577 26.2614C126.98 26.3182 127.37 26.4602 127.749 26.6875C128.133 26.9148 128.45 27.2273 128.701 27.625C128.952 28.018 129.077 28.5009 129.077 29.0739C129.077 29.6326 128.935 30.1321 128.651 30.5724C128.367 31.0128 127.96 31.3608 127.43 31.6165C126.899 31.8722 126.265 32 125.526 32H120.384ZM121.975 30.4659H125.526C126.104 30.4659 126.556 30.3286 126.883 30.054C127.209 29.7794 127.373 29.4053 127.373 28.9318C127.373 28.3684 127.209 27.9257 126.883 27.6037C126.556 27.277 126.104 27.1136 125.526 27.1136H121.975V30.4659ZM121.975 25.6648H124.844C125.294 25.6648 125.68 25.6032 126.002 25.4801C126.324 25.3523 126.57 25.1723 126.741 24.9403C126.916 24.7036 127.004 24.4242 127.004 24.1023C127.004 23.643 126.812 23.2831 126.428 23.0227C126.045 22.7576 125.517 22.625 124.844 22.625H121.975V25.6648ZM131.615 32V21.0909H133.291V25.8352H134.399L138.319 21.0909H140.478L136.075 26.3466L140.535 32H138.376L134.796 27.3977H133.291V32H131.615ZM145.567 32.2557C144.876 32.2557 144.248 32.1255 143.685 31.8651C143.122 31.5999 142.674 31.2188 142.343 30.7216C142.011 30.2197 141.845 29.6136 141.845 28.9034C141.845 28.2784 141.969 27.7718 142.215 27.3835C142.461 26.9905 142.79 26.6828 143.202 26.4602C143.614 26.2377 144.068 26.072 144.566 25.9631C145.068 25.8494 145.572 25.7595 146.078 25.6932C146.741 25.608 147.279 25.544 147.691 25.5014C148.107 25.4541 148.41 25.3759 148.6 25.267C148.794 25.1581 148.891 24.9687 148.891 24.6989V24.642C148.891 23.9413 148.699 23.3968 148.316 23.0085C147.937 22.6203 147.362 22.4261 146.59 22.4261C145.79 22.4261 145.162 22.6013 144.708 22.9517C144.253 23.3021 143.934 23.6761 143.749 24.0739L142.158 23.5057C142.442 22.8428 142.821 22.3267 143.294 21.9574C143.773 21.5833 144.293 21.3229 144.857 21.1761C145.425 21.0246 145.984 20.9489 146.533 20.9489C146.883 20.9489 147.286 20.9915 147.74 21.0767C148.2 21.1572 148.642 21.3253 149.068 21.581C149.499 21.8366 149.857 22.2225 150.141 22.7386C150.425 23.2547 150.567 23.946 150.567 24.8125V32H148.891V30.5227H148.806C148.692 30.7595 148.503 31.0128 148.238 31.2827C147.972 31.5526 147.62 31.7822 147.179 31.9716C146.739 32.161 146.202 32.2557 145.567 32.2557ZM145.823 30.75C146.486 30.75 147.044 30.6198 147.499 30.3594C147.958 30.099 148.304 29.7628 148.536 29.3509C148.773 28.9389 148.891 28.5057 148.891 28.0511V26.517C148.82 26.6023 148.664 26.6804 148.422 26.7514C148.185 26.8177 147.911 26.8769 147.598 26.929C147.291 26.9763 146.99 27.0189 146.696 27.0568C146.408 27.09 146.173 27.1184 145.993 27.142C145.558 27.1989 145.15 27.2912 144.772 27.419C144.398 27.5421 144.095 27.7292 143.863 27.9801C143.635 28.2263 143.522 28.5625 143.522 28.9886C143.522 29.571 143.737 30.0114 144.168 30.3097C144.604 30.6032 145.155 30.75 145.823 30.75Z" fill="#C2C2C2"/>
</svg>
