<svg width="40" height="50" viewBox="0 0 40 50" fill="none" xmlns="http://www.w3.org/2000/svg">
<path d="M20 0C8.954 0 0 8.954 0 20C0 25.521 2.237 30.52 5.855 34.139C9.474 37.76 18 43 18.5 48.5C18.575 49.3247 19.172 50 20 50C20.828 50 21.425 49.3247 21.5 48.5C22 43 30.526 37.76 34.145 34.139C37.763 30.52 40 25.521 40 20C40 8.954 31.046 0 20 0Z" fill="#FF4433"/>
<path d="M19.999 27C23.865 27 26.999 23.866 26.999 20C26.999 16.134 23.865 13 19.999 13C16.1331 13 12.999 16.134 12.999 20C12.999 23.866 16.1331 27 19.999 27Z" fill="white"/>
</svg>
