<svg width="361" height="86" viewBox="0 0 361 86" fill="none" xmlns="http://www.w3.org/2000/svg">
<rect width="147.845" height="38" rx="7" fill="white" fill-opacity="0.2"/>
<path d="M19.458 10.2051C20.7034 10.2051 21.7128 11.2146 21.7129 12.46V25.54C21.7128 26.7855 20.7035 27.7949 19.458 27.7949H18.2549C17.0097 27.7947 16 26.7853 16 25.54V12.46C16.0001 11.2148 17.0097 10.2053 18.2549 10.2051H19.458ZM17.8799 18.3232C17.5063 18.3232 17.2032 18.6264 17.2031 19C17.2031 19.3736 17.5062 19.6768 17.8799 19.6768H19.6836C20.0572 19.6767 20.3604 19.3736 20.3604 19C20.3603 18.6264 20.0572 18.3233 19.6836 18.3232H17.8799Z" fill="#C2C2C2"/>
<path d="M26.5239 10.2051C27.7693 10.2051 28.7787 11.2146 28.7788 12.46V25.54C28.7788 26.7854 27.7693 27.7949 26.5239 27.7949H25.3208C24.0755 27.7948 23.066 26.7854 23.0659 25.54V12.46C23.066 11.2147 24.0755 10.2052 25.3208 10.2051H26.5239ZM24.9448 18.3232C24.5714 18.3234 24.2691 18.6265 24.269 19C24.269 19.3735 24.5713 19.6766 24.9448 19.6768H26.7495C27.123 19.6766 27.4263 19.3736 27.4263 19C27.4262 18.6265 27.123 18.3234 26.7495 18.3232H24.9448Z" fill="#C2C2C2"/>
<path d="M33.5898 10.2051C34.8352 10.2051 35.8456 11.2146 35.8457 12.46V25.54C35.8457 26.7855 34.8353 27.7949 33.5898 27.7949H32.3877C31.1423 27.7949 30.1319 26.7855 30.1318 25.54V12.46C30.132 11.2146 31.1423 10.2051 32.3877 10.2051H33.5898ZM32.0117 18.3232C31.6381 18.3232 31.335 18.6264 31.335 19C31.335 19.3736 31.6381 19.6768 32.0117 19.6768H33.8154C34.1891 19.6768 34.4922 19.3736 34.4922 19C34.4921 18.6264 34.189 18.3232 33.8154 18.3232H32.0117Z" fill="#C2C2C2"/>
<path d="M47.1662 24V13.0909H50.8523C51.7081 13.0909 52.4077 13.2454 52.951 13.5543C53.4979 13.8597 53.9027 14.2734 54.1655 14.7955C54.4283 15.3175 54.5597 15.8999 54.5597 16.5426C54.5597 17.1854 54.4283 17.7695 54.1655 18.2951C53.9063 18.8207 53.505 19.2397 52.9617 19.5522C52.4184 19.8612 51.7223 20.0156 50.8736 20.0156H48.2316V18.8438H50.831C51.4169 18.8438 51.8875 18.7425 52.2426 18.5401C52.5977 18.3377 52.8552 18.0643 53.015 17.7198C53.1783 17.3718 53.26 16.9794 53.26 16.5426C53.26 16.1058 53.1783 15.7152 53.015 15.3707C52.8552 15.0263 52.5959 14.7564 52.2373 14.5611C51.8786 14.3622 51.4027 14.2628 50.8097 14.2628H48.4873V24H47.1662ZM58.9249 24.1918C58.4065 24.1918 57.9359 24.0941 57.5134 23.8988C57.0908 23.6999 56.7552 23.4141 56.5066 23.0412C56.258 22.6648 56.1337 22.2102 56.1337 21.6776C56.1337 21.2088 56.2261 20.8288 56.4107 20.5376C56.5954 20.2429 56.8422 20.0121 57.1511 19.8452C57.4601 19.6783 57.801 19.554 58.1739 19.4723C58.5503 19.3871 58.9285 19.3196 59.3085 19.2699C59.8056 19.206 60.2087 19.158 60.5176 19.1261C60.8301 19.0906 61.0574 19.032 61.1994 18.9503C61.345 18.8686 61.4178 18.7266 61.4178 18.5241V18.4815C61.4178 17.956 61.274 17.5476 60.9864 17.2564C60.7023 16.9652 60.2708 16.8196 59.692 16.8196C59.0918 16.8196 58.6213 16.951 58.2804 17.2138C57.9395 17.4766 57.6998 17.7571 57.5613 18.0554L56.3681 17.6293C56.5812 17.1321 56.8653 16.745 57.2204 16.468C57.5791 16.1875 57.9697 15.9922 58.3923 15.8821C58.8184 15.7685 59.2374 15.7116 59.6494 15.7116C59.9122 15.7116 60.214 15.7436 60.5549 15.8075C60.8994 15.8679 61.2314 15.994 61.551 16.1857C61.8742 16.3775 62.1423 16.6669 62.3553 17.054C62.5684 17.4411 62.6749 17.9595 62.6749 18.6094V24H61.4178V22.892H61.3539C61.2687 23.0696 61.1266 23.2596 60.9278 23.462C60.7289 23.6644 60.4644 23.8366 60.1341 23.9787C59.8038 24.1207 59.4008 24.1918 58.9249 24.1918ZM59.1167 23.0625C59.6139 23.0625 60.0329 22.9648 60.3738 22.7695C60.7183 22.5742 60.9775 22.3221 61.1515 22.0131C61.3291 21.7042 61.4178 21.3793 61.4178 21.0384V19.8878C61.3646 19.9517 61.2474 20.0103 61.0663 20.0636C60.8887 20.1133 60.6828 20.1577 60.4484 20.1967C60.2176 20.2322 59.9921 20.2642 59.7719 20.2926C59.5553 20.3175 59.3795 20.3388 59.2445 20.3565C58.9178 20.3991 58.6124 20.4684 58.3283 20.5643C58.0478 20.6566 57.8205 20.7969 57.6465 20.9851C57.4761 21.1697 57.3908 21.4219 57.3908 21.7415C57.3908 22.1783 57.5524 22.5085 57.8756 22.7322C58.2023 22.9524 58.616 23.0625 59.1167 23.0625ZM64.4581 21.9119H65.8004C65.8288 22.2812 65.9957 22.5618 66.3011 22.7536C66.61 22.9453 67.0113 23.0412 67.5049 23.0412C68.0092 23.0412 68.4407 22.9382 68.7993 22.7322C69.158 22.5227 69.3373 22.1854 69.3373 21.7202C69.3373 21.4467 69.2698 21.2088 69.1349 21.0064C69 20.8004 68.81 20.6406 68.5649 20.527C68.3199 20.4134 68.0305 20.3565 67.6967 20.3565H66.2904V19.2273H67.6967C68.1974 19.2273 68.5667 19.1136 68.8046 18.8864C69.0461 18.6591 69.1669 18.375 69.1669 18.0341C69.1669 17.6683 69.0372 17.3754 68.778 17.1552C68.5188 16.9315 68.1512 16.8196 67.6754 16.8196C67.196 16.8196 66.7965 16.9279 66.4769 17.1445C66.1573 17.3576 65.9886 17.6328 65.9708 17.9702H64.6498C64.664 17.5298 64.799 17.141 65.0546 16.8036C65.3103 16.4627 65.6583 16.1964 66.0987 16.0046C66.539 15.8093 67.0433 15.7116 67.6115 15.7116C68.1867 15.7116 68.6857 15.8129 69.1083 16.0153C69.5344 16.2141 69.8629 16.4858 70.0937 16.8303C70.3281 17.1712 70.4453 17.5582 70.4453 17.9915C70.4453 18.4531 70.3157 18.826 70.0564 19.1101C69.7972 19.3942 69.4723 19.5966 69.0816 19.7173V19.8026C69.3906 19.8239 69.6587 19.9233 69.886 20.1009C70.1168 20.2749 70.2961 20.5039 70.424 20.788C70.5518 21.0685 70.6157 21.3793 70.6157 21.7202C70.6157 22.2173 70.4826 22.6506 70.2162 23.0199C69.9499 23.3857 69.5841 23.6697 69.1189 23.8722C68.6537 24.071 68.1228 24.1705 67.5262 24.1705C66.9474 24.1705 66.4289 24.0763 65.9708 23.8881C65.5127 23.6964 65.1487 23.4318 64.8789 23.0945C64.6125 22.7536 64.4723 22.3594 64.4581 21.9119ZM71.5079 26.3438V22.8281H72.1898C72.3567 22.6541 72.5005 22.4659 72.6212 22.2635C72.742 22.0611 72.8467 21.8214 72.9355 21.5444C73.0278 21.2638 73.106 20.9229 73.1699 20.5217C73.2338 20.1168 73.2906 19.6286 73.3403 19.0568L73.6173 15.8182H78.8162V22.8281H80.0733V26.3438H78.8162V24H72.765V26.3438H71.5079ZM73.6173 22.8281H77.5591V16.9901H74.7892L74.5761 19.0568C74.4873 19.9126 74.3773 20.6602 74.2459 21.2994C74.1145 21.9386 73.905 22.4482 73.6173 22.8281ZM85.1723 24.1705C84.3839 24.1705 83.7039 23.9964 83.1321 23.6484C82.564 23.2969 82.1254 22.8068 81.8165 22.1783C81.5111 21.5462 81.3584 20.8111 81.3584 19.973C81.3584 19.1349 81.5111 18.3963 81.8165 17.7571C82.1254 17.1143 82.5551 16.6136 83.1055 16.255C83.6595 15.8928 84.3058 15.7116 85.0444 15.7116C85.4706 15.7116 85.8914 15.7827 86.3069 15.9247C86.7223 16.0668 87.1005 16.2976 87.4415 16.6172C87.7824 16.9332 88.054 17.3523 88.2564 17.8743C88.4589 18.3963 88.5601 19.0391 88.5601 19.8026V20.3352H82.2532V19.2486H87.2816C87.2816 18.7869 87.1893 18.375 87.0047 18.0128C86.8236 17.6506 86.5643 17.3647 86.227 17.1552C85.8932 16.9457 85.499 16.8409 85.0444 16.8409C84.5437 16.8409 84.1105 16.9652 83.7447 17.2138C83.3825 17.4588 83.1037 17.7784 82.9084 18.1726C82.7131 18.5668 82.6155 18.9893 82.6155 19.4403V20.1648C82.6155 20.7827 82.722 21.3065 82.9351 21.7362C83.1517 22.1623 83.4517 22.4872 83.8353 22.7109C84.2188 22.9311 84.6645 23.0412 85.1723 23.0412C85.5025 23.0412 85.8008 22.995 86.0672 22.9027C86.337 22.8068 86.5696 22.6648 86.765 22.4766C86.9603 22.2848 87.1112 22.0469 87.2177 21.7628L88.4322 22.1037C88.3044 22.5156 88.0895 22.8778 87.7877 23.1903C87.4858 23.4993 87.113 23.7408 86.6691 23.9148C86.2252 24.0852 85.7263 24.1705 85.1723 24.1705ZM90.4723 24V15.8182H93.8175C94.6982 15.8182 95.3978 16.017 95.9162 16.4148C96.4347 16.8125 96.6939 17.3381 96.6939 17.9915C96.6939 18.4886 96.5466 18.8739 96.2518 19.1474C95.9571 19.4173 95.5789 19.6001 95.1172 19.696C95.4191 19.7386 95.712 19.8452 95.9961 20.0156C96.2838 20.1861 96.5217 20.4205 96.7099 20.7188C96.8981 21.0135 96.9922 21.3757 96.9922 21.8054C96.9922 22.2244 96.8857 22.5991 96.6726 22.9293C96.4596 23.2596 96.1542 23.5206 95.7564 23.7124C95.3587 23.9041 94.8829 24 94.3289 24H90.4723ZM91.6655 22.8494H94.3289C94.7621 22.8494 95.1013 22.7464 95.3463 22.5405C95.5913 22.3345 95.7138 22.054 95.7138 21.6989C95.7138 21.2763 95.5913 20.9442 95.3463 20.7028C95.1013 20.4577 94.7621 20.3352 94.3289 20.3352H91.6655V22.8494ZM91.6655 19.2486H93.8175C94.1549 19.2486 94.4443 19.2024 94.6858 19.1101C94.9272 19.0142 95.1119 18.8793 95.2397 18.7053C95.3711 18.5277 95.4368 18.3182 95.4368 18.0767C95.4368 17.7322 95.293 17.4624 95.0054 17.267C94.7177 17.0682 94.3218 16.9688 93.8175 16.9688H91.6655V19.2486ZM101.303 24.1918C100.784 24.1918 100.314 24.0941 99.8913 23.8988C99.4687 23.6999 99.1331 23.4141 98.8845 23.0412C98.636 22.6648 98.5117 22.2102 98.5117 21.6776C98.5117 21.2088 98.604 20.8288 98.7887 20.5376C98.9733 20.2429 99.2201 20.0121 99.5291 19.8452C99.838 19.6783 100.179 19.554 100.552 19.4723C100.928 19.3871 101.306 19.3196 101.686 19.2699C102.184 19.206 102.587 19.158 102.896 19.1261C103.208 19.0906 103.435 19.032 103.577 18.9503C103.723 18.8686 103.796 18.7266 103.796 18.5241V18.4815C103.796 17.956 103.652 17.5476 103.364 17.2564C103.08 16.9652 102.649 16.8196 102.07 16.8196C101.47 16.8196 100.999 16.951 100.658 17.2138C100.317 17.4766 100.078 17.7571 99.9392 18.0554L98.746 17.6293C98.9591 17.1321 99.2432 16.745 99.5983 16.468C99.957 16.1875 100.348 15.9922 100.77 15.8821C101.196 15.7685 101.615 15.7116 102.027 15.7116C102.29 15.7116 102.592 15.7436 102.933 15.8075C103.277 15.8679 103.609 15.994 103.929 16.1857C104.252 16.3775 104.52 16.6669 104.733 17.054C104.946 17.4411 105.053 17.9595 105.053 18.6094V24H103.796V22.892H103.732C103.647 23.0696 103.505 23.2596 103.306 23.462C103.107 23.6644 102.842 23.8366 102.512 23.9787C102.182 24.1207 101.779 24.1918 101.303 24.1918ZM101.495 23.0625C101.992 23.0625 102.411 22.9648 102.752 22.7695C103.096 22.5742 103.355 22.3221 103.529 22.0131C103.707 21.7042 103.796 21.3793 103.796 21.0384V19.8878C103.742 19.9517 103.625 20.0103 103.444 20.0636C103.267 20.1133 103.061 20.1577 102.826 20.1967C102.595 20.2322 102.37 20.2642 102.15 20.2926C101.933 20.3175 101.757 20.3388 101.622 20.3565C101.296 20.3991 100.99 20.4684 100.706 20.5643C100.426 20.6566 100.198 20.7969 100.024 20.9851C99.854 21.1697 99.7688 21.4219 99.7688 21.7415C99.7688 22.1783 99.9304 22.5085 100.254 22.7322C100.58 22.9524 100.994 23.0625 101.495 23.0625ZM106.623 24V22.8281H106.921C107.166 22.8281 107.37 22.7802 107.534 22.6843C107.697 22.5849 107.829 22.4126 107.928 22.1676C108.031 21.919 108.109 21.5746 108.162 21.1342C108.219 20.6903 108.26 20.1257 108.285 19.4403L108.434 15.8182H113.889V24H112.631V16.9901H109.627L109.499 19.9091C109.471 20.5803 109.411 21.1715 109.318 21.6829C109.229 22.1907 109.093 22.6168 108.908 22.9613C108.727 23.3058 108.485 23.565 108.184 23.739C107.882 23.913 107.504 24 107.049 24H106.623ZM116.195 24V15.8182H117.452V19.3764H118.283L121.223 15.8182H122.843L119.54 19.7599L122.885 24H121.266L118.581 20.5483H117.452V24H116.195ZM126.659 24.1918C126.141 24.1918 125.67 24.0941 125.248 23.8988C124.825 23.6999 124.49 23.4141 124.241 23.0412C123.992 22.6648 123.868 22.2102 123.868 21.6776C123.868 21.2088 123.96 20.8288 124.145 20.5376C124.33 20.2429 124.577 20.0121 124.886 19.8452C125.194 19.6783 125.535 19.554 125.908 19.4723C126.285 19.3871 126.663 19.3196 127.043 19.2699C127.54 19.206 127.943 19.158 128.252 19.1261C128.564 19.0906 128.792 19.032 128.934 18.9503C129.079 18.8686 129.152 18.7266 129.152 18.5241V18.4815C129.152 17.956 129.008 17.5476 128.721 17.2564C128.437 16.9652 128.005 16.8196 127.426 16.8196C126.826 16.8196 126.356 16.951 126.015 17.2138C125.674 17.4766 125.434 17.7571 125.296 18.0554L124.102 17.6293C124.316 17.1321 124.6 16.745 124.955 16.468C125.313 16.1875 125.704 15.9922 126.127 15.8821C126.553 15.7685 126.972 15.7116 127.384 15.7116C127.647 15.7116 127.948 15.7436 128.289 15.8075C128.634 15.8679 128.966 15.994 129.285 16.1857C129.609 16.3775 129.877 16.6669 130.09 17.054C130.303 17.4411 130.409 17.9595 130.409 18.6094V24H129.152V22.892H129.088C129.003 23.0696 128.861 23.2596 128.662 23.462C128.463 23.6644 128.199 23.8366 127.868 23.9787C127.538 24.1207 127.135 24.1918 126.659 24.1918ZM126.851 23.0625C127.348 23.0625 127.767 22.9648 128.108 22.7695C128.453 22.5742 128.712 22.3221 128.886 22.0131C129.063 21.7042 129.152 21.3793 129.152 21.0384V19.8878C129.099 19.9517 128.982 20.0103 128.801 20.0636C128.623 20.1133 128.417 20.1577 128.183 20.1967C127.952 20.2322 127.726 20.2642 127.506 20.2926C127.29 20.3175 127.114 20.3388 126.979 20.3565C126.652 20.3991 126.347 20.4684 126.063 20.5643C125.782 20.6566 125.555 20.7969 125.381 20.9851C125.21 21.1697 125.125 21.4219 125.125 21.7415C125.125 22.1783 125.287 22.5085 125.61 22.7322C125.937 22.9524 126.35 23.0625 126.851 23.0625Z" fill="#C2C2C2"/>
<rect x="157.845" width="130.59" height="38" rx="7" fill="white" fill-opacity="0.2"/>
<path d="M182.64 10.2051C187.497 10.2051 191.435 14.1427 191.435 19C191.435 23.8573 187.497 27.7949 182.64 27.7949C177.783 27.7949 173.845 23.8573 173.845 19C173.845 14.1427 177.783 10.2051 182.64 10.2051ZM179.981 14.2959C179.529 14.2961 179.164 14.6625 179.164 15.1143V23.2949C179.164 23.7465 179.529 24.1131 179.981 24.1133C180.433 24.1133 180.799 23.7466 180.799 23.2949V20.8418C180.799 20.6159 180.983 20.4326 181.208 20.4326H183.049C184.743 20.4323 186.117 19.0591 186.118 17.3652C186.118 15.671 184.744 14.2971 183.049 14.2969H180.002C179.995 14.2967 179.988 14.2959 179.981 14.2959ZM183.049 15.9326C183.84 15.9329 184.482 16.5747 184.482 17.3652C184.481 18.1554 183.84 18.7966 183.049 18.7969H181.209C180.984 18.7969 180.8 18.6135 180.8 18.3877V16.3418C180.8 16.1159 180.984 15.9326 181.209 15.9326H183.049Z" fill="#C2C2C2"/>
<path d="M210.917 13.0909V24H209.596V14.2628H204.098V24H202.777V13.0909H210.917ZM215.818 24.1918C215.3 24.1918 214.83 24.0941 214.407 23.8988C213.984 23.6999 213.649 23.4141 213.4 23.0412C213.152 22.6648 213.027 22.2102 213.027 21.6776C213.027 21.2088 213.12 20.8288 213.304 20.5376C213.489 20.2429 213.736 20.0121 214.045 19.8452C214.354 19.6783 214.695 19.554 215.067 19.4723C215.444 19.3871 215.822 19.3196 216.202 19.2699C216.699 19.206 217.102 19.158 217.411 19.1261C217.724 19.0906 217.951 19.032 218.093 18.9503C218.239 18.8686 218.311 18.7266 218.311 18.5241V18.4815C218.311 17.956 218.168 17.5476 217.88 17.2564C217.596 16.9652 217.164 16.8196 216.586 16.8196C215.985 16.8196 215.515 16.951 215.174 17.2138C214.833 17.4766 214.593 17.7571 214.455 18.0554L213.262 17.6293C213.475 17.1321 213.759 16.745 214.114 16.468C214.473 16.1875 214.863 15.9922 215.286 15.8821C215.712 15.7685 216.131 15.7116 216.543 15.7116C216.806 15.7116 217.108 15.7436 217.448 15.8075C217.793 15.8679 218.125 15.994 218.445 16.1857C218.768 16.3775 219.036 16.6669 219.249 17.054C219.462 17.4411 219.568 17.9595 219.568 18.6094V24H218.311V22.892H218.247C218.162 23.0696 218.02 23.2596 217.821 23.462C217.622 23.6644 217.358 23.8366 217.028 23.9787C216.697 24.1207 216.294 24.1918 215.818 24.1918ZM216.01 23.0625C216.507 23.0625 216.926 22.9648 217.267 22.7695C217.612 22.5742 217.871 22.3221 218.045 22.0131C218.223 21.7042 218.311 21.3793 218.311 21.0384V19.8878C218.258 19.9517 218.141 20.0103 217.96 20.0636C217.782 20.1133 217.576 20.1577 217.342 20.1967C217.111 20.2322 216.886 20.2642 216.665 20.2926C216.449 20.3175 216.273 20.3388 216.138 20.3565C215.811 20.3991 215.506 20.4684 215.222 20.5643C214.941 20.6566 214.714 20.7969 214.54 20.9851C214.37 21.1697 214.284 21.4219 214.284 21.7415C214.284 22.1783 214.446 22.5085 214.769 22.7322C215.096 22.9524 215.51 23.0625 216.01 23.0625ZM221.863 27.0682V15.8182H223.077V17.1179H223.227C223.319 16.9759 223.447 16.7947 223.61 16.5746C223.777 16.3509 224.015 16.152 224.324 15.978C224.636 15.8004 225.059 15.7116 225.592 15.7116C226.281 15.7116 226.888 15.8839 227.413 16.2283C227.939 16.5728 228.349 17.0611 228.644 17.6932C228.939 18.3253 229.086 19.071 229.086 19.9304C229.086 20.7969 228.939 21.5479 228.644 22.1836C228.349 22.8157 227.941 23.3058 227.419 23.6538C226.897 23.9982 226.295 24.1705 225.613 24.1705C225.087 24.1705 224.667 24.0835 224.351 23.9094C224.034 23.7319 223.791 23.5312 223.621 23.3075C223.45 23.0803 223.319 22.892 223.227 22.7429H223.12V27.0682H221.863ZM223.099 19.9091C223.099 20.527 223.189 21.0721 223.37 21.5444C223.552 22.0131 223.816 22.3807 224.164 22.647C224.512 22.9098 224.938 23.0412 225.443 23.0412C225.968 23.0412 226.407 22.9027 226.758 22.6257C227.113 22.3452 227.38 21.9687 227.557 21.4964C227.738 21.0206 227.829 20.4915 227.829 19.9091C227.829 19.3338 227.74 18.8153 227.563 18.3537C227.389 17.8885 227.124 17.521 226.769 17.2511C226.417 16.9776 225.975 16.8409 225.443 16.8409C224.931 16.8409 224.501 16.9705 224.153 17.2298C223.805 17.4854 223.543 17.8441 223.365 18.3058C223.188 18.7638 223.099 19.2983 223.099 19.9091ZM231.004 24V15.8182H232.261V19.3764H233.092L236.032 15.8182H237.651L234.349 19.7599L237.694 24H236.075L233.39 20.5483H232.261V24H231.004ZM242.047 24.1705C241.309 24.1705 240.66 23.9947 240.103 23.6431C239.549 23.2915 239.116 22.7997 238.803 22.1676C238.494 21.5355 238.34 20.7969 238.34 19.9517C238.34 19.0994 238.494 18.3555 238.803 17.7198C239.116 17.0842 239.549 16.5906 240.103 16.239C240.66 15.8874 241.309 15.7116 242.047 15.7116C242.786 15.7116 243.432 15.8874 243.986 16.239C244.544 16.5906 244.977 17.0842 245.286 17.7198C245.598 18.3555 245.755 19.0994 245.755 19.9517C245.755 20.7969 245.598 21.5355 245.286 22.1676C244.977 22.7997 244.544 23.2915 243.986 23.6431C243.432 23.9947 242.786 24.1705 242.047 24.1705ZM242.047 23.0412C242.608 23.0412 243.07 22.8974 243.432 22.6097C243.794 22.3221 244.062 21.9439 244.236 21.4751C244.41 21.0064 244.497 20.4986 244.497 19.9517C244.497 19.4048 244.41 18.8952 244.236 18.4229C244.062 17.9506 243.794 17.5689 243.432 17.2777C243.07 16.9865 242.608 16.8409 242.047 16.8409C241.486 16.8409 241.024 16.9865 240.662 17.2777C240.3 17.5689 240.032 17.9506 239.858 18.4229C239.684 18.8952 239.597 19.4048 239.597 19.9517C239.597 20.4986 239.684 21.0064 239.858 21.4751C240.032 21.9439 240.3 22.3221 240.662 22.6097C241.024 22.8974 241.486 23.0412 242.047 23.0412ZM247.674 24V15.8182H251.019C251.899 15.8182 252.599 16.017 253.117 16.4148C253.636 16.8125 253.895 17.3381 253.895 17.9915C253.895 18.4886 253.748 18.8739 253.453 19.1474C253.158 19.4173 252.78 19.6001 252.318 19.696C252.62 19.7386 252.913 19.8452 253.197 20.0156C253.485 20.1861 253.723 20.4205 253.911 20.7188C254.099 21.0135 254.193 21.3757 254.193 21.8054C254.193 22.2244 254.087 22.5991 253.874 22.9293C253.661 23.2596 253.355 23.5206 252.958 23.7124C252.56 23.9041 252.084 24 251.53 24H247.674ZM248.867 22.8494H251.53C251.963 22.8494 252.302 22.7464 252.547 22.5405C252.792 22.3345 252.915 22.054 252.915 21.6989C252.915 21.2763 252.792 20.9442 252.547 20.7028C252.302 20.4577 251.963 20.3352 251.53 20.3352H248.867V22.8494ZM248.867 19.2486H251.019C251.356 19.2486 251.645 19.2024 251.887 19.1101C252.128 19.0142 252.313 18.8793 252.441 18.7053C252.572 18.5277 252.638 18.3182 252.638 18.0767C252.638 17.7322 252.494 17.4624 252.207 17.267C251.919 17.0682 251.523 16.9688 251.019 16.9688H248.867V19.2486ZM256.096 24V15.8182H257.353V19.3764H258.184L261.125 15.8182H262.744L259.442 19.7599L262.787 24H261.167L258.483 20.5483H257.353V24H256.096ZM266.561 24.1918C266.042 24.1918 265.572 24.0941 265.149 23.8988C264.727 23.6999 264.391 23.4141 264.142 23.0412C263.894 22.6648 263.769 22.2102 263.769 21.6776C263.769 21.2088 263.862 20.8288 264.046 20.5376C264.231 20.2429 264.478 20.0121 264.787 19.8452C265.096 19.6783 265.437 19.554 265.81 19.4723C266.186 19.3871 266.564 19.3196 266.944 19.2699C267.441 19.206 267.844 19.158 268.153 19.1261C268.466 19.0906 268.693 19.032 268.835 18.9503C268.981 18.8686 269.054 18.7266 269.054 18.5241V18.4815C269.054 17.956 268.91 17.5476 268.622 17.2564C268.338 16.9652 267.907 16.8196 267.328 16.8196C266.728 16.8196 266.257 16.951 265.916 17.2138C265.575 17.4766 265.336 17.7571 265.197 18.0554L264.004 17.6293C264.217 17.1321 264.501 16.745 264.856 16.468C265.215 16.1875 265.605 15.9922 266.028 15.8821C266.454 15.7685 266.873 15.7116 267.285 15.7116C267.548 15.7116 267.85 15.7436 268.191 15.8075C268.535 15.8679 268.867 15.994 269.187 16.1857C269.51 16.3775 269.778 16.6669 269.991 17.054C270.204 17.4411 270.311 17.9595 270.311 18.6094V24H269.054V22.892H268.99C268.904 23.0696 268.762 23.2596 268.564 23.462C268.365 23.6644 268.1 23.8366 267.77 23.9787C267.44 24.1207 267.037 24.1918 266.561 24.1918ZM266.752 23.0625C267.25 23.0625 267.669 22.9648 268.01 22.7695C268.354 22.5742 268.613 22.3221 268.787 22.0131C268.965 21.7042 269.054 21.3793 269.054 21.0384V19.8878C269 19.9517 268.883 20.0103 268.702 20.0636C268.524 20.1133 268.318 20.1577 268.084 20.1967C267.853 20.2322 267.628 20.2642 267.408 20.2926C267.191 20.3175 267.015 20.3388 266.88 20.3565C266.554 20.3991 266.248 20.4684 265.964 20.5643C265.684 20.6566 265.456 20.7969 265.282 20.9851C265.112 21.1697 265.027 21.4219 265.027 21.7415C265.027 22.1783 265.188 22.5085 265.511 22.7322C265.838 22.9524 266.252 23.0625 266.752 23.0625Z" fill="#C2C2C2"/>
<rect y="48" width="100.326" height="38" rx="7" fill="white" fill-opacity="0.2"/>
<circle cx="25.8904" cy="74.0794" r="1.7161" fill="#C2C2C2"/>
<path d="M26.2987 58.21C29.9655 58.3028 33.3235 59.6393 35.9665 61.8132C36.3997 62.1696 36.4412 62.8077 36.0875 63.2431C35.695 63.7263 34.9758 63.769 34.4908 63.3787C32.1373 61.4845 29.1458 60.3506 25.8896 60.3506C22.8631 60.3507 20.0649 61.3295 17.7955 62.9884C17.2945 63.3547 16.5806 63.2801 16.2105 62.7819C15.8756 62.331 15.9457 61.6943 16.3955 61.358C19.0434 59.3783 22.3292 58.2052 25.8896 58.2051L26.2987 58.21Z" fill="#C2C2C2"/>
<path d="M26.2219 67.6514C27.7102 67.7268 29.0647 68.3082 30.1178 69.2267C30.4948 69.5555 30.4999 70.1219 30.1843 70.5101C29.761 71.0309 28.9542 71.0024 28.4116 70.6073C27.7041 70.0922 26.8331 69.7881 25.8909 69.7881C25.0224 69.7881 24.2141 70.0461 23.5386 70.4896C22.9809 70.8558 22.1808 70.8485 21.7806 70.3147C21.4782 69.9115 21.5079 69.3409 21.9031 69.0283C22.9995 68.1609 24.3844 67.6426 25.8909 67.6426L26.2219 67.6514Z" fill="#C2C2C2"/>
<path d="M26.4636 62.9404C28.9501 63.0664 31.2207 64.0074 33.0161 65.5006C33.4356 65.8495 33.4659 66.4695 33.122 66.893C32.721 67.3866 31.9808 67.4137 31.4827 67.0185C29.9461 65.7996 28.0032 65.0713 25.8894 65.0713C23.9187 65.0714 22.0966 65.7048 20.6138 66.7785C20.1 67.1505 19.3642 67.093 18.9836 66.5855C18.6547 66.1469 18.7107 65.5253 19.1472 65.1936C21.0199 63.7705 23.3559 62.9259 25.8894 62.9258L26.4636 62.9404Z" fill="#C2C2C2"/>
<path d="M49.6287 72L46.6458 61.0909H47.9881L50.2679 69.9759H50.3745L52.6969 61.0909H54.1884L56.5108 69.9759H56.6174L58.8972 61.0909H60.2395L57.2566 72H55.8929L53.4853 63.3068H53.4L50.9924 72H49.6287ZM61.715 72V63.8182H62.9721V72H61.715ZM62.3542 62.4545C62.1092 62.4545 61.8979 62.3711 61.7203 62.2042C61.5463 62.0373 61.4593 61.8366 61.4593 61.6023C61.4593 61.3679 61.5463 61.1673 61.7203 61.0004C61.8979 60.8335 62.1092 60.75 62.3542 60.75C62.5993 60.75 62.8088 60.8335 62.9828 61.0004C63.1603 61.1673 63.2491 61.3679 63.2491 61.6023C63.2491 61.8366 63.1603 62.0373 62.9828 62.2042C62.8088 62.3711 62.5993 62.4545 62.3542 62.4545ZM69.9621 66.7372V67.9091H65.1894V66.7372H69.9621ZM72.3445 72V61.0909H78.8857V62.2628H73.6655V65.9489H78.3956V67.1207H73.6655V72H72.3445ZM80.9777 72V63.8182H82.2348V72H80.9777ZM81.6169 62.4545C81.3719 62.4545 81.1606 62.3711 80.983 62.2042C80.809 62.0373 80.722 61.8366 80.722 61.6023C80.722 61.3679 80.809 61.1673 80.983 61.0004C81.1606 60.8335 81.3719 60.75 81.6169 60.75C81.8619 60.75 82.0715 60.8335 82.2455 61.0004C82.423 61.1673 82.5118 61.3679 82.5118 61.6023C82.5118 61.8366 82.423 62.0373 82.2455 62.2042C82.0715 62.3711 81.8619 62.4545 81.6169 62.4545Z" fill="#C2C2C2"/>
<rect x="110.326" y="48" width="85.0748" height="38" rx="7" fill="white" fill-opacity="0.2"/>
<rect x="133.633" y="68.3223" width="4.63731" height="1.35308" rx="0.676538" transform="rotate(-45 133.633 68.3223)" fill="#C2C2C2"/>
<rect x="126.326" y="58.2051" width="2.25513" height="17.59" rx="1.12756" fill="#C2C2C2"/>
<path d="M134.904 62.5531C136.141 62.6998 136.181 64.2341 135.3 65.1148L133.706 66.7094C132.825 67.5901 131.291 67.5497 131.144 66.3129C131.026 65.319 131.349 64.2828 132.111 63.5202C132.874 62.7575 133.91 62.4352 134.904 62.5531Z" fill="#C2C2C2"/>
<rect x="125.875" y="59.3477" width="2.25513" height="6.31436" rx="1.12756" transform="rotate(-45 125.875 59.3477)" fill="#C2C2C2"/>
<path d="M147.784 74.642V70.8281H148.488C148.729 70.608 148.956 70.2972 149.169 69.896C149.386 69.4911 149.569 68.9513 149.718 68.2766C149.871 67.5984 149.972 66.7372 150.022 65.6932L150.256 61.0909H156.733V70.8281H157.99V74.6207H156.733V72H149.042V74.642H147.784ZM150.064 70.8281H155.476V62.2628H151.449L151.279 65.6932C151.236 66.4886 151.162 67.2095 151.055 67.8558C150.948 68.4986 150.812 69.0685 150.645 69.5657C150.478 70.0593 150.284 70.4801 150.064 70.8281ZM160.626 75.0682C160.413 75.0682 160.223 75.0504 160.056 75.0149C159.889 74.983 159.773 74.951 159.71 74.919L160.029 73.8111C160.335 73.8892 160.604 73.9176 160.839 73.8963C161.073 73.875 161.281 73.7702 161.462 73.582C161.647 73.3974 161.815 73.0973 161.968 72.6818L162.202 72.0426L159.177 63.8182H160.541L162.799 70.3381H162.884L165.143 63.8182H166.506L163.033 73.1932C162.877 73.6158 162.684 73.9656 162.453 74.2425C162.222 74.5231 161.954 74.7308 161.648 74.8658C161.347 75.0007 161.006 75.0682 160.626 75.0682ZM168.166 63.8182H169.423V70.8281H172.512V63.8182H173.769V70.8281H176.859V63.8182H178.116V72H168.166V63.8182Z" fill="#C2C2C2"/>
</svg>
