<svg width="361" height="86" viewBox="0 0 361 86" fill="none" xmlns="http://www.w3.org/2000/svg">
<rect width="114.62" height="38" rx="7" fill="white" fill-opacity="0.2"/>
<path d="M31.7861 10.2051C33.9033 10.2052 35.6191 11.9218 35.6191 14.0391C35.619 16.1562 33.9032 17.8719 31.7861 17.8721H19.834C17.7168 17.8721 16.0001 16.1562 16 14.0391C16 11.9218 17.7167 10.2051 19.834 10.2051H31.7861ZM19.8027 12.9111C19.1801 12.9113 18.6758 13.4164 18.6758 14.0391C18.6759 14.6616 19.1802 15.1659 19.8027 15.166H31.8164C32.4391 15.166 32.9442 14.6617 32.9443 14.0391C32.9443 13.4163 32.4391 12.9111 31.8164 12.9111H19.8027Z" fill="#C2C2C2"/>
<path d="M27.8088 19.2266C28.1825 19.2266 28.4854 19.5295 28.4854 19.9031L28.4854 25.1206C28.4854 26.5982 27.2875 27.7961 25.8099 27.796C24.3324 27.796 23.1345 26.5982 23.1345 25.1206L23.1345 19.9031C23.1345 19.5295 23.4374 19.2266 23.8111 19.2266L27.8088 19.2266Z" fill="#C2C2C2"/>
<path d="M35.6196 24.8967C35.6195 26.4973 34.3218 27.7951 32.7212 27.7951C31.1206 27.7951 29.8229 26.4972 29.8228 24.8967V19.9023C29.8228 19.5287 30.1257 19.2258 30.4993 19.2258H32.3765C32.9291 19.2258 33.4563 19.0897 33.938 18.8428C34.5416 18.5336 35.6196 18.9171 35.6196 19.5953V24.8967Z" fill="#C2C2C2"/>
<path d="M16 19.5953C16 18.9171 17.078 18.5335 17.6815 18.8429C18.1633 19.0897 18.6905 19.2258 19.2432 19.2258H21.1203C21.494 19.2258 21.7969 19.5287 21.7969 19.9023V24.8928C21.7967 26.4934 20.4991 27.7912 18.8984 27.7912C17.2978 27.7912 16.0001 26.4934 16 24.8928V19.5953Z" fill="#C2C2C2"/>
<path d="M53.354 24L49.604 18.9929H48.2617V24H46.9407V13.0909H48.2617V17.821H48.837L53.2049 13.0909H54.7816L50.371 17.8849L54.9307 24H53.354ZM56.6765 27.0682C56.4635 27.0682 56.2735 27.0504 56.1066 27.0149C55.9397 26.983 55.8243 26.951 55.7603 26.919L56.0799 25.8111C56.3853 25.8892 56.6552 25.9176 56.8896 25.8963C57.124 25.875 57.3317 25.7702 57.5128 25.582C57.6975 25.3974 57.8662 25.0973 58.0189 24.6818L58.2532 24.0426L55.2277 15.8182H56.5913L58.8498 22.3381H58.9351L61.1936 15.8182H62.5572L59.0842 25.1932C58.928 25.6158 58.7344 25.9656 58.5036 26.2425C58.2728 26.5231 58.0047 26.7308 57.6993 26.8658C57.3974 27.0007 57.0565 27.0682 56.6765 27.0682ZM64.2165 24V15.8182H70.6511V24H69.394V16.9901H65.4736V24H64.2165ZM76.3774 24.1705C75.589 24.1705 74.909 23.9964 74.3372 23.6484C73.769 23.2969 73.3305 22.8068 73.0215 22.1783C72.7161 21.5462 72.5634 20.8111 72.5634 19.973C72.5634 19.1349 72.7161 18.3963 73.0215 17.7571C73.3305 17.1143 73.7602 16.6136 74.3106 16.255C74.8646 15.8928 75.5109 15.7116 76.2495 15.7116C76.6756 15.7116 77.0965 15.7827 77.5119 15.9247C77.9274 16.0668 78.3056 16.2976 78.6465 16.6172C78.9874 16.9332 79.2591 17.3523 79.4615 17.8743C79.6639 18.3963 79.7651 19.0391 79.7651 19.8026V20.3352H73.4583V19.2486H78.4867C78.4867 18.7869 78.3944 18.375 78.2097 18.0128C78.0286 17.6506 77.7694 17.3647 77.432 17.1552C77.0982 16.9457 76.7041 16.8409 76.2495 16.8409C75.7488 16.8409 75.3156 16.9652 74.9498 17.2138C74.5876 17.4588 74.3088 17.7784 74.1135 18.1726C73.9182 18.5668 73.8205 18.9893 73.8205 19.4403V20.1648C73.8205 20.7827 73.9271 21.3065 74.1401 21.7362C74.3568 22.1623 74.6568 22.4872 75.0403 22.7109C75.4239 22.9311 75.8695 23.0412 76.3774 23.0412C76.7076 23.0412 77.0059 22.995 77.2722 22.9027C77.5421 22.8068 77.7747 22.6648 77.97 22.4766C78.1653 22.2848 78.3163 22.0469 78.4228 21.7628L79.6373 22.1037C79.5095 22.5156 79.2946 22.8778 78.9928 23.1903C78.6909 23.4993 78.318 23.7408 77.8742 23.9148C77.4303 24.0852 76.9313 24.1705 76.3774 24.1705ZM80.953 24V22.8281H81.2513C81.4963 22.8281 81.7005 22.7802 81.8639 22.6843C82.0272 22.5849 82.1586 22.4126 82.258 22.1676C82.361 21.919 82.4391 21.5746 82.4924 21.1342C82.5492 20.6903 82.5901 20.1257 82.6149 19.4403L82.7641 15.8182H88.2186V24H86.9615V16.9901H83.9573L83.8294 19.9091C83.801 20.5803 83.7406 21.1715 83.6483 21.6829C83.5595 22.1907 83.4228 22.6168 83.2381 22.9613C83.057 23.3058 82.8156 23.565 82.5137 23.739C82.2119 23.913 81.8337 24 81.3791 24H80.953ZM91.6117 18.7798H93.9555C94.9143 18.7798 95.6476 19.0231 96.1554 19.5096C96.6632 19.9961 96.9171 20.6122 96.9171 21.358C96.9171 21.848 96.8035 22.2937 96.5762 22.695C96.3489 23.0927 96.0151 23.4105 95.5748 23.6484C95.1345 23.8828 94.5947 24 93.9555 24H90.5251V15.8182H91.7822V22.8281H93.9555C94.4526 22.8281 94.861 22.6967 95.1806 22.4339C95.5002 22.1712 95.66 21.8338 95.66 21.4219C95.66 20.9886 95.5002 20.6353 95.1806 20.3619C94.861 20.0884 94.4526 19.9517 93.9555 19.9517H91.6117V18.7798Z" fill="#C2C2C2"/>
<rect x="124.62" width="147.845" height="38" rx="7" fill="white" fill-opacity="0.2"/>
<path d="M144.078 10.2051C145.323 10.2051 146.332 11.2146 146.333 12.46V25.54C146.332 26.7855 145.323 27.7949 144.078 27.7949H142.875C141.629 27.7947 140.62 26.7853 140.62 25.54V12.46C140.62 11.2148 141.629 10.2053 142.875 10.2051H144.078ZM142.5 18.3232C142.126 18.3232 141.823 18.6264 141.823 19C141.823 19.3736 142.126 19.6768 142.5 19.6768H144.303C144.677 19.6767 144.98 19.3736 144.98 19C144.98 18.6264 144.677 18.3233 144.303 18.3232H142.5Z" fill="#C2C2C2"/>
<path d="M151.144 10.2051C152.389 10.2051 153.398 11.2146 153.398 12.46V25.54C153.398 26.7854 152.389 27.7949 151.144 27.7949H149.94C148.695 27.7948 147.686 26.7854 147.686 25.54V12.46C147.686 11.2147 148.695 10.2052 149.94 10.2051H151.144ZM149.564 18.3232C149.191 18.3234 148.889 18.6265 148.889 19C148.889 19.3735 149.191 19.6766 149.564 19.6768H151.369C151.743 19.6766 152.046 19.3736 152.046 19C152.046 18.6265 151.743 18.3234 151.369 18.3232H149.564Z" fill="#C2C2C2"/>
<path d="M158.209 10.2051C159.455 10.2051 160.465 11.2146 160.465 12.46V25.54C160.465 26.7855 159.455 27.7949 158.209 27.7949H157.007C155.762 27.7949 154.752 26.7855 154.751 25.54V12.46C154.752 11.2146 155.762 10.2051 157.007 10.2051H158.209ZM156.631 18.3232C156.258 18.3232 155.955 18.6264 155.955 19C155.955 19.3736 156.258 19.6768 156.631 19.6768H158.435C158.809 19.6768 159.112 19.3736 159.112 19C159.112 18.6264 158.809 18.3232 158.435 18.3232H156.631Z" fill="#C2C2C2"/>
<path d="M171.786 24V13.0909H175.472C176.328 13.0909 177.027 13.2454 177.571 13.5543C178.118 13.8597 178.522 14.2734 178.785 14.7955C179.048 15.3175 179.179 15.8999 179.179 16.5426C179.179 17.1854 179.048 17.7695 178.785 18.2951C178.526 18.8207 178.125 19.2397 177.581 19.5522C177.038 19.8612 176.342 20.0156 175.493 20.0156H172.851V18.8438H175.451C176.037 18.8438 176.507 18.7425 176.862 18.5401C177.217 18.3377 177.475 18.0643 177.635 17.7198C177.798 17.3718 177.88 16.9794 177.88 16.5426C177.88 16.1058 177.798 15.7152 177.635 15.3707C177.475 15.0263 177.216 14.7564 176.857 14.5611C176.498 14.3622 176.022 14.2628 175.429 14.2628H173.107V24H171.786ZM183.545 24.1918C183.026 24.1918 182.556 24.0941 182.133 23.8988C181.71 23.6999 181.375 23.4141 181.126 23.0412C180.878 22.6648 180.753 22.2102 180.753 21.6776C180.753 21.2088 180.846 20.8288 181.03 20.5376C181.215 20.2429 181.462 20.0121 181.771 19.8452C182.08 19.6783 182.421 19.554 182.794 19.4723C183.17 19.3871 183.548 19.3196 183.928 19.2699C184.425 19.206 184.828 19.158 185.137 19.1261C185.45 19.0906 185.677 19.032 185.819 18.9503C185.965 18.8686 186.037 18.7266 186.037 18.5241V18.4815C186.037 17.956 185.894 17.5476 185.606 17.2564C185.322 16.9652 184.89 16.8196 184.312 16.8196C183.711 16.8196 183.241 16.951 182.9 17.2138C182.559 17.4766 182.319 17.7571 182.181 18.0554L180.988 17.6293C181.201 17.1321 181.485 16.745 181.84 16.468C182.199 16.1875 182.589 15.9922 183.012 15.8821C183.438 15.7685 183.857 15.7116 184.269 15.7116C184.532 15.7116 184.834 15.7436 185.175 15.8075C185.519 15.8679 185.851 15.994 186.171 16.1857C186.494 16.3775 186.762 16.6669 186.975 17.054C187.188 17.4411 187.295 17.9595 187.295 18.6094V24H186.037V22.892H185.974C185.888 23.0696 185.746 23.2596 185.547 23.462C185.349 23.6644 185.084 23.8366 184.754 23.9787C184.423 24.1207 184.02 24.1918 183.545 24.1918ZM183.736 23.0625C184.233 23.0625 184.653 22.9648 184.993 22.7695C185.338 22.5742 185.597 22.3221 185.771 22.0131C185.949 21.7042 186.037 21.3793 186.037 21.0384V19.8878C185.984 19.9517 185.867 20.0103 185.686 20.0636C185.508 20.1133 185.302 20.1577 185.068 20.1967C184.837 20.2322 184.612 20.2642 184.392 20.2926C184.175 20.3175 183.999 20.3388 183.864 20.3565C183.537 20.3991 183.232 20.4684 182.948 20.5643C182.667 20.6566 182.44 20.7969 182.266 20.9851C182.096 21.1697 182.01 21.4219 182.01 21.7415C182.01 22.1783 182.172 22.5085 182.495 22.7322C182.822 22.9524 183.236 23.0625 183.736 23.0625ZM189.078 21.9119H190.42C190.448 22.2812 190.615 22.5618 190.921 22.7536C191.23 22.9453 191.631 23.0412 192.125 23.0412C192.629 23.0412 193.06 22.9382 193.419 22.7322C193.778 22.5227 193.957 22.1854 193.957 21.7202C193.957 21.4467 193.889 21.2088 193.755 21.0064C193.62 20.8004 193.43 20.6406 193.185 20.527C192.94 20.4134 192.65 20.3565 192.316 20.3565H190.91V19.2273H192.316C192.817 19.2273 193.186 19.1136 193.424 18.8864C193.666 18.6591 193.786 18.375 193.786 18.0341C193.786 17.6683 193.657 17.3754 193.398 17.1552C193.138 16.9315 192.771 16.8196 192.295 16.8196C191.816 16.8196 191.416 16.9279 191.097 17.1445C190.777 17.3576 190.608 17.6328 190.59 17.9702H189.269C189.284 17.5298 189.419 17.141 189.674 16.8036C189.93 16.4627 190.278 16.1964 190.718 16.0046C191.159 15.8093 191.663 15.7116 192.231 15.7116C192.806 15.7116 193.305 15.8129 193.728 16.0153C194.154 16.2141 194.483 16.4858 194.713 16.8303C194.948 17.1712 195.065 17.5582 195.065 17.9915C195.065 18.4531 194.935 18.826 194.676 19.1101C194.417 19.3942 194.092 19.5966 193.701 19.7173V19.8026C194.01 19.8239 194.278 19.9233 194.506 20.1009C194.736 20.2749 194.916 20.5039 195.044 20.788C195.171 21.0685 195.235 21.3793 195.235 21.7202C195.235 22.2173 195.102 22.6506 194.836 23.0199C194.57 23.3857 194.204 23.6697 193.739 23.8722C193.273 24.071 192.742 24.1705 192.146 24.1705C191.567 24.1705 191.049 24.0763 190.59 23.8881C190.132 23.6964 189.768 23.4318 189.498 23.0945C189.232 22.7536 189.092 22.3594 189.078 21.9119ZM196.128 26.3438V22.8281H196.809C196.976 22.6541 197.12 22.4659 197.241 22.2635C197.362 22.0611 197.466 21.8214 197.555 21.5444C197.647 21.2638 197.726 20.9229 197.79 20.5217C197.853 20.1168 197.91 19.6286 197.96 19.0568L198.237 15.8182H203.436V22.8281H204.693V26.3438H203.436V24H197.385V26.3438H196.128ZM198.237 22.8281H202.179V16.9901H199.409L199.196 19.0568C199.107 19.9126 198.997 20.6602 198.866 21.2994C198.734 21.9386 198.525 22.4482 198.237 22.8281ZM209.792 24.1705C209.004 24.1705 208.324 23.9964 207.752 23.6484C207.184 23.2969 206.745 22.8068 206.436 22.1783C206.131 21.5462 205.978 20.8111 205.978 19.973C205.978 19.1349 206.131 18.3963 206.436 17.7571C206.745 17.1143 207.175 16.6136 207.725 16.255C208.279 15.8928 208.925 15.7116 209.664 15.7116C210.09 15.7116 210.511 15.7827 210.926 15.9247C211.342 16.0668 211.72 16.2976 212.061 16.6172C212.402 16.9332 212.674 17.3523 212.876 17.8743C213.078 18.3963 213.18 19.0391 213.18 19.8026V20.3352H206.873V19.2486H211.901C211.901 18.7869 211.809 18.375 211.624 18.0128C211.443 17.6506 211.184 17.3647 210.847 17.1552C210.513 16.9457 210.119 16.8409 209.664 16.8409C209.163 16.8409 208.73 16.9652 208.364 17.2138C208.002 17.4588 207.723 17.7784 207.528 18.1726C207.333 18.5668 207.235 18.9893 207.235 19.4403V20.1648C207.235 20.7827 207.342 21.3065 207.555 21.7362C207.771 22.1623 208.071 22.4872 208.455 22.7109C208.838 22.9311 209.284 23.0412 209.792 23.0412C210.122 23.0412 210.42 22.995 210.687 22.9027C210.957 22.8068 211.189 22.6648 211.385 22.4766C211.58 22.2848 211.731 22.0469 211.837 21.7628L213.052 22.1037C212.924 22.5156 212.709 22.8778 212.407 23.1903C212.105 23.4993 211.733 23.7408 211.289 23.9148C210.845 24.0852 210.346 24.1705 209.792 24.1705ZM215.092 24V15.8182H218.437C219.318 15.8182 220.017 16.017 220.536 16.4148C221.054 16.8125 221.314 17.3381 221.314 17.9915C221.314 18.4886 221.166 18.8739 220.871 19.1474C220.577 19.4173 220.199 19.6001 219.737 19.696C220.039 19.7386 220.332 19.8452 220.616 20.0156C220.903 20.1861 221.141 20.4205 221.33 20.7188C221.518 21.0135 221.612 21.3757 221.612 21.8054C221.612 22.2244 221.505 22.5991 221.292 22.9293C221.079 23.2596 220.774 23.5206 220.376 23.7124C219.978 23.9041 219.502 24 218.949 24H215.092ZM216.285 22.8494H218.949C219.382 22.8494 219.721 22.7464 219.966 22.5405C220.211 22.3345 220.333 22.054 220.333 21.6989C220.333 21.2763 220.211 20.9442 219.966 20.7028C219.721 20.4577 219.382 20.3352 218.949 20.3352H216.285V22.8494ZM216.285 19.2486H218.437C218.775 19.2486 219.064 19.2024 219.305 19.1101C219.547 19.0142 219.732 18.8793 219.859 18.7053C219.991 18.5277 220.056 18.3182 220.056 18.0767C220.056 17.7322 219.913 17.4624 219.625 17.267C219.337 17.0682 218.941 16.9688 218.437 16.9688H216.285V19.2486ZM225.922 24.1918C225.404 24.1918 224.934 24.0941 224.511 23.8988C224.088 23.6999 223.753 23.4141 223.504 23.0412C223.256 22.6648 223.131 22.2102 223.131 21.6776C223.131 21.2088 223.224 20.8288 223.408 20.5376C223.593 20.2429 223.84 20.0121 224.149 19.8452C224.458 19.6783 224.799 19.554 225.171 19.4723C225.548 19.3871 225.926 19.3196 226.306 19.2699C226.803 19.206 227.206 19.158 227.515 19.1261C227.828 19.0906 228.055 19.032 228.197 18.9503C228.343 18.8686 228.415 18.7266 228.415 18.5241V18.4815C228.415 17.956 228.272 17.5476 227.984 17.2564C227.7 16.9652 227.268 16.8196 226.69 16.8196C226.089 16.8196 225.619 16.951 225.278 17.2138C224.937 17.4766 224.697 17.7571 224.559 18.0554L223.366 17.6293C223.579 17.1321 223.863 16.745 224.218 16.468C224.577 16.1875 224.967 15.9922 225.39 15.8821C225.816 15.7685 226.235 15.7116 226.647 15.7116C226.91 15.7116 227.212 15.7436 227.552 15.8075C227.897 15.8679 228.229 15.994 228.549 16.1857C228.872 16.3775 229.14 16.6669 229.353 17.054C229.566 17.4411 229.672 17.9595 229.672 18.6094V24H228.415V22.892H228.351C228.266 23.0696 228.124 23.2596 227.925 23.462C227.726 23.6644 227.462 23.8366 227.132 23.9787C226.801 24.1207 226.398 24.1918 225.922 24.1918ZM226.114 23.0625C226.611 23.0625 227.03 22.9648 227.371 22.7695C227.716 22.5742 227.975 22.3221 228.149 22.0131C228.327 21.7042 228.415 21.3793 228.415 21.0384V19.8878C228.362 19.9517 228.245 20.0103 228.064 20.0636C227.886 20.1133 227.68 20.1577 227.446 20.1967C227.215 20.2322 226.99 20.2642 226.769 20.2926C226.553 20.3175 226.377 20.3388 226.242 20.3565C225.915 20.3991 225.61 20.4684 225.326 20.5643C225.045 20.6566 224.818 20.7969 224.644 20.9851C224.474 21.1697 224.388 21.4219 224.388 21.7415C224.388 22.1783 224.55 22.5085 224.873 22.7322C225.2 22.9524 225.614 23.0625 226.114 23.0625ZM231.243 24V22.8281H231.541C231.786 22.8281 231.99 22.7802 232.153 22.6843C232.317 22.5849 232.448 22.4126 232.548 22.1676C232.651 21.919 232.729 21.5746 232.782 21.1342C232.839 20.6903 232.88 20.1257 232.904 19.4403L233.054 15.8182H238.508V24H237.251V16.9901H234.247L234.119 19.9091C234.091 20.5803 234.03 21.1715 233.938 21.6829C233.849 22.1907 233.712 22.6168 233.528 22.9613C233.347 23.3058 233.105 23.565 232.803 23.739C232.501 23.913 232.123 24 231.669 24H231.243ZM240.815 24V15.8182H242.072V19.3764H242.903L245.843 15.8182H247.462L244.16 19.7599L247.505 24H245.886L243.201 20.5483H242.072V24H240.815ZM251.279 24.1918C250.76 24.1918 250.29 24.0941 249.867 23.8988C249.445 23.6999 249.109 23.4141 248.861 23.0412C248.612 22.6648 248.488 22.2102 248.488 21.6776C248.488 21.2088 248.58 20.8288 248.765 20.5376C248.949 20.2429 249.196 20.0121 249.505 19.8452C249.814 19.6783 250.155 19.554 250.528 19.4723C250.904 19.3871 251.282 19.3196 251.662 19.2699C252.16 19.206 252.563 19.158 252.872 19.1261C253.184 19.0906 253.411 19.032 253.553 18.9503C253.699 18.8686 253.772 18.7266 253.772 18.5241V18.4815C253.772 17.956 253.628 17.5476 253.34 17.2564C253.056 16.9652 252.625 16.8196 252.046 16.8196C251.446 16.8196 250.975 16.951 250.634 17.2138C250.294 17.4766 250.054 17.7571 249.915 18.0554L248.722 17.6293C248.935 17.1321 249.219 16.745 249.574 16.468C249.933 16.1875 250.324 15.9922 250.746 15.8821C251.172 15.7685 251.591 15.7116 252.003 15.7116C252.266 15.7116 252.568 15.7436 252.909 15.8075C253.253 15.8679 253.585 15.994 253.905 16.1857C254.228 16.3775 254.496 16.6669 254.709 17.054C254.922 17.4411 255.029 17.9595 255.029 18.6094V24H253.772V22.892H253.708C253.623 23.0696 253.481 23.2596 253.282 23.462C253.083 23.6644 252.818 23.8366 252.488 23.9787C252.158 24.1207 251.755 24.1918 251.279 24.1918ZM251.471 23.0625C251.968 23.0625 252.387 22.9648 252.728 22.7695C253.072 22.5742 253.331 22.3221 253.506 22.0131C253.683 21.7042 253.772 21.3793 253.772 21.0384V19.8878C253.719 19.9517 253.601 20.0103 253.42 20.0636C253.243 20.1133 253.037 20.1577 252.802 20.1967C252.572 20.2322 252.346 20.2642 252.126 20.2926C251.909 20.3175 251.733 20.3388 251.599 20.3565C251.272 20.3991 250.966 20.4684 250.682 20.5643C250.402 20.6566 250.175 20.7969 250.001 20.9851C249.83 21.1697 249.745 21.4219 249.745 21.7415C249.745 22.1783 249.906 22.5085 250.23 22.7322C250.556 22.9524 250.97 23.0625 251.471 23.0625Z" fill="#C2C2C2"/>
<rect y="48" width="130.59" height="38" rx="7" fill="white" fill-opacity="0.2"/>
<path d="M24.7949 58.2051C29.6522 58.2051 33.5898 62.1427 33.5898 67C33.5898 71.8573 29.6523 75.7949 24.7949 75.7949C19.9376 75.7949 16 71.8573 16 67C16 62.1427 19.9376 58.2051 24.7949 58.2051ZM22.1357 62.2959C21.684 62.2961 21.3184 62.6625 21.3184 63.1143V71.2949C21.3185 71.7465 21.6841 72.1131 22.1357 72.1133C22.5875 72.1133 22.9539 71.7466 22.9541 71.2949V68.8418C22.9541 68.6159 23.1374 68.4326 23.3633 68.4326H25.2041C26.898 68.4323 28.272 67.0591 28.2725 65.3652C28.2725 63.671 26.8983 62.2971 25.2041 62.2969H22.1572C22.1502 62.2967 22.1428 62.2959 22.1357 62.2959ZM25.2041 63.9326C25.9946 63.9329 26.6367 64.5747 26.6367 65.3652C26.6362 66.1554 25.9943 66.7966 25.2041 66.7969H23.3643C23.1384 66.7969 22.9552 66.6135 22.9551 66.3877V64.3418C22.9551 64.1159 23.1383 63.9326 23.3643 63.9326H25.2041Z" fill="#C2C2C2"/>
<path d="M53.0714 61.0909V72H51.7504V62.2628H46.2532V72H44.9322V61.0909H53.0714ZM57.9733 72.1918C57.4548 72.1918 56.9843 72.0941 56.5617 71.8988C56.1391 71.6999 55.8035 71.4141 55.555 71.0412C55.3064 70.6648 55.1821 70.2102 55.1821 69.6776C55.1821 69.2088 55.2744 68.8288 55.4591 68.5376C55.6437 68.2429 55.8905 68.0121 56.1995 67.8452C56.5084 67.6783 56.8493 67.554 57.2222 67.4723C57.5986 67.3871 57.9768 67.3196 58.3568 67.2699C58.854 67.206 59.257 67.158 59.566 67.1261C59.8785 67.0906 60.1057 67.032 60.2478 66.9503C60.3934 66.8686 60.4662 66.7266 60.4662 66.5241V66.4815C60.4662 65.956 60.3224 65.5476 60.0347 65.2564C59.7506 64.9652 59.3192 64.8196 58.7403 64.8196C58.1402 64.8196 57.6697 64.951 57.3287 65.2138C56.9878 65.4766 56.7481 65.7571 56.6096 66.0554L55.4165 65.6293C55.6295 65.1321 55.9136 64.745 56.2687 64.468C56.6274 64.1875 57.018 63.9922 57.4406 63.8821C57.8667 63.7685 58.2858 63.7116 58.6977 63.7116C58.9605 63.7116 59.2623 63.7436 59.6032 63.8075C59.9477 63.8679 60.2797 63.994 60.5993 64.1857C60.9225 64.3775 61.1906 64.6669 61.4037 65.054C61.6167 65.4411 61.7233 65.9595 61.7233 66.6094V72H60.4662V70.892H60.4023C60.317 71.0696 60.175 71.2596 59.9761 71.462C59.7773 71.6644 59.5127 71.8366 59.1824 71.9787C58.8522 72.1207 58.4491 72.1918 57.9733 72.1918ZM58.165 71.0625C58.6622 71.0625 59.0812 70.9648 59.4221 70.7695C59.7666 70.5742 60.0258 70.3221 60.1998 70.0131C60.3774 69.7042 60.4662 69.3793 60.4662 69.0384V67.8878C60.4129 67.9517 60.2957 68.0103 60.1146 68.0636C59.9371 68.1133 59.7311 68.1577 59.4967 68.1967C59.2659 68.2322 59.0404 68.2642 58.8202 68.2926C58.6036 68.3175 58.4278 68.3388 58.2929 68.3565C57.9662 68.3991 57.6608 68.4684 57.3767 68.5643C57.0961 68.6566 56.8689 68.7969 56.6949 68.9851C56.5244 69.1697 56.4392 69.4219 56.4392 69.7415C56.4392 70.1783 56.6008 70.5085 56.9239 70.7322C57.2506 70.9524 57.6643 71.0625 58.165 71.0625ZM64.0178 75.0682V63.8182H65.2322V65.1179H65.3814C65.4737 64.9759 65.6016 64.7947 65.7649 64.5746C65.9318 64.3509 66.1697 64.152 66.4787 63.978C66.7912 63.8004 67.2138 63.7116 67.7464 63.7116C68.4354 63.7116 69.0426 63.8839 69.5682 64.2283C70.0938 64.5728 70.5039 65.0611 70.7987 65.6932C71.0934 66.3253 71.2408 67.071 71.2408 67.9304C71.2408 68.7969 71.0934 69.5479 70.7987 70.1836C70.5039 70.8157 70.0955 71.3058 69.5735 71.6538C69.0515 71.9982 68.4496 72.1705 67.7678 72.1705C67.2422 72.1705 66.8214 72.0835 66.5053 71.9094C66.1893 71.7319 65.946 71.5312 65.7756 71.3075C65.6051 71.0803 65.4737 70.892 65.3814 70.7429H65.2749V75.0682H64.0178ZM65.2536 67.9091C65.2536 68.527 65.3441 69.0721 65.5252 69.5444C65.7063 70.0131 65.9709 70.3807 66.3189 70.647C66.6669 70.9098 67.093 71.0412 67.5973 71.0412C68.1229 71.0412 68.5614 70.9027 68.913 70.6257C69.2681 70.3452 69.5344 69.9687 69.712 69.4964C69.8931 69.0206 69.9837 68.4915 69.9837 67.9091C69.9837 67.3338 69.8949 66.8153 69.7173 66.3537C69.5433 65.8885 69.2788 65.521 68.9237 65.2511C68.5721 64.9776 68.13 64.8409 67.5973 64.8409C67.0859 64.8409 66.6563 64.9705 66.3082 65.2298C65.9602 65.4854 65.6974 65.8441 65.5199 66.3058C65.3423 66.7638 65.2536 67.2983 65.2536 67.9091ZM73.1584 72V63.8182H74.4155V67.3764H75.2464L78.1868 63.8182H79.8061L76.5036 67.7599L79.8487 72H78.2294L75.5447 68.5483H74.4155V72H73.1584ZM84.202 72.1705C83.4633 72.1705 82.8153 71.9947 82.2577 71.6431C81.7037 71.2915 81.2705 70.7997 80.958 70.1676C80.6491 69.5355 80.4946 68.7969 80.4946 67.9517C80.4946 67.0994 80.6491 66.3555 80.958 65.7198C81.2705 65.0842 81.7037 64.5906 82.2577 64.239C82.8153 63.8874 83.4633 63.7116 84.202 63.7116C84.9406 63.7116 85.5869 63.8874 86.1409 64.239C86.6984 64.5906 87.1317 65.0842 87.4406 65.7198C87.7531 66.3555 87.9094 67.0994 87.9094 67.9517C87.9094 68.7969 87.7531 69.5355 87.4406 70.1676C87.1317 70.7997 86.6984 71.2915 86.1409 71.6431C85.5869 71.9947 84.9406 72.1705 84.202 72.1705ZM84.202 71.0412C84.7631 71.0412 85.2247 70.8974 85.5869 70.6097C85.9491 70.3221 86.2172 69.9439 86.3912 69.4751C86.5653 69.0064 86.6523 68.4986 86.6523 67.9517C86.6523 67.4048 86.5653 66.8952 86.3912 66.4229C86.2172 65.9506 85.9491 65.5689 85.5869 65.2777C85.2247 64.9865 84.7631 64.8409 84.202 64.8409C83.6409 64.8409 83.1792 64.9865 82.817 65.2777C82.4548 65.5689 82.1867 65.9506 82.0127 66.4229C81.8387 66.8952 81.7517 67.4048 81.7517 67.9517C81.7517 68.4986 81.8387 69.0064 82.0127 69.4751C82.1867 69.9439 82.4548 70.3221 82.817 70.6097C83.1792 70.8974 83.6409 71.0412 84.202 71.0412ZM89.8283 72V63.8182H93.1735C94.0542 63.8182 94.7537 64.017 95.2722 64.4148C95.7907 64.8125 96.0499 65.3381 96.0499 65.9915C96.0499 66.4886 95.9025 66.8739 95.6078 67.1474C95.313 67.4173 94.9348 67.6001 94.4732 67.696C94.775 67.7386 95.068 67.8452 95.3521 68.0156C95.6397 68.1861 95.8777 68.4205 96.0659 68.7188C96.2541 69.0135 96.3482 69.3757 96.3482 69.8054C96.3482 70.2244 96.2417 70.5991 96.0286 70.9293C95.8155 71.2596 95.5101 71.5206 95.1124 71.7124C94.7147 71.9041 94.2388 72 93.6848 72H89.8283ZM91.0215 70.8494H93.6848C94.1181 70.8494 94.4572 70.7464 94.7022 70.5405C94.9473 70.3345 95.0698 70.054 95.0698 69.6989C95.0698 69.2763 94.9473 68.9442 94.7022 68.7028C94.4572 68.4577 94.1181 68.3352 93.6848 68.3352H91.0215V70.8494ZM91.0215 67.2486H93.1735C93.5108 67.2486 93.8002 67.2024 94.0417 67.1101C94.2832 67.0142 94.4679 66.8793 94.5957 66.7053C94.7271 66.5277 94.7928 66.3182 94.7928 66.0767C94.7928 65.7322 94.649 65.4624 94.3613 65.267C94.0737 65.0682 93.6777 64.9688 93.1735 64.9688H91.0215V67.2486ZM98.2512 72V63.8182H99.5083V67.3764H100.339L103.28 63.8182H104.899L101.596 67.7599L104.941 72H103.322L100.638 68.5483H99.5083V72H98.2512ZM108.715 72.1918C108.197 72.1918 107.726 72.0941 107.304 71.8988C106.881 71.6999 106.546 71.4141 106.297 71.0412C106.049 70.6648 105.924 70.2102 105.924 69.6776C105.924 69.2088 106.017 68.8288 106.201 68.5376C106.386 68.2429 106.633 68.0121 106.942 67.8452C107.251 67.6783 107.592 67.554 107.964 67.4723C108.341 67.3871 108.719 67.3196 109.099 67.2699C109.596 67.206 109.999 67.158 110.308 67.1261C110.621 67.0906 110.848 67.032 110.99 66.9503C111.136 66.8686 111.208 66.7266 111.208 66.5241V66.4815C111.208 65.956 111.065 65.5476 110.777 65.2564C110.493 64.9652 110.061 64.8196 109.483 64.8196C108.882 64.8196 108.412 64.951 108.071 65.2138C107.73 65.4766 107.49 65.7571 107.352 66.0554L106.159 65.6293C106.372 65.1321 106.656 64.745 107.011 64.468C107.37 64.1875 107.76 63.9922 108.183 63.8821C108.609 63.7685 109.028 63.7116 109.44 63.7116C109.703 63.7116 110.005 63.7436 110.345 63.8075C110.69 63.8679 111.022 63.994 111.342 64.1857C111.665 64.3775 111.933 64.6669 112.146 65.054C112.359 65.4411 112.465 65.9595 112.465 66.6094V72H111.208V70.892H111.144C111.059 71.0696 110.917 71.2596 110.718 71.462C110.519 71.6644 110.255 71.8366 109.925 71.9787C109.594 72.1207 109.191 72.1918 108.715 72.1918ZM108.907 71.0625C109.404 71.0625 109.823 70.9648 110.164 70.7695C110.509 70.5742 110.768 70.3221 110.942 70.0131C111.12 69.7042 111.208 69.3793 111.208 69.0384V67.8878C111.155 67.9517 111.038 68.0103 110.857 68.0636C110.679 68.1133 110.473 68.1577 110.239 68.1967C110.008 68.2322 109.783 68.2642 109.562 68.2926C109.346 68.3175 109.17 68.3388 109.035 68.3565C108.708 68.3991 108.403 68.4684 108.119 68.5643C107.838 68.6566 107.611 68.7969 107.437 68.9851C107.267 69.1697 107.181 69.4219 107.181 69.7415C107.181 70.1783 107.343 70.5085 107.666 70.7322C107.993 70.9524 108.407 71.0625 108.907 71.0625Z" fill="#C2C2C2"/>
<rect x="140.59" y="48" width="100.326" height="38" rx="7" fill="white" fill-opacity="0.2"/>
<circle cx="166.48" cy="74.0794" r="1.7161" fill="#C2C2C2"/>
<path d="M166.889 58.21C170.555 58.3028 173.913 59.6393 176.556 61.8132C176.99 62.1696 177.031 62.8077 176.677 63.2431C176.285 63.7263 175.566 63.769 175.081 63.3787C172.727 61.4845 169.736 60.3506 166.479 60.3506C163.453 60.3507 160.655 61.3295 158.385 62.9884C157.884 63.3547 157.17 63.2801 156.8 62.7819C156.465 62.331 156.536 61.6943 156.985 61.358C159.633 59.3783 162.919 58.2052 166.479 58.2051L166.889 58.21Z" fill="#C2C2C2"/>
<path fill-rule="evenodd" clip-rule="evenodd" d="M170.775 70.5092C171.09 70.121 171.085 69.5548 170.708 69.2262C169.655 68.3079 168.3 67.7268 166.812 67.6514L166.481 67.6426C164.974 67.6426 163.589 68.1602 162.492 69.0272C162.097 69.34 162.067 69.9111 162.37 70.3146C162.77 70.8487 163.571 70.8559 164.129 70.4894C164.804 70.046 165.612 69.7881 166.481 69.7881C167.423 69.7881 168.294 70.0919 169.002 70.6068C169.545 71.0017 170.352 71.0301 170.775 70.5092Z" fill="#C2C2C2"/>
<path fill-rule="evenodd" clip-rule="evenodd" d="M173.714 66.8928C174.058 66.4692 174.028 65.8491 173.608 65.5001C171.812 64.0068 169.541 63.0665 167.054 62.9404L166.48 62.9258C163.946 62.9259 161.609 63.7709 159.736 65.1944C159.3 65.5259 159.244 66.1471 159.573 66.5854C159.953 67.0926 160.689 67.1501 161.202 66.7783C162.685 65.7044 164.508 65.0714 166.48 65.0713C168.593 65.0713 170.537 65.7993 172.074 67.0182C172.573 67.4134 173.313 67.3864 173.714 66.8928Z" fill="#C2C2C2"/>
<path d="M190.219 72L187.236 61.0909H188.578L190.858 69.9759H190.964L193.287 61.0909H194.778L197.101 69.9759H197.207L199.487 61.0909H200.829L197.846 72H196.483L194.075 63.3068H193.99L191.582 72H190.219ZM202.305 72V63.8182H203.562V72H202.305ZM202.944 62.4545C202.699 62.4545 202.488 62.3711 202.31 62.2042C202.136 62.0373 202.049 61.8366 202.049 61.6023C202.049 61.3679 202.136 61.1673 202.31 61.0004C202.488 60.8335 202.699 60.75 202.944 60.75C203.189 60.75 203.399 60.8335 203.573 61.0004C203.75 61.1673 203.839 61.3679 203.839 61.6023C203.839 61.8366 203.75 62.0373 203.573 62.2042C203.399 62.3711 203.189 62.4545 202.944 62.4545ZM210.552 66.7372V67.9091H205.779V66.7372H210.552ZM212.934 72V61.0909H219.475V62.2628H214.255V65.9489H218.985V67.1207H214.255V72H212.934ZM221.568 72V63.8182H222.825V72H221.568ZM222.207 62.4545C221.962 62.4545 221.75 62.3711 221.573 62.2042C221.399 62.0373 221.312 61.8366 221.312 61.6023C221.312 61.3679 221.399 61.1673 221.573 61.0004C221.75 60.8335 221.962 60.75 222.207 60.75C222.452 60.75 222.661 60.8335 222.835 61.0004C223.013 61.1673 223.102 61.3679 223.102 61.6023C223.102 61.8366 223.013 62.0373 222.835 62.2042C222.661 62.3711 222.452 62.4545 222.207 62.4545Z" fill="#C2C2C2"/>
<rect x="250.916" y="48" width="85.0748" height="38" rx="7" fill="white" fill-opacity="0.2"/>
<rect x="274.223" y="68.3223" width="4.63731" height="1.35308" rx="0.676538" transform="rotate(-45 274.223 68.3223)" fill="#C2C2C2"/>
<rect x="266.916" y="58.2051" width="2.25513" height="17.59" rx="1.12756" fill="#C2C2C2"/>
<path d="M275.494 62.5531C276.731 62.6998 276.771 64.2341 275.89 65.1148L274.296 66.7094C273.415 67.5901 271.881 67.5497 271.734 66.3129C271.616 65.319 271.938 64.2828 272.701 63.5202C273.464 62.7575 274.5 62.4352 275.494 62.5531Z" fill="#C2C2C2"/>
<rect x="266.465" y="59.3477" width="2.25513" height="6.31436" rx="1.12756" transform="rotate(-45 266.465 59.3477)" fill="#C2C2C2"/>
<path d="M288.374 74.642V70.8281H289.077C289.319 70.608 289.546 70.2972 289.759 69.896C289.976 69.4911 290.159 68.9513 290.308 68.2766C290.461 67.5984 290.562 66.7372 290.611 65.6932L290.846 61.0909H297.323V70.8281H298.58V74.6207H297.323V72H289.631V74.642H288.374ZM290.654 70.8281H296.066V62.2628H292.039L291.869 65.6932C291.826 66.4886 291.751 67.2095 291.645 67.8558C291.538 68.4986 291.402 69.0685 291.235 69.5657C291.068 70.0593 290.874 70.4801 290.654 70.8281ZM301.216 75.0682C301.003 75.0682 300.813 75.0504 300.646 75.0149C300.479 74.983 300.363 74.951 300.299 74.919L300.619 73.8111C300.924 73.8892 301.194 73.9176 301.429 73.8963C301.663 73.875 301.871 73.7702 302.052 73.582C302.237 73.3974 302.405 73.0973 302.558 72.6818L302.792 72.0426L299.767 63.8182H301.13L303.389 70.3381H303.474L305.733 63.8182H307.096L303.623 73.1932C303.467 73.6158 303.273 73.9656 303.043 74.2425C302.812 74.5231 302.544 74.7308 302.238 74.8658C301.936 75.0007 301.596 75.0682 301.216 75.0682ZM308.756 63.8182H310.013V70.8281H313.102V63.8182H314.359V70.8281H317.449V63.8182H318.706V72H308.756V63.8182Z" fill="#C2C2C2"/>
</svg>
