<svg width="647" height="50" viewBox="0 0 647 50" fill="none" xmlns="http://www.w3.org/2000/svg">
<rect width="194.333" height="50" rx="15" fill="white" fill-opacity="0.2"/>
<path d="M25.1113 12C26.9522 12 28.4451 13.4922 28.4453 15.333V34.667C28.4451 36.5078 26.9522 38 25.1113 38H23.334C21.4931 38 20.0012 36.5078 20.001 34.667V15.333C20.0012 13.4922 21.4931 12 23.334 12H25.1113ZM22.7783 24C22.226 24 21.7783 24.4477 21.7783 25C21.7783 25.5523 22.226 26 22.7783 26H25.4443C25.9966 26 26.4443 25.5523 26.4443 25C26.4443 24.4477 25.9966 24 25.4443 24H22.7783Z" fill="#C2C2C2"/>
<path d="M35.5566 12C37.3975 12 38.8895 13.4922 38.8896 15.333V34.667C38.8895 36.5078 37.3975 38 35.5566 38H33.7793C31.9385 38 30.4455 36.5078 30.4453 34.667V15.333C30.4455 13.4922 31.9385 12 33.7793 12H35.5566ZM33.2236 24C32.6713 24 32.2236 24.4477 32.2236 25C32.2236 25.5521 32.6706 25.9997 33.2227 26H35.8896C36.4419 26 36.8896 25.5523 36.8896 25C36.8896 24.4477 36.4419 24 35.8896 24H33.2236Z" fill="#C2C2C2"/>
<path d="M46.001 12C47.8418 12 49.3348 13.4922 49.335 15.333V34.667C49.3348 36.5078 47.8418 38 46.001 38H44.2236C42.3828 38 40.8908 36.5078 40.8906 34.667V15.333C40.8908 13.4922 42.3828 12 44.2236 12H46.001ZM43.668 24C43.1157 24 42.668 24.4477 42.668 25C42.668 25.5523 43.1157 26 43.668 26H46.335C46.887 25.9997 47.335 25.5521 47.335 25C47.335 24.4479 46.887 24.0003 46.335 24H43.668Z" fill="#C2C2C2"/>
<path d="M61.0944 32V17.4545H66.0091C67.1502 17.4545 68.083 17.6605 68.8074 18.0724C69.5366 18.4796 70.0764 19.0312 70.4268 19.7273C70.7771 20.4233 70.9523 21.1998 70.9523 22.0568C70.9523 22.9138 70.7771 23.6927 70.4268 24.3935C70.0811 25.0942 69.5461 25.6529 68.8216 26.0696C68.0972 26.4815 67.1692 26.6875 66.0376 26.6875H62.5148V25.125H65.9807C66.762 25.125 67.3894 24.9901 67.8628 24.7202C68.3363 24.4503 68.6796 24.0857 68.8927 23.6264C69.1105 23.1624 69.2194 22.6392 69.2194 22.0568C69.2194 21.4744 69.1105 20.9536 68.8927 20.4943C68.6796 20.035 68.334 19.6752 67.8557 19.4148C67.3775 19.1496 66.743 19.017 65.9523 19.017H62.8557V32H61.0944ZM76.7726 32.2557C76.0814 32.2557 75.454 32.1255 74.8905 31.8651C74.3271 31.5999 73.8796 31.2188 73.5482 30.7216C73.2168 30.2197 73.051 29.6136 73.051 28.9034C73.051 28.2784 73.1742 27.7718 73.4204 27.3835C73.6666 26.9905 73.9956 26.6828 74.4076 26.4602C74.8195 26.2377 75.2741 26.072 75.7712 25.9631C76.2731 25.8494 76.7774 25.7595 77.284 25.6932C77.9469 25.608 78.4843 25.544 78.8962 25.5014C79.3129 25.4541 79.6159 25.3759 79.8053 25.267C79.9994 25.1581 80.0965 24.9687 80.0965 24.6989V24.642C80.0965 23.9413 79.9047 23.3968 79.5212 23.0085C79.1424 22.6203 78.5671 22.4261 77.7954 22.4261C76.9952 22.4261 76.3678 22.6013 75.9133 22.9517C75.4587 23.3021 75.1391 23.6761 74.9545 24.0739L73.3635 23.5057C73.6476 22.8428 74.0264 22.3267 74.4999 21.9574C74.9781 21.5833 75.499 21.3229 76.0624 21.1761C76.6306 21.0246 77.1893 20.9489 77.7385 20.9489C78.0889 20.9489 78.4914 20.9915 78.9459 21.0767C79.4052 21.1572 79.8479 21.3253 80.2741 21.581C80.7049 21.8366 81.0624 22.2225 81.3465 22.7386C81.6306 23.2547 81.7726 23.946 81.7726 24.8125V32H80.0965V30.5227H80.0113C79.8976 30.7595 79.7082 31.0128 79.4431 31.2827C79.1779 31.5526 78.8252 31.7822 78.3849 31.9716C77.9445 32.161 77.4071 32.2557 76.7726 32.2557ZM77.0283 30.75C77.6912 30.75 78.2499 30.6198 78.7045 30.3594C79.1637 30.099 79.5094 29.7628 79.7414 29.3509C79.9781 28.9389 80.0965 28.5057 80.0965 28.0511V26.517C80.0255 26.6023 79.8692 26.6804 79.6278 26.7514C79.391 26.8177 79.1164 26.8769 78.8039 26.929C78.4961 26.9763 78.1955 27.0189 77.9019 27.0568C77.6131 27.09 77.3787 27.1184 77.1988 27.142C76.7632 27.1989 76.356 27.2912 75.9772 27.419C75.6031 27.5421 75.3001 27.7292 75.0681 27.9801C74.8408 28.2263 74.7272 28.5625 74.7272 28.9886C74.7272 29.571 74.9426 30.0114 75.3735 30.3097C75.8091 30.6032 76.3607 30.75 77.0283 30.75ZM84.1501 29.2159H85.9399C85.9778 29.7083 86.2003 30.0824 86.6075 30.3381C87.0194 30.5938 87.5545 30.7216 88.2126 30.7216C88.885 30.7216 89.4603 30.5843 89.9385 30.3097C90.4167 30.0303 90.6558 29.5805 90.6558 28.9602C90.6558 28.5956 90.5658 28.2784 90.3859 28.0085C90.206 27.7339 89.9527 27.5208 89.626 27.3693C89.2993 27.2178 88.9134 27.142 88.4683 27.142H86.5933V25.6364H88.4683C89.1359 25.6364 89.6283 25.4848 89.9456 25.1818C90.2675 24.8788 90.4285 24.5 90.4285 24.0455C90.4285 23.5578 90.2557 23.1671 89.9101 22.8736C89.5644 22.5753 89.0744 22.4261 88.4399 22.4261C87.8007 22.4261 87.268 22.5705 86.8419 22.8594C86.4157 23.1435 86.1908 23.5104 86.1672 23.9602H84.4058C84.4247 23.3731 84.6047 22.8546 84.9456 22.4048C85.2865 21.9503 85.7505 21.5952 86.3376 21.3395C86.9247 21.0791 87.5971 20.9489 88.3547 20.9489C89.1217 20.9489 89.787 21.0838 90.3504 21.3537C90.9186 21.6188 91.3566 21.9811 91.6643 22.4403C91.9768 22.8949 92.1331 23.411 92.1331 23.9886C92.1331 24.6042 91.9603 25.1013 91.6146 25.4801C91.269 25.8589 90.8357 26.1288 90.3149 26.2898V26.4034C90.7268 26.4318 91.0843 26.5644 91.3873 26.8011C91.6951 27.0331 91.9342 27.3385 92.1047 27.7173C92.2751 28.0914 92.3604 28.5057 92.3604 28.9602C92.3604 29.6231 92.1828 30.2008 91.8277 30.6932C91.4726 31.1809 90.9849 31.5597 90.3646 31.8295C89.7443 32.0947 89.0365 32.2273 88.241 32.2273C87.4693 32.2273 86.778 32.1018 86.1672 31.8509C85.5564 31.5952 85.0711 31.2424 84.7112 30.7926C84.3561 30.3381 84.1691 29.8125 84.1501 29.2159ZM93.55 35.125V30.4375H94.4591C94.6816 30.2055 94.8734 29.9545 95.0344 29.6847C95.1953 29.4148 95.335 29.0952 95.4534 28.7259C95.5765 28.3518 95.6807 27.8973 95.7659 27.3622C95.8511 26.8224 95.9269 26.1714 95.9932 25.4091L96.3625 21.0909H103.294V30.4375H104.97V35.125H103.294V32H95.2261V35.125H93.55ZM96.3625 30.4375H101.618V22.6534H97.925L97.6409 25.4091C97.5225 26.5502 97.3757 27.5469 97.2006 28.3991C97.0254 29.2514 96.746 29.9309 96.3625 30.4375ZM111.769 32.2273C110.718 32.2273 109.811 31.9953 109.049 31.5312C108.291 31.0625 107.707 30.4091 107.295 29.571C106.887 28.7282 106.684 27.7481 106.684 26.6307C106.684 25.5133 106.887 24.5284 107.295 23.6761C107.707 22.8191 108.28 22.1515 109.013 21.6733C109.752 21.1903 110.614 20.9489 111.599 20.9489C112.167 20.9489 112.728 21.0436 113.282 21.233C113.836 21.4223 114.34 21.7301 114.795 22.1562C115.249 22.5777 115.611 23.1364 115.881 23.8324C116.151 24.5284 116.286 25.3854 116.286 26.4034V27.1136H107.877V25.6648H114.582C114.582 25.0492 114.458 24.5 114.212 24.017C113.971 23.5341 113.625 23.1529 113.175 22.8736C112.73 22.5942 112.205 22.4545 111.599 22.4545C110.931 22.4545 110.353 22.6203 109.866 22.9517C109.383 23.2784 109.011 23.7045 108.751 24.2301C108.49 24.7557 108.36 25.3191 108.36 25.9205V26.8864C108.36 27.7102 108.502 28.4086 108.786 28.9815C109.075 29.5497 109.475 29.983 109.986 30.2812C110.498 30.5748 111.092 30.7216 111.769 30.7216C112.209 30.7216 112.607 30.66 112.962 30.5369C113.322 30.4091 113.632 30.2197 113.893 29.9688C114.153 29.7131 114.354 29.3958 114.496 29.017L116.116 29.4716C115.945 30.0208 115.659 30.5038 115.256 30.9205C114.854 31.3324 114.357 31.6544 113.765 31.8864C113.173 32.1136 112.508 32.2273 111.769 32.2273ZM118.836 32V21.0909H123.296C124.47 21.0909 125.403 21.3561 126.094 21.8864C126.786 22.4167 127.131 23.1174 127.131 23.9886C127.131 24.6515 126.935 25.1652 126.542 25.5298C126.149 25.8897 125.645 26.1335 125.029 26.2614C125.431 26.3182 125.822 26.4602 126.201 26.6875C126.584 26.9148 126.902 27.2273 127.153 27.625C127.404 28.018 127.529 28.5009 127.529 29.0739C127.529 29.6326 127.387 30.1321 127.103 30.5724C126.819 31.0128 126.412 31.3608 125.881 31.6165C125.351 31.8722 124.717 32 123.978 32H118.836ZM120.427 30.4659H123.978C124.556 30.4659 125.008 30.3286 125.334 30.054C125.661 29.7794 125.824 29.4053 125.824 28.9318C125.824 28.3684 125.661 27.9257 125.334 27.6037C125.008 27.277 124.556 27.1136 123.978 27.1136H120.427V30.4659ZM120.427 25.6648H123.296C123.746 25.6648 124.132 25.6032 124.454 25.4801C124.776 25.3523 125.022 25.1723 125.192 24.9403C125.368 24.7036 125.455 24.4242 125.455 24.1023C125.455 23.643 125.263 23.2831 124.88 23.0227C124.496 22.7576 123.968 22.625 123.296 22.625H120.427V25.6648ZM133.277 32.2557C132.585 32.2557 131.958 32.1255 131.394 31.8651C130.831 31.5999 130.384 31.2188 130.052 30.7216C129.721 30.2197 129.555 29.6136 129.555 28.9034C129.555 28.2784 129.678 27.7718 129.924 27.3835C130.17 26.9905 130.5 26.6828 130.911 26.4602C131.323 26.2377 131.778 26.072 132.275 25.9631C132.777 25.8494 133.281 25.7595 133.788 25.6932C134.451 25.608 134.988 25.544 135.4 25.5014C135.817 25.4541 136.12 25.3759 136.309 25.267C136.503 25.1581 136.6 24.9687 136.6 24.6989V24.642C136.6 23.9413 136.409 23.3968 136.025 23.0085C135.646 22.6203 135.071 22.4261 134.299 22.4261C133.499 22.4261 132.872 22.6013 132.417 22.9517C131.963 23.3021 131.643 23.6761 131.458 24.0739L129.867 23.5057C130.152 22.8428 130.53 22.3267 131.004 21.9574C131.482 21.5833 132.003 21.3229 132.566 21.1761C133.134 21.0246 133.693 20.9489 134.242 20.9489C134.593 20.9489 134.995 20.9915 135.45 21.0767C135.909 21.1572 136.352 21.3253 136.778 21.581C137.209 21.8366 137.566 22.2225 137.85 22.7386C138.134 23.2547 138.277 23.946 138.277 24.8125V32H136.6V30.5227H136.515C136.402 30.7595 136.212 31.0128 135.947 31.2827C135.682 31.5526 135.329 31.7822 134.889 31.9716C134.448 32.161 133.911 32.2557 133.277 32.2557ZM133.532 30.75C134.195 30.75 134.754 30.6198 135.208 30.3594C135.668 30.099 136.013 29.7628 136.245 29.3509C136.482 28.9389 136.6 28.5057 136.6 28.0511V26.517C136.529 26.6023 136.373 26.6804 136.132 26.7514C135.895 26.8177 135.62 26.8769 135.308 26.929C135 26.9763 134.699 27.0189 134.406 27.0568C134.117 27.09 133.883 27.1184 133.703 27.142C133.267 27.1989 132.86 27.2912 132.481 27.419C132.107 27.5421 131.804 27.7292 131.572 27.9801C131.345 28.2263 131.231 28.5625 131.231 28.9886C131.231 29.571 131.447 30.0114 131.877 30.3097C132.313 30.6032 132.865 30.75 133.532 30.75ZM140.37 32V30.4375H140.768C141.094 30.4375 141.367 30.3736 141.584 30.2457C141.802 30.1132 141.977 29.8835 142.11 29.5568C142.247 29.2254 142.351 28.7661 142.422 28.179C142.498 27.5871 142.553 26.8343 142.586 25.9205L142.785 21.0909H150.057V32H148.381V22.6534H144.376L144.205 26.5455C144.167 27.4403 144.087 28.2287 143.964 28.9105C143.845 29.5876 143.663 30.1558 143.417 30.6151C143.175 31.0743 142.853 31.42 142.451 31.652C142.048 31.884 141.544 32 140.938 32H140.37ZM153.133 32V21.0909H154.809V25.8352H155.917L159.837 21.0909H161.996L157.593 26.3466L162.053 32H159.894L156.315 27.3977H154.809V32H153.133ZM167.085 32.2557C166.394 32.2557 165.766 32.1255 165.203 31.8651C164.64 31.5999 164.192 31.2188 163.861 30.7216C163.529 30.2197 163.364 29.6136 163.364 28.9034C163.364 28.2784 163.487 27.7718 163.733 27.3835C163.979 26.9905 164.308 26.6828 164.72 26.4602C165.132 26.2377 165.587 26.072 166.084 25.9631C166.586 25.8494 167.09 25.7595 167.597 25.6932C168.259 25.608 168.797 25.544 169.209 25.5014C169.625 25.4541 169.928 25.3759 170.118 25.267C170.312 25.1581 170.409 24.9687 170.409 24.6989V24.642C170.409 23.9413 170.217 23.3968 169.834 23.0085C169.455 22.6203 168.88 22.4261 168.108 22.4261C167.308 22.4261 166.68 22.6013 166.226 22.9517C165.771 23.3021 165.452 23.6761 165.267 24.0739L163.676 23.5057C163.96 22.8428 164.339 22.3267 164.812 21.9574C165.291 21.5833 165.811 21.3229 166.375 21.1761C166.943 21.0246 167.502 20.9489 168.051 20.9489C168.401 20.9489 168.804 20.9915 169.258 21.0767C169.718 21.1572 170.16 21.3253 170.587 21.581C171.017 21.8366 171.375 22.2225 171.659 22.7386C171.943 23.2547 172.085 23.946 172.085 24.8125V32H170.409V30.5227H170.324C170.21 30.7595 170.021 31.0128 169.756 31.2827C169.49 31.5526 169.138 31.7822 168.697 31.9716C168.257 32.161 167.72 32.2557 167.085 32.2557ZM167.341 30.75C168.004 30.75 168.562 30.6198 169.017 30.3594C169.476 30.099 169.822 29.7628 170.054 29.3509C170.291 28.9389 170.409 28.5057 170.409 28.0511V26.517C170.338 26.6023 170.182 26.6804 169.94 26.7514C169.704 26.8177 169.429 26.8769 169.116 26.929C168.809 26.9763 168.508 27.0189 168.214 27.0568C167.926 27.09 167.691 27.1184 167.511 27.142C167.076 27.1989 166.668 27.2912 166.29 27.419C165.916 27.5421 165.613 27.7292 165.381 27.9801C165.153 28.2263 165.04 28.5625 165.04 28.9886C165.04 29.571 165.255 30.0114 165.686 30.3097C166.122 30.6032 166.673 30.75 167.341 30.75Z" fill="#C2C2C2"/>
<rect x="209.333" width="172.733" height="50" rx="15" fill="white" fill-opacity="0.2"/>
<path d="M243.699 10.6328C251.634 10.6328 258.066 17.0648 258.066 24.999C258.066 32.9334 251.634 39.3662 243.699 39.3662C235.765 39.3661 229.333 32.9333 229.333 24.999C229.333 17.0649 235.765 10.633 243.699 10.6328ZM239.356 17.3154C238.618 17.3154 238.02 17.9143 238.02 18.6523V32.0166C238.02 32.7545 238.618 33.3525 239.356 33.3525C240.094 33.3523 240.692 32.7544 240.692 32.0166V28.0068C240.692 27.6379 240.991 27.3389 241.36 27.3389H244.368C247.136 27.3386 249.379 25.0947 249.379 22.3271C249.379 19.5599 247.135 17.3157 244.368 17.3154H239.356ZM244.368 19.9883C245.659 19.9886 246.706 21.036 246.706 22.3271C246.706 23.6185 245.659 24.6657 244.368 24.666H241.36C240.992 24.666 240.693 24.3668 240.692 23.998V20.6562C240.692 20.2873 240.991 19.9883 241.36 19.9883H244.368Z" fill="#C2C2C2"/>
<path d="M280.708 17.4545V32H278.947V19.017H271.618V32H269.856V17.4545H280.708ZM287.244 32.2557C286.553 32.2557 285.926 32.1255 285.362 31.8651C284.799 31.5999 284.351 31.2188 284.02 30.7216C283.688 30.2197 283.523 29.6136 283.523 28.9034C283.523 28.2784 283.646 27.7718 283.892 27.3835C284.138 26.9905 284.467 26.6828 284.879 26.4602C285.291 26.2377 285.746 26.072 286.243 25.9631C286.745 25.8494 287.249 25.7595 287.756 25.6932C288.419 25.608 288.956 25.544 289.368 25.5014C289.785 25.4541 290.088 25.3759 290.277 25.267C290.471 25.1581 290.568 24.9687 290.568 24.6989V24.642C290.568 23.9413 290.376 23.3968 289.993 23.0085C289.614 22.6203 289.039 22.4261 288.267 22.4261C287.467 22.4261 286.839 22.6013 286.385 22.9517C285.93 23.3021 285.611 23.6761 285.426 24.0739L283.835 23.5057C284.119 22.8428 284.498 22.3267 284.972 21.9574C285.45 21.5833 285.971 21.3229 286.534 21.1761C287.102 21.0246 287.661 20.9489 288.21 20.9489C288.561 20.9489 288.963 20.9915 289.418 21.0767C289.877 21.1572 290.32 21.3253 290.746 21.581C291.177 21.8366 291.534 22.2225 291.818 22.7386C292.102 23.2547 292.244 23.946 292.244 24.8125V32H290.568V30.5227H290.483C290.369 30.7595 290.18 31.0128 289.915 31.2827C289.65 31.5526 289.297 31.7822 288.857 31.9716C288.416 32.161 287.879 32.2557 287.244 32.2557ZM287.5 30.75C288.163 30.75 288.722 30.6198 289.176 30.3594C289.635 30.099 289.981 29.7628 290.213 29.3509C290.45 28.9389 290.568 28.5057 290.568 28.0511V26.517C290.497 26.6023 290.341 26.6804 290.099 26.7514C289.863 26.8177 289.588 26.8769 289.276 26.929C288.968 26.9763 288.667 27.0189 288.374 27.0568C288.085 27.09 287.85 27.1184 287.67 27.142C287.235 27.1989 286.828 27.2912 286.449 27.419C286.075 27.5421 285.772 27.7292 285.54 27.9801C285.313 28.2263 285.199 28.5625 285.199 28.9886C285.199 29.571 285.414 30.0114 285.845 30.3097C286.281 30.6032 286.832 30.75 287.5 30.75ZM295.304 36.0909V21.0909H296.923V22.8239H297.122C297.245 22.6345 297.415 22.393 297.633 22.0994C297.856 21.8011 298.173 21.536 298.585 21.304C299.002 21.0672 299.565 20.9489 300.275 20.9489C301.194 20.9489 302.003 21.1785 302.704 21.6378C303.405 22.0971 303.952 22.7481 304.345 23.5909C304.738 24.4337 304.934 25.428 304.934 26.5739C304.934 27.7292 304.738 28.7306 304.345 29.5781C303.952 30.4209 303.407 31.0743 302.711 31.5384C302.015 31.9976 301.213 32.2273 300.304 32.2273C299.603 32.2273 299.042 32.1113 298.62 31.8793C298.199 31.6425 297.875 31.375 297.647 31.0767C297.42 30.7737 297.245 30.5227 297.122 30.3239H296.98V36.0909H295.304ZM296.951 26.5455C296.951 27.3693 297.072 28.0961 297.314 28.7259C297.555 29.3509 297.908 29.8409 298.372 30.196C298.836 30.5464 299.404 30.7216 300.076 30.7216C300.777 30.7216 301.362 30.5369 301.831 30.1676C302.304 29.7936 302.659 29.2917 302.896 28.6619C303.137 28.0275 303.258 27.322 303.258 26.5455C303.258 25.7784 303.14 25.0871 302.903 24.4716C302.671 23.8513 302.318 23.3613 301.845 23.0014C301.376 22.6368 300.787 22.4545 300.076 22.4545C299.395 22.4545 298.822 22.6274 298.358 22.973C297.894 23.3139 297.543 23.7921 297.306 24.4077C297.07 25.0185 296.951 25.7311 296.951 26.5455ZM307.491 32V21.0909H309.167V25.8352H310.275L314.196 21.0909H316.355L311.951 26.3466L316.412 32H314.252L310.673 27.3977H309.167V32H307.491ZM322.216 32.2273C321.231 32.2273 320.367 31.9929 319.624 31.5241C318.885 31.0554 318.307 30.3996 317.891 29.5568C317.479 28.714 317.273 27.7292 317.273 26.6023C317.273 25.4659 317.479 24.474 317.891 23.6264C318.307 22.7789 318.885 22.1207 319.624 21.652C320.367 21.1832 321.231 20.9489 322.216 20.9489C323.201 20.9489 324.063 21.1832 324.801 21.652C325.545 22.1207 326.122 22.7789 326.534 23.6264C326.951 24.474 327.159 25.4659 327.159 26.6023C327.159 27.7292 326.951 28.714 326.534 29.5568C326.122 30.3996 325.545 31.0554 324.801 31.5241C324.063 31.9929 323.201 32.2273 322.216 32.2273ZM322.216 30.7216C322.964 30.7216 323.58 30.5298 324.062 30.1463C324.545 29.7628 324.903 29.2585 325.135 28.6335C325.367 28.0085 325.483 27.3314 325.483 26.6023C325.483 25.8731 325.367 25.1937 325.135 24.5639C324.903 23.9342 324.545 23.4252 324.062 23.0369C323.58 22.6487 322.964 22.4545 322.216 22.4545C321.468 22.4545 320.852 22.6487 320.369 23.0369C319.886 23.4252 319.529 23.9342 319.297 24.5639C319.065 25.1937 318.949 25.8731 318.949 26.6023C318.949 27.3314 319.065 28.0085 319.297 28.6335C319.529 29.2585 319.886 29.7628 320.369 30.1463C320.852 30.5298 321.468 30.7216 322.216 30.7216ZM329.718 32V21.0909H334.178C335.352 21.0909 336.285 21.3561 336.976 21.8864C337.667 22.4167 338.013 23.1174 338.013 23.9886C338.013 24.6515 337.817 25.1652 337.424 25.5298C337.031 25.8897 336.526 26.1335 335.911 26.2614C336.313 26.3182 336.704 26.4602 337.083 26.6875C337.466 26.9148 337.783 27.2273 338.034 27.625C338.285 28.018 338.411 28.5009 338.411 29.0739C338.411 29.6326 338.269 30.1321 337.985 30.5724C337.701 31.0128 337.293 31.3608 336.763 31.6165C336.233 31.8722 335.598 32 334.86 32H329.718ZM331.309 30.4659H334.86C335.437 30.4659 335.89 30.3286 336.216 30.054C336.543 29.7794 336.706 29.4053 336.706 28.9318C336.706 28.3684 336.543 27.9257 336.216 27.6037C335.89 27.277 335.437 27.1136 334.86 27.1136H331.309V30.4659ZM331.309 25.6648H334.178C334.628 25.6648 335.014 25.6032 335.336 25.4801C335.658 25.3523 335.904 25.1723 336.074 24.9403C336.249 24.7036 336.337 24.4242 336.337 24.1023C336.337 23.643 336.145 23.2831 335.762 23.0227C335.378 22.7576 334.85 22.625 334.178 22.625H331.309V25.6648ZM340.948 32V21.0909H342.624V25.8352H343.732L347.653 21.0909H349.812L345.408 26.3466L349.869 32H347.71L344.13 27.3977H342.624V32H340.948ZM354.901 32.2557C354.209 32.2557 353.582 32.1255 353.018 31.8651C352.455 31.5999 352.008 31.2188 351.676 30.7216C351.345 30.2197 351.179 29.6136 351.179 28.9034C351.179 28.2784 351.302 27.7718 351.548 27.3835C351.795 26.9905 352.124 26.6828 352.536 26.4602C352.947 26.2377 353.402 26.072 353.899 25.9631C354.401 25.8494 354.905 25.7595 355.412 25.6932C356.075 25.608 356.612 25.544 357.024 25.5014C357.441 25.4541 357.744 25.3759 357.933 25.267C358.127 25.1581 358.224 24.9687 358.224 24.6989V24.642C358.224 23.9413 358.033 23.3968 357.649 23.0085C357.27 22.6203 356.695 22.4261 355.923 22.4261C355.123 22.4261 354.496 22.6013 354.041 22.9517C353.587 23.3021 353.267 23.6761 353.082 24.0739L351.491 23.5057C351.776 22.8428 352.154 22.3267 352.628 21.9574C353.106 21.5833 353.627 21.3229 354.19 21.1761C354.759 21.0246 355.317 20.9489 355.866 20.9489C356.217 20.9489 356.619 20.9915 357.074 21.0767C357.533 21.1572 357.976 21.3253 358.402 21.581C358.833 21.8366 359.19 22.2225 359.474 22.7386C359.759 23.2547 359.901 23.946 359.901 24.8125V32H358.224V30.5227H358.139C358.026 30.7595 357.836 31.0128 357.571 31.2827C357.306 31.5526 356.953 31.7822 356.513 31.9716C356.072 32.161 355.535 32.2557 354.901 32.2557ZM355.156 30.75C355.819 30.75 356.378 30.6198 356.832 30.3594C357.292 30.099 357.637 29.7628 357.869 29.3509C358.106 28.9389 358.224 28.5057 358.224 28.0511V26.517C358.153 26.6023 357.997 26.6804 357.756 26.7514C357.519 26.8177 357.244 26.8769 356.932 26.929C356.624 26.9763 356.323 27.0189 356.03 27.0568C355.741 27.09 355.507 27.1184 355.327 27.142C354.891 27.1989 354.484 27.2912 354.105 27.419C353.731 27.5421 353.428 27.7292 353.196 27.9801C352.969 28.2263 352.855 28.5625 352.855 28.9886C352.855 29.571 353.071 30.0114 353.501 30.3097C353.937 30.6032 354.489 30.75 355.156 30.75Z" fill="#C2C2C2"/>
<rect x="397.066" width="125.48" height="50" rx="15" fill="white" fill-opacity="0.2"/>
<circle cx="429.464" cy="33.8739" r="2.1512" fill="#C2C2C2"/>
<path fill-rule="evenodd" clip-rule="evenodd" d="M442.248 20.2903C442.691 19.7446 442.639 18.9449 442.096 18.4982C438.783 15.7731 434.574 14.0979 429.977 13.9814L429.464 13.9746C425.001 13.9746 420.881 15.444 417.562 17.9253C416.997 18.3475 416.909 19.1469 417.33 19.7127C417.795 20.3373 418.69 20.4306 419.318 19.9712C422.163 17.8916 425.67 16.6641 429.464 16.6641C433.546 16.6641 437.296 18.0853 440.247 20.4601C440.855 20.9493 441.756 20.8959 442.248 20.2903Z" fill="#C2C2C2"/>
<path d="M429.88 25.8174C431.745 25.912 433.443 26.6399 434.763 27.7904C435.235 28.2025 435.242 28.9127 434.846 29.3995C434.316 30.0524 433.304 30.0169 432.624 29.5219C431.737 28.8768 430.645 28.4962 429.465 28.4961C428.377 28.4962 427.364 28.8193 426.517 29.375C425.818 29.834 424.815 29.8246 424.313 29.1552C423.935 28.6497 423.972 27.9346 424.467 27.5427C425.841 26.456 427.577 25.8068 429.465 25.8066L429.88 25.8174Z" fill="#C2C2C2"/>
<path d="M429.825 19.8955C433.082 19.9781 436.061 21.1745 438.397 23.1174C438.924 23.5551 438.962 24.333 438.53 24.8644C438.027 25.4838 437.098 25.5177 436.473 25.0217C434.548 23.4939 432.113 22.5802 429.464 22.5801C426.993 22.5802 424.709 23.3745 422.85 24.7206C422.206 25.1874 421.283 25.1151 420.805 24.4783C420.393 23.9283 420.464 23.1491 421.011 22.7333C423.359 20.9493 426.288 19.8907 429.464 19.8906L429.825 19.8955Z" fill="#C2C2C2"/>
<path d="M456.949 32L452.972 17.4545H454.762L457.802 29.3011H457.944L461.04 17.4545H463.029L466.125 29.3011H466.267L469.307 17.4545H471.097L467.12 32H465.302L462.091 20.4091H461.978L458.767 32H456.949ZM473.064 32V21.0909H474.741V32H473.064ZM473.917 19.2727C473.59 19.2727 473.308 19.1615 473.071 18.9389C472.839 18.7164 472.723 18.4489 472.723 18.1364C472.723 17.8239 472.839 17.5563 473.071 17.3338C473.308 17.1113 473.59 17 473.917 17C474.243 17 474.523 17.1113 474.755 17.3338C474.991 17.5563 475.11 17.8239 475.11 18.1364C475.11 18.4489 474.991 18.7164 474.755 18.9389C474.523 19.1615 474.243 19.2727 473.917 19.2727ZM484.06 24.983V26.5455H477.697V24.983H484.06ZM487.237 32V17.4545H495.959V19.017H488.998V23.9318H495.305V25.4943H488.998V32H487.237ZM498.748 32V21.0909H500.424V32H498.748ZM499.6 19.2727C499.274 19.2727 498.992 19.1615 498.755 18.9389C498.523 18.7164 498.407 18.4489 498.407 18.1364C498.407 17.8239 498.523 17.5563 498.755 17.3338C498.992 17.1113 499.274 17 499.6 17C499.927 17 500.206 17.1113 500.438 17.3338C500.675 17.5563 500.793 17.8239 500.793 18.1364C500.793 18.4489 500.675 18.7164 500.438 18.9389C500.206 19.1615 499.927 19.2727 499.6 19.2727Z" fill="#C2C2C2"/>
<rect x="537.546" width="109.37" height="50" rx="15" fill="white" fill-opacity="0.2"/>
<rect x="568.346" y="26.9551" width="6.85447" height="2" rx="1" transform="rotate(-45 568.346 26.9551)" fill="#C2C2C2"/>
<rect x="557.546" y="12" width="3.33333" height="26" rx="1.66667" fill="#C2C2C2"/>
<path d="M570.225 18.4276C572.053 18.6445 572.113 20.9123 570.811 22.2141L568.454 24.5711C567.152 25.8728 564.885 25.8132 564.668 23.985C564.493 22.5159 564.97 20.9843 566.097 19.857C567.224 18.7298 568.756 18.2533 570.225 18.4276Z" fill="#C2C2C2"/>
<rect x="556.879" y="13.6895" width="3.33333" height="9.33333" rx="1.66667" transform="rotate(-45 556.879 13.6895)" fill="#C2C2C2"/>
<path d="M584.427 35.5227V30.4375H585.365C585.687 30.1439 585.99 29.7296 586.274 29.1946C586.563 28.6548 586.807 27.9351 587.006 27.0355C587.209 26.1312 587.344 24.983 587.41 23.5909L587.723 17.4545H596.359V30.4375H598.035V35.4943H596.359V32H586.104V35.5227H584.427ZM587.467 30.4375H594.683V19.017H589.314L589.086 23.5909C589.03 24.6515 588.93 25.6127 588.788 26.4744C588.646 27.3314 588.464 28.0914 588.241 28.7543C588.019 29.4124 587.761 29.9735 587.467 30.4375ZM601.549 36.0909C601.265 36.0909 601.012 36.0672 600.789 36.0199C600.567 35.9773 600.413 35.9347 600.328 35.892L600.754 34.4148C601.161 34.5189 601.521 34.5568 601.833 34.5284C602.146 34.5 602.423 34.3603 602.664 34.1094C602.91 33.8632 603.135 33.4631 603.339 32.9091L603.651 32.0568L599.617 21.0909H601.436L604.447 29.7841H604.561L607.572 21.0909H609.39L604.759 33.5909C604.551 34.1544 604.293 34.6207 603.985 34.9901C603.677 35.3641 603.32 35.6411 602.913 35.821C602.51 36.0009 602.056 36.0909 601.549 36.0909ZM611.602 21.0909H613.279V30.4375H617.398V21.0909H619.074V30.4375H623.193V21.0909H624.869V32H611.602V21.0909Z" fill="#C2C2C2"/>
</svg>
