<svg width="675" height="30" viewBox="0 0 675 30" fill="none" xmlns="http://www.w3.org/2000/svg">
<path d="M12 2C14.7614 2 17 4.23858 17 7V23C17 25.7614 14.7614 28 12 28H5C2.23858 28 4.83208e-08 25.7614 0 23V7C2.57711e-07 4.23858 2.23858 2 5 2H12ZM7.92285 6C5.71382 6.00012 3.92285 7.79094 3.92285 10V20C3.92285 22.2091 5.71382 23.9999 7.92285 24H9.07715C11.2862 23.9999 13.0771 22.2091 13.0771 20V10C13.0771 7.79094 11.2862 6.00012 9.07715 6H7.92285Z" fill="#C2C2C2"/>
<path d="M33.1364 7.25568C33.733 7.26042 34.3295 7.37405 34.9261 7.59659C35.5227 7.81913 36.0672 8.18845 36.5597 8.70455C37.0521 9.21591 37.4474 9.9143 37.7457 10.7997C38.044 11.6851 38.1932 12.7955 38.1932 14.1307C38.1932 15.4233 38.0701 16.5715 37.8239 17.5753C37.5824 18.5743 37.232 19.4171 36.7727 20.1037C36.3182 20.7902 35.7642 21.3111 35.1108 21.6662C34.4621 22.0213 33.7282 22.1989 32.9091 22.1989C32.0947 22.1989 31.3679 22.0379 30.7287 21.7159C30.0942 21.3892 29.5734 20.937 29.1662 20.3594C28.7637 19.777 28.5057 19.1023 28.392 18.3352H30.125C30.2812 19.0028 30.5914 19.5545 31.0554 19.9901C31.5241 20.4209 32.142 20.6364 32.9091 20.6364C34.0313 20.6364 34.9167 20.1463 35.5653 19.1662C36.2188 18.1861 36.5455 16.8011 36.5455 15.0114H36.4318C36.1667 15.4091 35.8518 15.7524 35.4872 16.0412C35.1226 16.33 34.7178 16.5526 34.2727 16.7088C33.8277 16.8651 33.3542 16.9432 32.8523 16.9432C32.0189 16.9432 31.2543 16.7372 30.5582 16.3253C29.867 15.9086 29.313 15.3381 28.8963 14.6136C28.4844 13.8845 28.2784 13.0511 28.2784 12.1136C28.2784 11.2235 28.4773 10.4091 28.875 9.67045C29.2775 8.92708 29.8409 8.33523 30.5653 7.89489C31.2945 7.45455 32.1515 7.24148 33.1364 7.25568ZM33.1364 8.81818C32.5398 8.81818 32.0024 8.96733 31.5241 9.26562C31.0507 9.55919 30.6742 9.95691 30.3949 10.4588C30.1203 10.956 29.983 11.5076 29.983 12.1136C29.983 12.7197 30.1155 13.2713 30.3807 13.7685C30.6506 14.2609 31.0175 14.6539 31.4815 14.9474C31.9503 15.2363 32.483 15.3807 33.0795 15.3807C33.5294 15.3807 33.9484 15.2931 34.3366 15.1179C34.7249 14.938 35.0634 14.6941 35.3523 14.3864C35.6458 14.0739 35.8755 13.7211 36.0412 13.3281C36.2069 12.9304 36.2898 12.5161 36.2898 12.0852C36.2898 11.517 36.1525 10.9844 35.8778 10.4872C35.608 9.99006 35.2339 9.58759 34.7557 9.27983C34.2822 8.97206 33.7424 8.81818 33.1364 8.81818ZM47.8896 11.0909L50.5032 15.5511L53.1168 11.0909H55.0487L51.5259 16.5455L55.0487 22H53.1168L50.5032 17.767L47.8896 22H45.9577L49.4237 16.5455L45.9577 11.0909H47.8896ZM68.1506 7.45455V22H66.3892V9.30114H66.304L62.7528 11.6591V9.86932L66.3892 7.45455H68.1506ZM77.1634 22.1989C76.5668 22.1894 75.9702 22.0758 75.3736 21.858C74.777 21.6402 74.2325 21.2732 73.7401 20.7571C73.2476 20.2363 72.8523 19.5331 72.554 18.6477C72.2557 17.7576 72.1065 16.6402 72.1065 15.2955C72.1065 14.0076 72.2273 12.8665 72.4688 11.8722C72.7102 10.8731 73.0606 10.0327 73.5199 9.35085C73.9792 8.6643 74.5331 8.14347 75.1818 7.78835C75.8352 7.43324 76.5715 7.25568 77.3906 7.25568C78.205 7.25568 78.9295 7.41903 79.5639 7.74574C80.2031 8.06771 80.724 8.51752 81.1264 9.09517C81.5289 9.67282 81.7893 10.3381 81.9077 11.0909H80.1747C80.0137 10.4375 79.7012 9.89536 79.2372 9.46449C78.7732 9.03362 78.1577 8.81818 77.3906 8.81818C76.2637 8.81818 75.3759 9.30824 74.7273 10.2884C74.0833 11.2685 73.759 12.6439 73.7543 14.4148H73.8679C74.133 14.0123 74.4479 13.669 74.8125 13.3849C75.1818 13.0961 75.589 12.8736 76.0341 12.7173C76.4792 12.5611 76.9503 12.483 77.4474 12.483C78.2808 12.483 79.0431 12.6913 79.7344 13.108C80.4257 13.5199 80.9796 14.0904 81.3963 14.8196C81.813 15.544 82.0213 16.375 82.0213 17.3125C82.0213 18.2121 81.8201 19.036 81.4176 19.7841C81.0152 20.5275 80.4493 21.1193 79.7202 21.5597C78.9957 21.9953 78.1435 22.2083 77.1634 22.1989ZM77.1634 20.6364C77.7599 20.6364 78.295 20.4872 78.7685 20.1889C79.2467 19.8906 79.6231 19.4905 79.8977 18.9886C80.1771 18.4867 80.3168 17.928 80.3168 17.3125C80.3168 16.7112 80.1818 16.1643 79.9119 15.6719C79.6468 15.1747 79.2798 14.7794 78.8111 14.4858C78.3471 14.1922 77.8168 14.0455 77.2202 14.0455C76.7704 14.0455 76.3513 14.1354 75.9631 14.3153C75.5748 14.4905 75.2339 14.732 74.9403 15.0398C74.6515 15.3475 74.4242 15.7003 74.2585 16.098C74.0928 16.491 74.0099 16.9053 74.0099 17.3409C74.0099 17.9186 74.1449 18.4583 74.4148 18.9602C74.6894 19.4621 75.0634 19.867 75.5369 20.1747C76.0152 20.4825 76.5573 20.6364 77.1634 20.6364Z" fill="white"/>
<rect x="113.125" y="2" width="3.75" height="26" rx="1.875" fill="#C2C2C2"/>
<rect x="120" y="2" width="4" height="10" rx="2" transform="rotate(90 120 2)" fill="#C2C2C2"/>
<rect x="120" y="24" width="4" height="10" rx="2" transform="rotate(90 120 24)" fill="#C2C2C2"/>
<path d="M136.619 7.45455V22H134.858V9.30114H134.773L131.222 11.6591V9.86932L134.858 7.45455H136.619ZM142.472 20.0114L142.358 20.7784C142.277 21.3182 142.154 21.8958 141.989 22.5114C141.828 23.1269 141.66 23.7069 141.484 24.2514C141.309 24.7959 141.165 25.2292 141.051 25.5511H139.773C139.834 25.2481 139.915 24.848 140.014 24.3509C140.114 23.8537 140.213 23.2973 140.312 22.6818C140.417 22.071 140.502 21.446 140.568 20.8068L140.653 20.0114H142.472ZM149.917 22.1989C148.979 22.1989 148.143 22.0379 147.409 21.7159C146.68 21.3939 146.1 20.9465 145.669 20.3736C145.243 19.7959 145.011 19.1259 144.973 18.3636H146.763C146.801 18.8324 146.962 19.2372 147.246 19.5781C147.53 19.9143 147.902 20.1747 148.361 20.3594C148.82 20.544 149.329 20.6364 149.888 20.6364C150.513 20.6364 151.067 20.5275 151.55 20.3097C152.033 20.0919 152.412 19.7888 152.686 19.4006C152.961 19.0123 153.098 18.5625 153.098 18.0511C153.098 17.5161 152.966 17.045 152.701 16.6378C152.435 16.2259 152.047 15.9039 151.536 15.6719C151.025 15.4399 150.4 15.3239 149.661 15.3239H148.496V13.7614H149.661C150.239 13.7614 150.745 13.6572 151.181 13.4489C151.621 13.2405 151.964 12.947 152.211 12.5682C152.462 12.1894 152.587 11.7443 152.587 11.233C152.587 10.7405 152.478 10.312 152.26 9.94744C152.042 9.58286 151.735 9.29877 151.337 9.09517C150.944 8.89157 150.48 8.78977 149.945 8.78977C149.443 8.78977 148.97 8.8821 148.525 9.06676C148.084 9.24669 147.724 9.50947 147.445 9.85511C147.166 10.196 147.014 10.608 146.99 11.0909H145.286C145.314 10.3286 145.544 9.66098 145.975 9.08807C146.406 8.51042 146.969 8.06061 147.665 7.73864C148.366 7.41667 149.135 7.25568 149.973 7.25568C150.873 7.25568 151.645 7.43797 152.289 7.80256C152.933 8.1624 153.427 8.63826 153.773 9.23011C154.119 9.82197 154.292 10.4612 154.292 11.1477C154.292 11.9669 154.076 12.6652 153.645 13.2429C153.219 13.8205 152.639 14.2206 151.905 14.4432V14.5568C152.824 14.7083 153.541 15.099 154.057 15.7287C154.573 16.3537 154.831 17.1278 154.831 18.0511C154.831 18.8419 154.616 19.5521 154.185 20.1818C153.759 20.8068 153.176 21.2992 152.438 21.6591C151.699 22.0189 150.859 22.1989 149.917 22.1989ZM162.48 22.1989C161.41 22.1989 160.499 21.9077 159.746 21.3253C158.993 20.7382 158.418 19.8883 158.02 18.7756C157.623 17.6581 157.424 16.3087 157.424 14.7273C157.424 13.1553 157.623 11.813 158.02 10.7003C158.423 9.58286 159 8.73059 159.753 8.14347C160.511 7.55161 161.42 7.25568 162.48 7.25568C163.541 7.25568 164.448 7.55161 165.201 8.14347C165.958 8.73059 166.536 9.58286 166.934 10.7003C167.336 11.813 167.537 13.1553 167.537 14.7273C167.537 16.3087 167.338 17.6581 166.941 18.7756C166.543 19.8883 165.968 20.7382 165.215 21.3253C164.462 21.9077 163.551 22.1989 162.48 22.1989ZM162.48 20.6364C163.541 20.6364 164.365 20.125 164.952 19.1023C165.539 18.0795 165.833 16.6212 165.833 14.7273C165.833 13.4678 165.698 12.3954 165.428 11.5099C165.163 10.6245 164.779 9.94981 164.277 9.4858C163.78 9.02178 163.181 8.78977 162.48 8.78977C161.429 8.78977 160.608 9.30824 160.016 10.3452C159.424 11.3774 159.128 12.8381 159.128 14.7273C159.128 15.9867 159.261 17.0568 159.526 17.9375C159.791 18.8182 160.172 19.4882 160.669 19.9474C161.171 20.4067 161.775 20.6364 162.48 20.6364ZM178.73 13.946V15.5085H168.73V13.946H178.73ZM185.35 7.45455V22H183.588V9.30114H183.503L179.952 11.6591V9.86932L183.588 7.45455H185.35ZM191.202 20.0114L191.088 20.7784C191.008 21.3182 190.885 21.8958 190.719 22.5114C190.558 23.1269 190.39 23.7069 190.215 24.2514C190.04 24.7959 189.895 25.2292 189.782 25.5511H188.503C188.565 25.2481 188.645 24.848 188.745 24.3509C188.844 23.8537 188.944 23.2973 189.043 22.6818C189.147 22.071 189.232 21.446 189.299 20.8068L189.384 20.0114H191.202ZM198.532 22.1989C197.698 22.1989 196.948 22.0331 196.28 21.7017C195.613 21.3703 195.078 20.9157 194.675 20.3381C194.273 19.7604 194.052 19.1023 194.015 18.3636H195.719C195.785 19.0218 196.084 19.5663 196.614 19.9972C197.149 20.4233 197.788 20.6364 198.532 20.6364C199.128 20.6364 199.658 20.4967 200.123 20.2173C200.591 19.938 200.958 19.5545 201.223 19.0668C201.493 18.5743 201.628 18.018 201.628 17.3977C201.628 16.7633 201.489 16.1974 201.209 15.7003C200.935 15.1984 200.556 14.803 200.073 14.5142C199.59 14.2254 199.038 14.0786 198.418 14.0739C197.973 14.0691 197.516 14.1378 197.047 14.2798C196.578 14.4171 196.193 14.5947 195.89 14.8125L194.242 14.6136L195.123 7.45455H202.679V9.01705H196.6L196.088 13.3068H196.174C196.472 13.0701 196.846 12.8736 197.296 12.7173C197.746 12.5611 198.214 12.483 198.702 12.483C199.592 12.483 200.385 12.696 201.081 13.1222C201.782 13.5436 202.331 14.1212 202.729 14.8551C203.132 15.589 203.333 16.4271 203.333 17.3693C203.333 18.2973 203.124 19.1259 202.708 19.8551C202.296 20.5795 201.728 21.1525 201.003 21.5739C200.279 21.9905 199.455 22.1989 198.532 22.1989ZM210.898 22.1989C209.828 22.1989 208.917 21.9077 208.164 21.3253C207.411 20.7382 206.836 19.8883 206.438 18.7756C206.04 17.6581 205.842 16.3087 205.842 14.7273C205.842 13.1553 206.04 11.813 206.438 10.7003C206.841 9.58286 207.418 8.73059 208.171 8.14347C208.929 7.55161 209.838 7.25568 210.898 7.25568C211.959 7.25568 212.866 7.55161 213.619 8.14347C214.376 8.73059 214.954 9.58286 215.352 10.7003C215.754 11.813 215.955 13.1553 215.955 14.7273C215.955 16.3087 215.756 17.6581 215.359 18.7756C214.961 19.8883 214.386 20.7382 213.633 21.3253C212.88 21.9077 211.969 22.1989 210.898 22.1989ZM210.898 20.6364C211.959 20.6364 212.783 20.125 213.37 19.1023C213.957 18.0795 214.251 16.6212 214.251 14.7273C214.251 13.4678 214.116 12.3954 213.846 11.5099C213.581 10.6245 213.197 9.94981 212.695 9.4858C212.198 9.02178 211.599 8.78977 210.898 8.78977C209.847 8.78977 209.026 9.30824 208.434 10.3452C207.842 11.3774 207.546 12.8381 207.546 14.7273C207.546 15.9867 207.679 17.0568 207.944 17.9375C208.209 18.8182 208.59 19.4882 209.087 19.9474C209.589 20.4067 210.193 20.6364 210.898 20.6364ZM230.273 19.7273L234.08 11.0909H235.671L230.955 22H229.592L224.961 11.0909H226.523L230.273 19.7273ZM225.984 11.0909V22H224.308V11.0909H225.984ZM234.563 22V11.0909H236.239V22H234.563Z" fill="white"/>
<path d="M264.369 25.125V20.4375H265.278C265.501 20.2055 265.693 19.9545 265.854 19.6847C266.015 19.4148 266.154 19.0952 266.273 18.7259C266.396 18.3518 266.5 17.8973 266.585 17.3622C266.67 16.8224 266.746 16.1714 266.812 15.4091L267.182 11.0909H274.114V20.4375H275.79V25.125H274.114V22H266.045V25.125H264.369ZM267.182 20.4375H272.438V12.6534H268.744L268.46 15.4091C268.342 16.5502 268.195 17.5469 268.02 18.3991C267.845 19.2514 267.565 19.9309 267.182 20.4375ZM282.446 22.2273C281.462 22.2273 280.597 21.9929 279.854 21.5241C279.115 21.0554 278.538 20.3996 278.121 19.5568C277.709 18.714 277.503 17.7292 277.503 16.6023C277.503 15.4659 277.709 14.474 278.121 13.6264C278.538 12.7789 279.115 12.1207 279.854 11.652C280.597 11.1832 281.462 10.9489 282.446 10.9489C283.431 10.9489 284.293 11.1832 285.032 11.652C285.775 12.1207 286.353 12.7789 286.765 13.6264C287.181 14.474 287.39 15.4659 287.39 16.6023C287.39 17.7292 287.181 18.714 286.765 19.5568C286.353 20.3996 285.775 21.0554 285.032 21.5241C284.293 21.9929 283.431 22.2273 282.446 22.2273ZM282.446 20.7216C283.194 20.7216 283.81 20.5298 284.293 20.1463C284.776 19.7628 285.133 19.2585 285.365 18.6335C285.597 18.0085 285.713 17.3314 285.713 16.6023C285.713 15.8731 285.597 15.1937 285.365 14.5639C285.133 13.9342 284.776 13.4252 284.293 13.0369C283.81 12.6487 283.194 12.4545 282.446 12.4545C281.698 12.4545 281.083 12.6487 280.6 13.0369C280.117 13.4252 279.759 13.9342 279.527 14.5639C279.295 15.1937 279.179 15.8731 279.179 16.6023C279.179 17.3314 279.295 18.0085 279.527 18.6335C279.759 19.2585 280.117 19.7628 280.6 20.1463C281.083 20.5298 281.698 20.7216 282.446 20.7216ZM300.09 22.1989C299.257 22.1989 298.506 22.0331 297.839 21.7017C297.171 21.3703 296.636 20.9157 296.234 20.3381C295.831 19.7604 295.611 19.1023 295.573 18.3636H297.278C297.344 19.0218 297.642 19.5663 298.173 19.9972C298.708 20.4233 299.347 20.6364 300.09 20.6364C300.687 20.6364 301.217 20.4967 301.681 20.2173C302.15 19.938 302.517 19.5545 302.782 19.0668C303.052 18.5743 303.187 18.018 303.187 17.3977C303.187 16.7633 303.047 16.1974 302.768 15.7003C302.493 15.1984 302.114 14.803 301.631 14.5142C301.148 14.2254 300.597 14.0786 299.977 14.0739C299.531 14.0691 299.075 14.1378 298.606 14.2798C298.137 14.4171 297.751 14.5947 297.448 14.8125L295.8 14.6136L296.681 7.45455H304.238V9.01705H298.158L297.647 13.3068H297.732C298.031 13.0701 298.405 12.8736 298.854 12.7173C299.304 12.5611 299.773 12.483 300.261 12.483C301.151 12.483 301.944 12.696 302.64 13.1222C303.341 13.5436 303.89 14.1212 304.288 14.8551C304.69 15.589 304.891 16.4271 304.891 17.3693C304.891 18.2973 304.683 19.1259 304.266 19.8551C303.854 20.5795 303.286 21.1525 302.562 21.5739C301.837 21.9905 301.013 22.1989 300.09 22.1989ZM312.457 22.1989C311.387 22.1989 310.475 21.9077 309.723 21.3253C308.97 20.7382 308.395 19.8883 307.997 18.7756C307.599 17.6581 307.4 16.3087 307.4 14.7273C307.4 13.1553 307.599 11.813 307.997 10.7003C308.399 9.58286 308.977 8.73059 309.73 8.14347C310.487 7.55161 311.396 7.25568 312.457 7.25568C313.518 7.25568 314.424 7.55161 315.177 8.14347C315.935 8.73059 316.512 9.58286 316.91 10.7003C317.313 11.813 317.514 13.1553 317.514 14.7273C317.514 16.3087 317.315 17.6581 316.917 18.7756C316.52 19.8883 315.944 20.7382 315.191 21.3253C314.439 21.9077 313.527 22.1989 312.457 22.1989ZM312.457 20.6364C313.518 20.6364 314.342 20.125 314.929 19.1023C315.516 18.0795 315.809 16.6212 315.809 14.7273C315.809 13.4678 315.674 12.3954 315.404 11.5099C315.139 10.6245 314.756 9.94981 314.254 9.4858C313.757 9.02178 313.158 8.78977 312.457 8.78977C311.406 8.78977 310.584 9.30824 309.993 10.3452C309.401 11.3774 309.105 12.8381 309.105 14.7273C309.105 15.9867 309.237 17.0568 309.502 17.9375C309.768 18.8182 310.149 19.4882 310.646 19.9474C311.148 20.4067 311.752 20.6364 312.457 20.6364ZM334.275 11.0909V22H332.599V11.0909H334.275ZM333.622 16.2898V17.8523C333.243 17.9943 332.867 18.1198 332.493 18.2287C332.118 18.3329 331.725 18.4157 331.314 18.4773C330.902 18.5341 330.449 18.5625 329.957 18.5625C328.721 18.5625 327.729 18.2287 326.981 17.5611C326.238 16.8935 325.866 15.892 325.866 14.5568V11.0625H327.542V14.5568C327.542 15.1155 327.649 15.5748 327.862 15.9347C328.075 16.2945 328.364 16.562 328.728 16.7372C329.093 16.9124 329.502 17 329.957 17C330.667 17 331.309 16.9361 331.882 16.8082C332.459 16.6757 333.039 16.5028 333.622 16.2898ZM341.924 22.2273C340.873 22.2273 339.967 21.9953 339.204 21.5312C338.447 21.0625 337.862 20.4091 337.45 19.571C337.043 18.7282 336.839 17.7481 336.839 16.6307C336.839 15.5133 337.043 14.5284 337.45 13.6761C337.862 12.8191 338.435 12.1515 339.169 11.6733C339.907 11.1903 340.769 10.9489 341.754 10.9489C342.322 10.9489 342.883 11.0436 343.437 11.233C343.991 11.4223 344.495 11.7301 344.95 12.1562C345.404 12.5777 345.767 13.1364 346.037 13.8324C346.306 14.5284 346.441 15.3854 346.441 16.4034V17.1136H338.032V15.6648H344.737C344.737 15.0492 344.614 14.5 344.368 14.017C344.126 13.5341 343.78 13.1529 343.331 12.8736C342.886 12.5942 342.36 12.4545 341.754 12.4545C341.086 12.4545 340.509 12.6203 340.021 12.9517C339.538 13.2784 339.166 13.7045 338.906 14.2301C338.645 14.7557 338.515 15.3191 338.515 15.9205V16.8864C338.515 17.7102 338.657 18.4086 338.941 18.9815C339.23 19.5497 339.63 19.983 340.142 20.2812C340.653 20.5748 341.247 20.7216 341.924 20.7216C342.365 20.7216 342.762 20.66 343.118 20.5369C343.477 20.4091 343.788 20.2197 344.048 19.9688C344.308 19.7131 344.51 19.3958 344.652 19.017L346.271 19.4716C346.1 20.0208 345.814 20.5038 345.412 20.9205C345.009 21.3324 344.512 21.6544 343.92 21.8864C343.328 22.1136 342.663 22.2273 341.924 22.2273ZM348.025 22V20.4375H348.423C348.75 20.4375 349.022 20.3736 349.24 20.2457C349.458 20.1132 349.633 19.8835 349.765 19.5568C349.903 19.2254 350.007 18.7661 350.078 18.179C350.154 17.5871 350.208 16.8343 350.241 15.9205L350.44 11.0909H357.713V22H356.037V12.6534H352.031L351.86 16.5455C351.823 17.4403 351.742 18.2287 351.619 18.9105C351.501 19.5876 351.318 20.1558 351.072 20.6151C350.831 21.0743 350.509 21.42 350.106 21.652C349.704 21.884 349.199 22 348.593 22H348.025Z" fill="white"/>
</svg>
