<svg width="132" height="50" viewBox="0 0 132 50" fill="none" xmlns="http://www.w3.org/2000/svg">
<rect width="131.401" height="50" rx="15" fill="white" fill-opacity="0.2"/>
<path d="M45.3916 36.3604C45.3916 37.2829 44.6442 38.0311 43.7217 38.0312C42.7991 38.0312 42.0508 37.2829 42.0508 36.3604V34.6895H27.3506V36.3604C27.3506 37.2829 26.6023 38.0312 25.6797 38.0312C24.7571 38.0312 24.0088 37.2829 24.0088 36.3604V34.6895H23.3408C21.4957 34.6893 20 33.1938 20 31.3486V15.3115C20.0001 13.4665 21.4958 11.9708 23.3408 11.9707H46.0605C47.9055 11.9709 49.4012 13.4666 49.4014 15.3115V31.3486C49.4014 33.1937 47.9056 34.6892 46.0605 34.6895H45.3916V36.3604ZM25.3457 13.9756C23.5005 13.9756 22.0049 15.4712 22.0049 17.3164V29.3438C22.0049 31.189 23.5005 32.6855 25.3457 32.6855H44.0557C45.9008 32.6855 47.3965 31.1889 47.3965 29.3438V17.3164C47.3965 15.4712 45.9008 13.9757 44.0557 13.9756H25.3457Z" fill="#C2C2C2"/>
<path d="M42.0513 15.9785C43.8963 15.9787 45.3921 17.4752 45.3921 19.3203V27.3389C45.3919 29.1838 43.8962 30.6795 42.0513 30.6797H27.3501C25.5051 30.6796 24.0095 29.1839 24.0093 27.3389V19.3203C24.0093 17.4752 25.505 15.9786 27.3501 15.9785H42.0513ZM29.021 19.9893C27.3603 19.9893 26.0142 21.3354 26.0142 22.9961C26.0142 24.6568 27.3603 26.0029 29.021 26.0029C30.3302 26.0029 31.4442 25.1659 31.8569 23.998H35.7026C36.2562 23.998 36.7056 23.5497 36.7056 22.9961C36.7055 22.4426 36.2562 21.9941 35.7026 21.9941H31.8569C31.4442 20.8263 30.3302 19.9893 29.021 19.9893Z" fill="#C2C2C2"/>
<path d="M72.8673 22H71.1059C71.0017 21.4934 70.8195 21.0483 70.559 20.6648C70.3034 20.2812 69.9909 19.9593 69.6215 19.6989C69.257 19.4337 68.8521 19.2348 68.407 19.1023C67.962 18.9697 67.498 18.9034 67.015 18.9034C66.1343 18.9034 65.3365 19.1259 64.6215 19.571C63.9113 20.0161 63.3455 20.6719 62.9241 21.5384C62.5074 22.4048 62.2991 23.4678 62.2991 24.7273C62.2991 25.9867 62.5074 27.0497 62.9241 27.9162C63.3455 28.7827 63.9113 29.4384 64.6215 29.8835C65.3365 30.3286 66.1343 30.5511 67.015 30.5511C67.498 30.5511 67.962 30.4848 68.407 30.3523C68.8521 30.2197 69.257 30.0232 69.6215 29.7628C69.9909 29.4976 70.3034 29.1733 70.559 28.7898C70.8195 28.4015 71.0017 27.9564 71.1059 27.4545H72.8673C72.7347 28.1979 72.4932 28.8632 72.1428 29.4503C71.7925 30.0374 71.3569 30.5369 70.836 30.9489C70.3152 31.3561 69.7304 31.6662 69.0818 31.8793C68.4378 32.0923 67.7489 32.1989 67.015 32.1989C65.7745 32.1989 64.6713 31.8958 63.7053 31.2898C62.7394 30.6837 61.9795 29.822 61.4255 28.7045C60.8715 27.5871 60.5945 26.2614 60.5945 24.7273C60.5945 23.1932 60.8715 21.8674 61.4255 20.75C61.9795 19.6326 62.7394 18.7708 63.7053 18.1648C64.6713 17.5587 65.7745 17.2557 67.015 17.2557C67.7489 17.2557 68.4378 17.3622 69.0818 17.5753C69.7304 17.7884 70.3152 18.1009 70.836 18.5128C71.3569 18.92 71.7925 19.4171 72.1428 20.0043C72.4932 20.5866 72.7347 21.2519 72.8673 22ZM80.0601 32.2273C79.009 32.2273 78.1022 31.9953 77.3399 31.5312C76.5824 31.0625 75.9976 30.4091 75.5857 29.571C75.1785 28.7282 74.9749 27.7481 74.9749 26.6307C74.9749 25.5133 75.1785 24.5284 75.5857 23.6761C75.9976 22.8191 76.5705 22.1515 77.3044 21.6733C78.0431 21.1903 78.9048 20.9489 79.8896 20.9489C80.4578 20.9489 81.0189 21.0436 81.5729 21.233C82.1269 21.4223 82.6311 21.7301 83.0857 22.1562C83.5402 22.5777 83.9024 23.1364 84.1723 23.8324C84.4422 24.5284 84.5771 25.3854 84.5771 26.4034V27.1136H76.1681V25.6648H82.8726C82.8726 25.0492 82.7495 24.5 82.5033 24.017C82.2618 23.5341 81.9162 23.1529 81.4664 22.8736C81.0213 22.5942 80.4957 22.4545 79.8896 22.4545C79.222 22.4545 78.6444 22.6203 78.1567 22.9517C77.6737 23.2784 77.3021 23.7045 77.0416 24.2301C76.7812 24.7557 76.651 25.3191 76.651 25.9205V26.8864C76.651 27.7102 76.7931 28.4086 77.0771 28.9815C77.366 29.5497 77.7661 29.983 78.2774 30.2812C78.7888 30.5748 79.383 30.7216 80.0601 30.7216C80.5004 30.7216 80.8982 30.66 81.2533 30.5369C81.6131 30.4091 81.9233 30.2197 82.1837 29.9688C82.4441 29.7131 82.6453 29.3958 82.7874 29.017L84.4067 29.4716C84.2362 30.0208 83.9498 30.5038 83.5473 30.9205C83.1449 31.3324 82.6477 31.6544 82.0558 31.8864C81.464 32.1136 80.7987 32.2273 80.0601 32.2273ZM88.803 29.5284L94.0587 21.0909H95.9905V32H94.3144V23.5625L89.0871 32H87.1269V21.0909H88.803V29.5284ZM92.9507 17.4545H94.5132C94.5132 18.2216 94.2481 18.849 93.7178 19.3366C93.1875 19.8243 92.4678 20.0682 91.5587 20.0682C90.6638 20.0682 89.9512 19.8243 89.4209 19.3366C88.8953 18.849 88.6325 18.2216 88.6325 17.4545H90.195C90.195 17.8239 90.2968 18.1482 90.5004 18.4276C90.7088 18.7069 91.0615 18.8466 91.5587 18.8466C92.0558 18.8466 92.411 18.7069 92.624 18.4276C92.8418 18.1482 92.9507 17.8239 92.9507 17.4545ZM103.492 35.7216V17.4545H105.168V35.7216H103.492ZM103.492 32.2273C102.754 32.2273 102.081 32.0947 101.475 31.8295C100.869 31.5597 100.348 31.1785 99.9127 30.6861C99.4771 30.1889 99.141 29.5947 98.9042 28.9034C98.6675 28.2121 98.5491 27.4451 98.5491 26.6023C98.5491 25.75 98.6675 24.9782 98.9042 24.2869C99.141 23.5909 99.4771 22.9943 99.9127 22.4972C100.348 22 100.869 21.6188 101.475 21.3537C102.081 21.0838 102.754 20.9489 103.492 20.9489H104.004V32.2273H103.492ZM103.492 30.7216H103.776V22.4545H103.492C102.934 22.4545 102.448 22.5682 102.036 22.7955C101.624 23.018 101.283 23.3234 101.014 23.7116C100.748 24.0952 100.55 24.5355 100.417 25.0327C100.289 25.5298 100.225 26.053 100.225 26.6023C100.225 27.3314 100.341 28.0085 100.573 28.6335C100.805 29.2585 101.163 29.7628 101.646 30.1463C102.129 30.5298 102.744 30.7216 103.492 30.7216ZM105.168 32.2273H104.657V20.9489H105.168C105.907 20.9489 106.579 21.0838 107.185 21.3537C107.792 21.6188 108.312 22 108.748 22.4972C109.184 22.9943 109.52 23.5909 109.756 24.2869C109.993 24.9782 110.112 25.75 110.112 26.6023C110.112 27.4451 109.993 28.2121 109.756 28.9034C109.52 29.5947 109.184 30.1889 108.748 30.6861C108.312 31.1785 107.792 31.5597 107.185 31.8295C106.579 32.0947 105.907 32.2273 105.168 32.2273ZM105.168 30.7216C105.732 30.7216 106.217 30.6127 106.624 30.3949C107.036 30.1723 107.375 29.8693 107.64 29.4858C107.91 29.0975 108.109 28.6572 108.237 28.1648C108.369 27.6676 108.435 27.1468 108.435 26.6023C108.435 25.8731 108.319 25.1937 108.087 24.5639C107.855 23.9342 107.498 23.4252 107.015 23.0369C106.532 22.6487 105.917 22.4545 105.168 22.4545H104.884V30.7216H105.168Z" fill="#C2C2C2"/>
</svg>
