<svg width="44" height="39" viewBox="0 0 44 39" fill="none" xmlns="http://www.w3.org/2000/svg">
<path fill-rule="evenodd" clip-rule="evenodd" d="M0 5C0 2.23858 2.23858 0 5 0H39C41.7614 0 44 2.23858 44 5V29C44 31.7614 41.7614 34 39 34H38V36.5C38 37.8807 36.8807 39 35.5 39C34.1193 39 33 37.8807 33 36.5V34H11V36.5C11 37.8807 9.88071 39 8.5 39C7.11929 39 6 37.8807 6 36.5V34H5C2.23858 34 0 31.7614 0 29V5ZM3 8C3 5.23858 5.23858 3 8 3H36C38.7614 3 41 5.23858 41 8V26C41 28.7614 38.7614 31 36 31H8C5.23858 31 3 28.7614 3 26V8Z" fill="#C2C2C2"/>
<path fill-rule="evenodd" clip-rule="evenodd" d="M11 6C8.23858 6 6 8.23858 6 11V23C6 25.7614 8.23858 28 11 28H33C35.7614 28 38 25.7614 38 23V11C38 8.23858 35.7614 6 33 6H11ZM9 16.5C9 14.0147 11.0147 12 13.5 12C15.4593 12 17.1262 13.2522 17.7439 15H23.5C24.3284 15 25 15.6716 25 16.5C25 17.3284 24.3284 18 23.5 18H17.7439C17.1262 19.7478 15.4593 21 13.5 21C11.0147 21 9 18.9853 9 16.5Z" fill="#C2C2C2"/>
</svg>
