<svg width="675" height="50" viewBox="0 0 675 50" fill="none" xmlns="http://www.w3.org/2000/svg">
<rect width="149" height="50" rx="15" fill="white" fill-opacity="0.2"/>
<path d="M43.333 12C46.4626 12 49 14.5374 49 17.667C48.9998 20.7965 46.4625 23.333 43.333 23.333H25.667C22.5375 23.333 20.0002 20.7965 20 17.667C20 14.5374 22.5374 12 25.667 12H43.333ZM25.6211 16C24.7007 16.0001 23.9541 16.7466 23.9541 17.667C23.9543 18.5873 24.7008 19.3329 25.6211 19.333H43.3789C44.2992 19.3329 45.0457 18.5873 45.0459 17.667C45.0459 16.7466 44.2993 16.0001 43.3789 16H25.6211Z" fill="#C2C2C2"/>
<path d="M37.4541 25.334C38.0064 25.334 38.4541 25.7817 38.4541 26.334L38.4541 34.0461C38.4541 36.2301 36.6836 38.0007 34.4996 38.0007V38.0007C32.3155 38.0007 30.545 36.2301 30.545 34.0461L30.545 26.334C30.545 25.7817 30.9927 25.334 31.545 25.334L37.4541 25.334Z" fill="#C2C2C2"/>
<path d="M49 33.7168C49 36.0828 47.0818 38.0009 44.7158 38.001C42.3498 38.001 40.4316 36.0828 40.4316 33.7168V26.334C40.4316 25.7817 40.8794 25.334 41.4316 25.334H44.2061C45.023 25.334 45.8024 25.1328 46.5145 24.7678C47.4066 24.3106 49 24.8775 49 25.88V33.7168Z" fill="#C2C2C2"/>
<path d="M20 25.88C20 24.8776 21.593 24.3107 22.4851 24.7679C23.1971 25.1328 23.9762 25.3339 24.793 25.334H27.5684C28.1206 25.334 28.5684 25.7817 28.5684 26.334V33.71C28.5684 36.076 26.6502 37.9941 24.2842 37.9941C21.9181 37.9941 20 36.076 20 33.71V25.88Z" fill="#C2C2C2"/>
<path d="M69.3125 32L64.3125 25.3239H62.5227V32H60.7614V17.4545H62.5227V23.7614H63.2898L69.1136 17.4545H71.2159L65.3352 23.8466L71.4148 32H69.3125ZM73.7425 36.0909C73.4585 36.0909 73.2051 36.0672 72.9826 36.0199C72.7601 35.9773 72.6062 35.9347 72.521 35.892L72.9471 34.4148C73.3543 34.5189 73.7141 34.5568 74.0266 34.5284C74.3391 34.5 74.6161 34.3603 74.8576 34.1094C75.1038 33.8632 75.3287 33.4631 75.5323 32.9091L75.8448 32.0568L71.8107 21.0909H73.6289L76.6403 29.7841H76.7539L79.7653 21.0909H81.5835L76.9528 33.5909C76.7444 34.1544 76.4864 34.6207 76.1786 34.9901C75.8709 35.3641 75.5134 35.6411 75.1062 35.821C74.7037 36.0009 74.2492 36.0909 73.7425 36.0909ZM83.7958 32V21.0909H92.3754V32H90.6992V22.6534H85.4719V32H83.7958ZM100.01 32.2273C98.9592 32.2273 98.0524 31.9953 97.2901 31.5312C96.5326 31.0625 95.9478 30.4091 95.5359 29.571C95.1287 28.7282 94.9251 27.7481 94.9251 26.6307C94.9251 25.5133 95.1287 24.5284 95.5359 23.6761C95.9478 22.8191 96.5207 22.1515 97.2546 21.6733C97.9933 21.1903 98.855 20.9489 99.8398 20.9489C100.408 20.9489 100.969 21.0436 101.523 21.233C102.077 21.4223 102.581 21.7301 103.036 22.1562C103.49 22.5777 103.853 23.1364 104.123 23.8324C104.392 24.5284 104.527 25.3854 104.527 26.4034V27.1136H96.1183V25.6648H102.823C102.823 25.0492 102.7 24.5 102.453 24.017C102.212 23.5341 101.866 23.1529 101.417 22.8736C100.971 22.5942 100.446 22.4545 99.8398 22.4545C99.1722 22.4545 98.5946 22.6203 98.1069 22.9517C97.6239 23.2784 97.2522 23.7045 96.9918 24.2301C96.7314 24.7557 96.6012 25.3191 96.6012 25.9205V26.8864C96.6012 27.7102 96.7433 28.4086 97.0273 28.9815C97.3162 29.5497 97.7163 29.983 98.2276 30.2812C98.739 30.5748 99.3332 30.7216 100.01 30.7216C100.451 30.7216 100.848 30.66 101.203 30.5369C101.563 30.4091 101.873 30.2197 102.134 29.9688C102.394 29.7131 102.596 29.3958 102.738 29.017L104.357 29.4716C104.186 30.0208 103.9 30.5038 103.498 30.9205C103.095 31.3324 102.598 31.6544 102.006 31.8864C101.414 32.1136 100.749 32.2273 100.01 32.2273ZM106.111 32V30.4375H106.509C106.836 30.4375 107.108 30.3736 107.326 30.2457C107.543 30.1132 107.719 29.8835 107.851 29.5568C107.989 29.2254 108.093 28.7661 108.164 28.179C108.239 27.5871 108.294 26.8343 108.327 25.9205L108.526 21.0909H115.799V32H114.123V22.6534H110.117L109.946 26.5455C109.908 27.4403 109.828 28.2287 109.705 28.9105C109.587 29.5876 109.404 30.1558 109.158 30.6151C108.917 31.0743 108.595 31.42 108.192 31.652C107.79 31.884 107.285 32 106.679 32H106.111ZM120.323 25.0398H123.448C124.726 25.0398 125.704 25.3641 126.381 26.0128C127.058 26.6615 127.397 27.483 127.397 28.4773C127.397 29.1307 127.245 29.7249 126.942 30.2599C126.639 30.7902 126.194 31.214 125.607 31.5312C125.02 31.8438 124.3 32 123.448 32H118.874V21.0909H120.55V30.4375H123.448C124.111 30.4375 124.655 30.2623 125.081 29.9119C125.507 29.5616 125.721 29.1117 125.721 28.5625C125.721 27.9848 125.507 27.5137 125.081 27.1491C124.655 26.7846 124.111 26.6023 123.448 26.6023H120.323V25.0398Z" fill="#C2C2C2"/>
<rect x="164" width="194.333" height="50" rx="15" fill="white" fill-opacity="0.2"/>
<path d="M189.111 12C190.952 12 192.445 13.4922 192.445 15.333V34.667C192.445 36.5078 190.952 38 189.111 38H187.334C185.493 38 184.001 36.5078 184.001 34.667V15.333C184.001 13.4922 185.493 12 187.334 12H189.111ZM186.778 24C186.226 24 185.778 24.4477 185.778 25C185.778 25.5523 186.226 26 186.778 26H189.444C189.997 26 190.444 25.5523 190.444 25C190.444 24.4477 189.997 24 189.444 24H186.778Z" fill="#C2C2C2"/>
<path d="M199.557 12C201.397 12 202.889 13.4922 202.89 15.333V34.667C202.889 36.5078 201.397 38 199.557 38H197.779C195.938 38 194.445 36.5078 194.445 34.667V15.333C194.445 13.4922 195.938 12 197.779 12H199.557ZM197.224 24C196.671 24 196.224 24.4477 196.224 25C196.224 25.5521 196.671 25.9997 197.223 26H199.89C200.442 26 200.89 25.5523 200.89 25C200.89 24.4477 200.442 24 199.89 24H197.224Z" fill="#C2C2C2"/>
<path d="M210.001 12C211.842 12 213.335 13.4922 213.335 15.333V34.667C213.335 36.5078 211.842 38 210.001 38H208.224C206.383 38 204.891 36.5078 204.891 34.667V15.333C204.891 13.4922 206.383 12 208.224 12H210.001ZM207.668 24C207.116 24 206.668 24.4477 206.668 25C206.668 25.5523 207.116 26 207.668 26H210.335C210.887 25.9997 211.335 25.5521 211.335 25C211.335 24.4479 210.887 24.0003 210.335 24H207.668Z" fill="#C2C2C2"/>
<path d="M225.094 32V17.4545H230.009C231.15 17.4545 232.083 17.6605 232.807 18.0724C233.537 18.4796 234.076 19.0312 234.427 19.7273C234.777 20.4233 234.952 21.1998 234.952 22.0568C234.952 22.9138 234.777 23.6927 234.427 24.3935C234.081 25.0942 233.546 25.6529 232.822 26.0696C232.097 26.4815 231.169 26.6875 230.038 26.6875H226.515V25.125H229.981C230.762 25.125 231.389 24.9901 231.863 24.7202C232.336 24.4503 232.68 24.0857 232.893 23.6264C233.11 23.1624 233.219 22.6392 233.219 22.0568C233.219 21.4744 233.11 20.9536 232.893 20.4943C232.68 20.035 232.334 19.6752 231.856 19.4148C231.378 19.1496 230.743 19.017 229.952 19.017H226.856V32H225.094ZM240.773 32.2557C240.081 32.2557 239.454 32.1255 238.891 31.8651C238.327 31.5999 237.88 31.2188 237.548 30.7216C237.217 30.2197 237.051 29.6136 237.051 28.9034C237.051 28.2784 237.174 27.7718 237.42 27.3835C237.667 26.9905 237.996 26.6828 238.408 26.4602C238.82 26.2377 239.274 26.072 239.771 25.9631C240.273 25.8494 240.777 25.7595 241.284 25.6932C241.947 25.608 242.484 25.544 242.896 25.5014C243.313 25.4541 243.616 25.3759 243.805 25.267C243.999 25.1581 244.097 24.9687 244.097 24.6989V24.642C244.097 23.9413 243.905 23.3968 243.521 23.0085C243.142 22.6203 242.567 22.4261 241.795 22.4261C240.995 22.4261 240.368 22.6013 239.913 22.9517C239.459 23.3021 239.139 23.6761 238.954 24.0739L237.364 23.5057C237.648 22.8428 238.026 22.3267 238.5 21.9574C238.978 21.5833 239.499 21.3229 240.062 21.1761C240.631 21.0246 241.189 20.9489 241.739 20.9489C242.089 20.9489 242.491 20.9915 242.946 21.0767C243.405 21.1572 243.848 21.3253 244.274 21.581C244.705 21.8366 245.062 22.2225 245.347 22.7386C245.631 23.2547 245.773 23.946 245.773 24.8125V32H244.097V30.5227H244.011C243.898 30.7595 243.708 31.0128 243.443 31.2827C243.178 31.5526 242.825 31.7822 242.385 31.9716C241.945 32.161 241.407 32.2557 240.773 32.2557ZM241.028 30.75C241.691 30.75 242.25 30.6198 242.704 30.3594C243.164 30.099 243.509 29.7628 243.741 29.3509C243.978 28.9389 244.097 28.5057 244.097 28.0511V26.517C244.025 26.6023 243.869 26.6804 243.628 26.7514C243.391 26.8177 243.116 26.8769 242.804 26.929C242.496 26.9763 242.195 27.0189 241.902 27.0568C241.613 27.09 241.379 27.1184 241.199 27.142C240.763 27.1989 240.356 27.2912 239.977 27.419C239.603 27.5421 239.3 27.7292 239.068 27.9801C238.841 28.2263 238.727 28.5625 238.727 28.9886C238.727 29.571 238.943 30.0114 239.373 30.3097C239.809 30.6032 240.361 30.75 241.028 30.75ZM248.15 29.2159H249.94C249.978 29.7083 250.2 30.0824 250.608 30.3381C251.019 30.5938 251.554 30.7216 252.213 30.7216C252.885 30.7216 253.46 30.5843 253.938 30.3097C254.417 30.0303 254.656 29.5805 254.656 28.9602C254.656 28.5956 254.566 28.2784 254.386 28.0085C254.206 27.7339 253.953 27.5208 253.626 27.3693C253.299 27.2178 252.913 27.142 252.468 27.142H250.593V25.6364H252.468C253.136 25.6364 253.628 25.4848 253.946 25.1818C254.268 24.8788 254.429 24.5 254.429 24.0455C254.429 23.5578 254.256 23.1671 253.91 22.8736C253.564 22.5753 253.074 22.4261 252.44 22.4261C251.801 22.4261 251.268 22.5705 250.842 22.8594C250.416 23.1435 250.191 23.5104 250.167 23.9602H248.406C248.425 23.3731 248.605 22.8546 248.946 22.4048C249.286 21.9503 249.751 21.5952 250.338 21.3395C250.925 21.0791 251.597 20.9489 252.355 20.9489C253.122 20.9489 253.787 21.0838 254.35 21.3537C254.919 21.6188 255.357 21.9811 255.664 22.4403C255.977 22.8949 256.133 23.411 256.133 23.9886C256.133 24.6042 255.96 25.1013 255.615 25.4801C255.269 25.8589 254.836 26.1288 254.315 26.2898V26.4034C254.727 26.4318 255.084 26.5644 255.387 26.8011C255.695 27.0331 255.934 27.3385 256.105 27.7173C256.275 28.0914 256.36 28.5057 256.36 28.9602C256.36 29.6231 256.183 30.2008 255.828 30.6932C255.473 31.1809 254.985 31.5597 254.365 31.8295C253.744 32.0947 253.036 32.2273 252.241 32.2273C251.469 32.2273 250.778 32.1018 250.167 31.8509C249.556 31.5952 249.071 31.2424 248.711 30.7926C248.356 30.3381 248.169 29.8125 248.15 29.2159ZM257.55 35.125V30.4375H258.459C258.682 30.2055 258.873 29.9545 259.034 29.6847C259.195 29.4148 259.335 29.0952 259.453 28.7259C259.576 28.3518 259.681 27.8973 259.766 27.3622C259.851 26.8224 259.927 26.1714 259.993 25.4091L260.362 21.0909H267.294V30.4375H268.97V35.125H267.294V32H259.226V35.125H257.55ZM260.362 30.4375H265.618V22.6534H261.925L261.641 25.4091C261.523 26.5502 261.376 27.5469 261.201 28.3991C261.025 29.2514 260.746 29.9309 260.362 30.4375ZM275.769 32.2273C274.718 32.2273 273.811 31.9953 273.049 31.5312C272.291 31.0625 271.707 30.4091 271.295 29.571C270.887 28.7282 270.684 27.7481 270.684 26.6307C270.684 25.5133 270.887 24.5284 271.295 23.6761C271.707 22.8191 272.28 22.1515 273.013 21.6733C273.752 21.1903 274.614 20.9489 275.599 20.9489C276.167 20.9489 276.728 21.0436 277.282 21.233C277.836 21.4223 278.34 21.7301 278.795 22.1562C279.249 22.5777 279.611 23.1364 279.881 23.8324C280.151 24.5284 280.286 25.3854 280.286 26.4034V27.1136H271.877V25.6648H278.582C278.582 25.0492 278.458 24.5 278.212 24.017C277.971 23.5341 277.625 23.1529 277.175 22.8736C276.73 22.5942 276.205 22.4545 275.599 22.4545C274.931 22.4545 274.353 22.6203 273.866 22.9517C273.383 23.2784 273.011 23.7045 272.751 24.2301C272.49 24.7557 272.36 25.3191 272.36 25.9205V26.8864C272.36 27.7102 272.502 28.4086 272.786 28.9815C273.075 29.5497 273.475 29.983 273.986 30.2812C274.498 30.5748 275.092 30.7216 275.769 30.7216C276.209 30.7216 276.607 30.66 276.962 30.5369C277.322 30.4091 277.632 30.2197 277.893 29.9688C278.153 29.7131 278.354 29.3958 278.496 29.017L280.116 29.4716C279.945 30.0208 279.659 30.5038 279.256 30.9205C278.854 31.3324 278.357 31.6544 277.765 31.8864C277.173 32.1136 276.508 32.2273 275.769 32.2273ZM282.836 32V21.0909H287.296C288.47 21.0909 289.403 21.3561 290.094 21.8864C290.786 22.4167 291.131 23.1174 291.131 23.9886C291.131 24.6515 290.935 25.1652 290.542 25.5298C290.149 25.8897 289.645 26.1335 289.029 26.2614C289.431 26.3182 289.822 26.4602 290.201 26.6875C290.584 26.9148 290.902 27.2273 291.153 27.625C291.404 28.018 291.529 28.5009 291.529 29.0739C291.529 29.6326 291.387 30.1321 291.103 30.5724C290.819 31.0128 290.412 31.3608 289.881 31.6165C289.351 31.8722 288.717 32 287.978 32H282.836ZM284.427 30.4659H287.978C288.556 30.4659 289.008 30.3286 289.334 30.054C289.661 29.7794 289.824 29.4053 289.824 28.9318C289.824 28.3684 289.661 27.9257 289.334 27.6037C289.008 27.277 288.556 27.1136 287.978 27.1136H284.427V30.4659ZM284.427 25.6648H287.296C287.746 25.6648 288.132 25.6032 288.454 25.4801C288.776 25.3523 289.022 25.1723 289.192 24.9403C289.368 24.7036 289.455 24.4242 289.455 24.1023C289.455 23.643 289.263 23.2831 288.88 23.0227C288.496 22.7576 287.968 22.625 287.296 22.625H284.427V25.6648ZM297.277 32.2557C296.585 32.2557 295.958 32.1255 295.394 31.8651C294.831 31.5999 294.384 31.2188 294.052 30.7216C293.721 30.2197 293.555 29.6136 293.555 28.9034C293.555 28.2784 293.678 27.7718 293.924 27.3835C294.17 26.9905 294.5 26.6828 294.911 26.4602C295.323 26.2377 295.778 26.072 296.275 25.9631C296.777 25.8494 297.281 25.7595 297.788 25.6932C298.451 25.608 298.988 25.544 299.4 25.5014C299.817 25.4541 300.12 25.3759 300.309 25.267C300.503 25.1581 300.6 24.9687 300.6 24.6989V24.642C300.6 23.9413 300.409 23.3968 300.025 23.0085C299.646 22.6203 299.071 22.4261 298.299 22.4261C297.499 22.4261 296.872 22.6013 296.417 22.9517C295.963 23.3021 295.643 23.6761 295.458 24.0739L293.867 23.5057C294.152 22.8428 294.53 22.3267 295.004 21.9574C295.482 21.5833 296.003 21.3229 296.566 21.1761C297.134 21.0246 297.693 20.9489 298.242 20.9489C298.593 20.9489 298.995 20.9915 299.45 21.0767C299.909 21.1572 300.352 21.3253 300.778 21.581C301.209 21.8366 301.566 22.2225 301.85 22.7386C302.134 23.2547 302.277 23.946 302.277 24.8125V32H300.6V30.5227H300.515C300.402 30.7595 300.212 31.0128 299.947 31.2827C299.682 31.5526 299.329 31.7822 298.889 31.9716C298.448 32.161 297.911 32.2557 297.277 32.2557ZM297.532 30.75C298.195 30.75 298.754 30.6198 299.208 30.3594C299.668 30.099 300.013 29.7628 300.245 29.3509C300.482 28.9389 300.6 28.5057 300.6 28.0511V26.517C300.529 26.6023 300.373 26.6804 300.132 26.7514C299.895 26.8177 299.62 26.8769 299.308 26.929C299 26.9763 298.699 27.0189 298.406 27.0568C298.117 27.09 297.883 27.1184 297.703 27.142C297.267 27.1989 296.86 27.2912 296.481 27.419C296.107 27.5421 295.804 27.7292 295.572 27.9801C295.345 28.2263 295.231 28.5625 295.231 28.9886C295.231 29.571 295.447 30.0114 295.877 30.3097C296.313 30.6032 296.865 30.75 297.532 30.75ZM304.37 32V30.4375H304.768C305.094 30.4375 305.367 30.3736 305.584 30.2457C305.802 30.1132 305.977 29.8835 306.11 29.5568C306.247 29.2254 306.351 28.7661 306.422 28.179C306.498 27.5871 306.553 26.8343 306.586 25.9205L306.785 21.0909H314.057V32H312.381V22.6534H308.376L308.205 26.5455C308.167 27.4403 308.087 28.2287 307.964 28.9105C307.845 29.5876 307.663 30.1558 307.417 30.6151C307.175 31.0743 306.853 31.42 306.451 31.652C306.048 31.884 305.544 32 304.938 32H304.37ZM317.133 32V21.0909H318.809V25.8352H319.917L323.837 21.0909H325.996L321.593 26.3466L326.053 32H323.894L320.315 27.3977H318.809V32H317.133ZM331.085 32.2557C330.394 32.2557 329.766 32.1255 329.203 31.8651C328.64 31.5999 328.192 31.2188 327.861 30.7216C327.529 30.2197 327.364 29.6136 327.364 28.9034C327.364 28.2784 327.487 27.7718 327.733 27.3835C327.979 26.9905 328.308 26.6828 328.72 26.4602C329.132 26.2377 329.587 26.072 330.084 25.9631C330.586 25.8494 331.09 25.7595 331.597 25.6932C332.259 25.608 332.797 25.544 333.209 25.5014C333.625 25.4541 333.928 25.3759 334.118 25.267C334.312 25.1581 334.409 24.9687 334.409 24.6989V24.642C334.409 23.9413 334.217 23.3968 333.834 23.0085C333.455 22.6203 332.88 22.4261 332.108 22.4261C331.308 22.4261 330.68 22.6013 330.226 22.9517C329.771 23.3021 329.452 23.6761 329.267 24.0739L327.676 23.5057C327.96 22.8428 328.339 22.3267 328.812 21.9574C329.291 21.5833 329.811 21.3229 330.375 21.1761C330.943 21.0246 331.502 20.9489 332.051 20.9489C332.401 20.9489 332.804 20.9915 333.258 21.0767C333.718 21.1572 334.16 21.3253 334.587 21.581C335.017 21.8366 335.375 22.2225 335.659 22.7386C335.943 23.2547 336.085 23.946 336.085 24.8125V32H334.409V30.5227H334.324C334.21 30.7595 334.021 31.0128 333.756 31.2827C333.49 31.5526 333.138 31.7822 332.697 31.9716C332.257 32.161 331.72 32.2557 331.085 32.2557ZM331.341 30.75C332.004 30.75 332.562 30.6198 333.017 30.3594C333.476 30.099 333.822 29.7628 334.054 29.3509C334.291 28.9389 334.409 28.5057 334.409 28.0511V26.517C334.338 26.6023 334.182 26.6804 333.94 26.7514C333.704 26.8177 333.429 26.8769 333.116 26.929C332.809 26.9763 332.508 27.0189 332.214 27.0568C331.926 27.09 331.691 27.1184 331.511 27.142C331.076 27.1989 330.668 27.2912 330.29 27.419C329.916 27.5421 329.613 27.7292 329.381 27.9801C329.153 28.2263 329.04 28.5625 329.04 28.9886C329.04 29.571 329.255 30.0114 329.686 30.3097C330.122 30.6032 330.673 30.75 331.341 30.75Z" fill="#C2C2C2"/>
<rect x="373.333" width="109.37" height="50" rx="15" fill="white" fill-opacity="0.2"/>
<rect x="404.133" y="26.9551" width="6.85447" height="2" rx="1" transform="rotate(-45 404.133 26.9551)" fill="#C2C2C2"/>
<rect x="393.333" y="12" width="3.33333" height="26" rx="1.66667" fill="#C2C2C2"/>
<path d="M406.012 18.4276C407.84 18.6445 407.9 20.9123 406.598 22.2141L404.241 24.5711C402.939 25.8728 400.672 25.8132 400.455 23.985C400.28 22.5159 400.757 20.9843 401.884 19.857C403.011 18.7298 404.543 18.2533 406.012 18.4276Z" fill="#C2C2C2"/>
<rect x="392.666" y="13.6895" width="3.33333" height="9.33333" rx="1.66667" transform="rotate(-45 392.666 13.6895)" fill="#C2C2C2"/>
<path d="M420.214 35.5227V30.4375H421.152C421.474 30.1439 421.777 29.7296 422.061 29.1946C422.35 28.6548 422.594 27.9351 422.793 27.0355C422.996 26.1312 423.131 24.983 423.197 23.5909L423.51 17.4545H432.146V30.4375H433.822V35.4943H432.146V32H421.891V35.5227H420.214ZM423.254 30.4375H430.47V19.017H425.101L424.874 23.5909C424.817 24.6515 424.717 25.6127 424.575 26.4744C424.433 27.3314 424.251 28.0914 424.028 28.7543C423.806 29.4124 423.548 29.9735 423.254 30.4375ZM437.336 36.0909C437.052 36.0909 436.799 36.0672 436.576 36.0199C436.354 35.9773 436.2 35.9347 436.115 35.892L436.541 34.4148C436.948 34.5189 437.308 34.5568 437.62 34.5284C437.933 34.5 438.21 34.3603 438.451 34.1094C438.698 33.8632 438.922 33.4631 439.126 32.9091L439.439 32.0568L435.404 21.0909H437.223L440.234 29.7841H440.348L443.359 21.0909H445.177L440.547 33.5909C440.338 34.1544 440.08 34.6207 439.772 34.9901C439.465 35.3641 439.107 35.6411 438.7 35.821C438.297 36.0009 437.843 36.0909 437.336 36.0909ZM447.39 21.0909H449.066V30.4375H453.185V21.0909H454.861V30.4375H458.98V21.0909H460.657V32H447.39V21.0909Z" fill="#C2C2C2"/>
<rect x="497.703" width="125.48" height="50" rx="15" fill="white" fill-opacity="0.2"/>
<circle cx="530.1" cy="33.8739" r="2.1512" fill="#C2C2C2"/>
<path fill-rule="evenodd" clip-rule="evenodd" d="M542.885 20.2903C543.328 19.7446 543.276 18.9448 542.733 18.4981C539.297 15.6717 534.897 13.9746 530.101 13.9746C525.637 13.9746 521.518 15.444 518.198 17.9253C517.633 18.3475 517.546 19.1469 517.967 19.7127C518.431 20.3373 519.327 20.4306 519.955 19.9712C522.8 17.8916 526.307 16.6641 530.101 16.6641C534.183 16.6641 537.933 18.0853 540.884 20.46C541.491 20.9492 542.393 20.8958 542.885 20.2903Z" fill="#C2C2C2"/>
<path fill-rule="evenodd" clip-rule="evenodd" d="M535.484 29.3977C535.879 28.9112 535.873 28.2014 535.4 27.7894C534.08 26.6384 532.382 25.9101 530.517 25.8154L530.102 25.8047C528.214 25.8047 526.477 26.4534 525.102 27.5402C524.606 27.9323 524.569 28.6482 524.949 29.154C525.451 29.8235 526.454 29.8325 527.154 29.3732C528.001 28.8174 529.013 28.4941 530.102 28.4941C531.283 28.4942 532.375 28.8749 533.262 29.5203C533.942 30.0151 534.954 30.0506 535.484 29.3977Z" fill="#C2C2C2"/>
<path fill-rule="evenodd" clip-rule="evenodd" d="M539.17 24.864C539.601 24.3331 539.563 23.5558 539.037 23.1184C536.614 21.1028 533.499 19.8906 530.101 19.8906C526.924 19.8907 523.995 20.9501 521.647 22.7349C521.1 23.1504 521.03 23.9291 521.442 24.4785C521.919 25.1143 522.841 25.1863 523.485 24.7202C525.344 23.3738 527.63 22.5802 530.101 22.5801C532.751 22.5801 535.188 23.4928 537.115 25.0211C537.739 25.5165 538.667 25.4827 539.17 24.864Z" fill="#C2C2C2"/>
<path d="M557.586 32L553.609 17.4545H555.399L558.438 29.3011H558.58L561.677 17.4545H563.666L566.762 29.3011H566.904L569.944 17.4545H571.734L567.756 32H565.938L562.728 20.4091H562.614L559.404 32H557.586ZM573.701 32V21.0909H575.377V32H573.701ZM574.553 19.2727C574.227 19.2727 573.945 19.1615 573.708 18.9389C573.476 18.7164 573.36 18.4489 573.36 18.1364C573.36 17.8239 573.476 17.5563 573.708 17.3338C573.945 17.1113 574.227 17 574.553 17C574.88 17 575.159 17.1113 575.391 17.3338C575.628 17.5563 575.747 17.8239 575.747 18.1364C575.747 18.4489 575.628 18.7164 575.391 18.9389C575.159 19.1615 574.88 19.2727 574.553 19.2727ZM584.697 24.983V26.5455H578.334V24.983H584.697ZM587.874 32V17.4545H596.595V19.017H589.635V23.9318H595.942V25.4943H589.635V32H587.874ZM599.385 32V21.0909H601.061V32H599.385ZM600.237 19.2727C599.91 19.2727 599.629 19.1615 599.392 18.9389C599.16 18.7164 599.044 18.4489 599.044 18.1364C599.044 17.8239 599.16 17.5563 599.392 17.3338C599.629 17.1113 599.91 17 600.237 17C600.564 17 600.843 17.1113 601.075 17.3338C601.312 17.5563 601.43 17.8239 601.43 18.1364C601.43 18.4489 601.312 18.7164 601.075 18.9389C600.843 19.1615 600.564 19.2727 600.237 19.2727Z" fill="#C2C2C2"/>
</svg>
