<svg width="43" height="34" viewBox="0 0 43 34" fill="none" xmlns="http://www.w3.org/2000/svg">
<path fill-rule="evenodd" clip-rule="evenodd" d="M0.0945275 5.91045C-0.474709 2.83657 1.8848 0 5.01094 0H24.9891C28.1152 0 30.4747 2.83657 29.9055 5.91045L26.7573 22.9104C26.3184 25.2804 24.2512 27 21.8409 27H8.15908C5.74879 27 3.68156 25.2804 3.24268 22.9104L0.0945275 5.91045ZM0 32C0 30.8954 0.895431 30 2 30H28C29.1046 30 30 30.8954 30 32C30 33.1046 29.1046 34 28 34H2C0.89543 34 0 33.1046 0 32ZM31.8041 8.17801C32.2059 5.76707 34.2919 4 36.7361 4H37.9994C40.7609 4 42.9995 6.23858 42.9995 9V18.2046C42.9995 21.2578 40.2869 23.5981 37.2667 23.1506L34.5366 22.7461C31.77 22.3363 29.8776 19.7368 30.3374 16.9781L31.8041 8.17801ZM35.896 9.26712C36.0393 8.5312 36.684 8 37.4337 8C38.2989 8 39.0003 8.7014 39.0003 9.56662V17.1917C39.0003 18.6445 37.6712 19.7342 36.2466 19.4492C35.0042 19.2008 34.196 17.9952 34.4383 16.7515L35.896 9.26712Z" fill="#C2C2C2"/>
</svg>
