<svg width="50" height="50" viewBox="0 0 50 50" fill="none" xmlns="http://www.w3.org/2000/svg">
<path d="M25 50C38.8071 50 50 38.8071 50 25C50 11.1929 38.8071 0 25 0C11.1929 0 0 11.1929 0 25C0 38.8071 11.1929 50 25 50Z" fill="#2AABEE"/>
<path fill-rule="evenodd" clip-rule="evenodd" d="M11.3161 24.7369C18.6041 21.5616 23.464 19.4683 25.8956 18.4569C32.8383 15.5692 34.281 15.0675 35.2213 15.051C35.4281 15.0473 35.8905 15.0986 36.19 15.3416C36.443 15.5469 36.5125 15.8241 36.5458 16.0187C36.5791 16.2132 36.6206 16.6565 36.5876 17.0028C36.2114 20.9559 34.5835 30.549 33.7553 34.9765C33.4048 36.85 32.7148 37.4782 32.0467 37.5396C30.5949 37.6732 29.4925 36.5802 28.0864 35.6584C25.8861 34.2161 24.643 33.3182 22.5072 31.9108C20.0389 30.2842 21.639 29.3902 23.0457 27.9292C23.4138 27.5469 29.8105 21.7286 29.9343 21.2008C29.9498 21.1348 29.9641 20.8887 29.8179 20.7588C29.6718 20.6289 29.456 20.6733 29.3003 20.7087C29.0797 20.7587 25.5646 23.0821 18.7552 27.6786C17.7575 28.3637 16.8537 28.6975 16.044 28.68C15.1514 28.6608 13.4343 28.1753 12.1579 27.7604C10.5923 27.2515 9.34793 26.9824 9.45628 26.1181C9.51272 25.6679 10.1327 25.2075 11.3161 24.7369Z" fill="white"/>
</svg>
