<svg width="50" height="50" viewBox="0 0 50 50" fill="none" xmlns="http://www.w3.org/2000/svg">
<path d="M50 25C50 11.1929 38.8071 0 25 0C11.1929 0 0 11.1929 0 25C0 38.8071 11.1929 50 25 50C38.8071 50 50 38.8071 50 25Z" fill="#25D366"/>
<path fill-rule="evenodd" clip-rule="evenodd" d="M31.6996 27.2678C31.3635 27.0996 29.7108 26.2864 29.4026 26.1741C29.0945 26.0619 28.8704 26.006 28.6463 26.3424C28.4222 26.6788 27.778 27.4361 27.5819 27.6605C27.3858 27.8848 27.1897 27.913 26.8536 27.7446C26.5174 27.5763 25.4343 27.2214 24.1503 26.0761C23.151 25.1847 22.4763 24.0839 22.2803 23.7474C22.0842 23.4108 22.2593 23.2289 22.4276 23.0613C22.5789 22.9107 22.7638 22.6687 22.9319 22.4724C23.1 22.2761 23.156 22.1358 23.268 21.9116C23.3801 21.6872 23.3241 21.4909 23.24 21.3227C23.156 21.1545 22.4837 19.4998 22.2036 18.8266C21.9307 18.1712 21.6536 18.26 21.4472 18.2496C21.2514 18.2398 21.027 18.2378 20.803 18.2378C20.5789 18.2378 20.2146 18.3219 19.9065 18.6584C19.5984 18.9949 18.73 19.8082 18.73 21.4628C18.73 23.1175 19.9345 24.7158 20.1026 24.9402C20.2707 25.1646 22.473 28.56 25.8452 30.0161C26.6472 30.3625 27.2733 30.5693 27.7615 30.7242C28.5668 30.9801 29.2996 30.9439 29.8788 30.8574C30.5247 30.7609 31.8677 30.0442 32.1479 29.2591C32.4279 28.4737 32.4279 27.8006 32.3439 27.6605C32.2599 27.5202 32.0358 27.4361 31.6996 27.2678ZM25.5661 35.6426H25.5615C23.555 35.6418 21.587 35.1027 19.8702 34.084L19.4618 33.8416L15.2297 34.9518L16.3593 30.8254L16.0935 30.4023C14.9741 28.622 14.3829 26.5643 14.3838 24.4514C14.3862 18.2862 19.4025 13.2702 25.5705 13.2702C28.5573 13.2713 31.3648 14.4359 33.4761 16.5496C35.5872 18.6631 36.7492 21.4726 36.7481 24.4605C36.7456 30.6262 31.7293 35.6426 25.5661 35.6426ZM35.0829 14.9435C32.5428 12.4005 29.1649 10.9995 25.5659 10.998C18.1505 10.998 12.1152 17.0329 12.1123 24.4506C12.1113 26.8218 12.7308 29.1362 13.9081 31.1765L11.9995 38.148L19.1314 36.2772C21.0965 37.349 23.3089 37.914 25.5606 37.9147H25.5661C32.9808 37.9147 39.0166 31.8792 39.0196 24.4614C39.021 20.8666 37.6229 17.4865 35.0829 14.9435Z" fill="white"/>
</svg>
