<svg width="48" height="41" viewBox="0 0 48 41" fill="none" xmlns="http://www.w3.org/2000/svg">
<circle cx="23.0527" cy="37" r="4" fill="#C2C2C2"/>
<path fill-rule="evenodd" clip-rule="evenodd" d="M46.8235 11.7433C47.6479 10.7286 47.5513 9.24148 46.5417 8.41096C40.1526 3.1555 31.971 0 23.0524 0C14.7535 0 7.09273 2.73222 0.920563 7.34622C-0.129477 8.13117 -0.292631 9.61745 0.489852 10.6693C1.35369 11.8306 3.01838 12.004 4.18677 11.1499C9.47657 7.28275 15.9979 5 23.0524 5C30.6431 5 37.6165 7.64296 43.1026 12.0589C44.2328 12.9685 45.9087 12.8693 46.8235 11.7433Z" fill="#C2C2C2"/>
<path fill-rule="evenodd" clip-rule="evenodd" d="M33.0624 28.6804C33.7974 27.7758 33.7854 26.456 32.9069 25.69C30.2713 23.3919 26.825 22 23.0535 22C19.543 22 16.3142 23.2059 13.7587 25.2261C12.8364 25.9552 12.7673 27.2862 13.4727 28.2266C14.4063 29.4713 16.272 29.4883 17.5727 28.6344C19.1467 27.6011 21.0299 27 23.0535 27C25.2497 27 27.2806 27.708 28.9303 28.9082C30.1953 29.8285 32.0759 29.8945 33.0624 28.6804Z" fill="#C2C2C2"/>
<path fill-rule="evenodd" clip-rule="evenodd" d="M39.9154 20.2473C40.7174 19.2603 40.6468 17.8152 39.6691 17.0019C35.1635 13.254 29.3712 11 23.0525 11C17.1454 11 11.6984 12.9699 7.3326 16.2887C6.31616 17.0614 6.18564 18.509 6.9517 19.5305C7.83821 20.7125 9.55221 20.8464 10.749 19.9798C14.2066 17.476 18.4572 16 23.0525 16C27.9804 16 32.5118 17.6974 36.094 20.5393C37.2553 21.4606 38.9806 21.3977 39.9154 20.2473Z" fill="#C2C2C2"/>
</svg>
