<svg width="184" height="75" viewBox="0 0 184 75" fill="none" xmlns="http://www.w3.org/2000/svg">
<rect width="183.131" height="75" rx="15" fill="white" fill-opacity="0.2"/>
<circle cx="48.5538" cy="50.7799" r="3.21935" fill="#C2C2C2"/>
<path fill-rule="evenodd" clip-rule="evenodd" d="M67.6859 30.4513C68.3494 29.6346 68.2716 28.4377 67.459 27.7693C62.3169 23.5396 55.7321 21 48.5542 21C41.8748 21 35.709 23.1991 30.7414 26.9127C29.8963 27.5445 29.765 28.7407 30.3947 29.5873C31.09 30.5219 32.4298 30.6615 33.3702 29.974C37.6276 26.8615 42.8763 25.0242 48.5542 25.0242C54.6634 25.0242 60.2758 27.1513 64.6912 30.7053C65.6008 31.4374 66.9496 31.3575 67.6859 30.4513Z" fill="#C2C2C2"/>
<path fill-rule="evenodd" clip-rule="evenodd" d="M56.6101 44.082C57.2016 43.3539 57.192 42.2917 56.485 41.6752C54.3637 39.8254 51.5898 38.7051 48.5542 38.7051C45.7287 38.7051 43.1299 39.6758 41.0731 41.3018C40.3309 41.8886 40.2752 42.9598 40.8429 43.7167C41.5943 44.7185 43.096 44.7321 44.1429 44.0448C45.4097 43.2131 46.9255 42.7293 48.5542 42.7293C50.3219 42.7293 51.9565 43.2992 53.2843 44.2652C54.3024 45.006 55.8161 45.0592 56.6101 44.082Z" fill="#C2C2C2"/>
<path fill-rule="evenodd" clip-rule="evenodd" d="M62.1252 37.296C62.7707 36.5016 62.7139 35.3385 61.927 34.6839C58.3008 31.6676 53.639 29.8535 48.5535 29.8535C43.799 29.8535 39.4149 31.4392 35.901 34.1105C35.083 34.7324 34.978 35.8975 35.5945 36.7195C36.308 37.6709 37.6875 37.7787 38.6507 37.0811C41.4336 35.0658 44.8548 33.8777 48.5535 33.8777C52.5196 33.8777 56.1666 35.2438 59.0497 37.531C59.9843 38.2724 61.3729 38.2218 62.1252 37.296Z" fill="#C2C2C2"/>
<path d="M84.7365 48L78.7706 26.1818H81.4552L86.0149 43.9517H86.2279L90.8728 26.1818H93.8558L98.5007 43.9517H98.7137L103.273 26.1818H105.958L99.9921 48H97.2649L92.4495 30.6136H92.2791L87.4637 48H84.7365ZM108.909 48V31.6364H111.423V48H108.909ZM110.187 28.9091C109.697 28.9091 109.275 28.7422 108.92 28.4084C108.572 28.0746 108.398 27.6733 108.398 27.2045C108.398 26.7358 108.572 26.3345 108.92 26.0007C109.275 25.6669 109.697 25.5 110.187 25.5C110.678 25.5 111.097 25.6669 111.445 26.0007C111.8 26.3345 111.977 26.7358 111.977 27.2045C111.977 27.6733 111.8 28.0746 111.445 28.4084C111.097 28.7422 110.678 28.9091 110.187 28.9091ZM125.403 37.4744V39.8182H115.858V37.4744H125.403ZM130.168 48V26.1818H143.25V28.5256H132.81V35.8977H142.27V38.2415H132.81V48H130.168ZM147.434 48V31.6364H149.949V48H147.434ZM148.713 28.9091C148.223 28.9091 147.8 28.7422 147.445 28.4084C147.097 28.0746 146.923 27.6733 146.923 27.2045C146.923 26.7358 147.097 26.3345 147.445 26.0007C147.8 25.6669 148.223 25.5 148.713 25.5C149.203 25.5 149.622 25.6669 149.97 26.0007C150.325 26.3345 150.503 26.7358 150.503 27.2045C150.503 27.6733 150.325 28.0746 149.97 28.4084C149.622 28.7422 149.203 28.9091 148.713 28.9091Z" fill="#C2C2C2"/>
</svg>
