<svg width="697" height="93" viewBox="0 0 697 93" fill="none" xmlns="http://www.w3.org/2000/svg">
<path d="M1.53409 22V11.0909H10.1136V22H8.4375V12.6534H3.21023V22H1.53409ZM20.4759 15.7784V17.3409H14.4531V15.7784H20.4759ZM14.8509 11.0909V22H13.1747V11.0909H14.8509ZM21.7543 11.0909V22H20.0781V11.0909H21.7543ZM31.0653 14.983V16.5455H24.7017V14.983H31.0653ZM34.0146 22V11.0909H42.5941V22H40.918V12.6534H35.6907V22H34.0146ZM44.1708 12.6534V11.0909H53.0344V12.6534H49.4549V22H47.7788V12.6534H44.1708Z" fill="white"/>
<path d="M9.92898 36.1818V58H7.28693V38.9517H7.15909L1.83239 42.4886V39.804L7.28693 36.1818H9.92898ZM32.0135 58.2983C30.6072 58.2983 29.3537 58.0568 28.2528 57.5739C27.1591 57.0909 26.2891 56.4197 25.6428 55.5604C25.0036 54.6939 24.6555 53.6889 24.5987 52.5455H27.2834C27.3402 53.2486 27.5817 53.8558 28.0078 54.3672C28.4339 54.8714 28.9915 55.2621 29.6804 55.5391C30.3693 55.8161 31.1328 55.9545 31.9709 55.9545C32.9084 55.9545 33.7393 55.7912 34.4638 55.4645C35.1882 55.1378 35.7564 54.6832 36.1683 54.1009C36.5803 53.5185 36.7862 52.8438 36.7862 52.0767C36.7862 51.2741 36.5874 50.5675 36.1896 49.9567C35.7919 49.3388 35.2095 48.8558 34.4425 48.5078C33.6754 48.1598 32.7379 47.9858 31.63 47.9858H29.8828V45.642H31.63C32.4964 45.642 33.2564 45.4858 33.9098 45.1733C34.5703 44.8608 35.0852 44.4205 35.4545 43.8523C35.831 43.2841 36.0192 42.6165 36.0192 41.8494C36.0192 41.1108 35.8558 40.468 35.5291 39.9212C35.2024 39.3743 34.7408 38.9482 34.1442 38.6428C33.5547 38.3374 32.8587 38.1847 32.0561 38.1847C31.3033 38.1847 30.593 38.3232 29.9254 38.6001C29.2649 38.87 28.7251 39.2642 28.3061 39.7827C27.8871 40.294 27.6598 40.9119 27.6243 41.6364H25.0675C25.1101 40.4929 25.4545 39.4915 26.1009 38.6321C26.7472 37.7656 27.5923 37.0909 28.6364 36.608C29.6875 36.125 30.8416 35.8835 32.0987 35.8835C33.4482 35.8835 34.6058 36.157 35.5717 36.7038C36.5376 37.2436 37.2798 37.9574 37.7983 38.8452C38.3168 39.733 38.576 40.6918 38.576 41.7216C38.576 42.9503 38.2528 43.9979 37.6065 44.8643C36.9673 45.7308 36.0973 46.331 34.9964 46.6648V46.8352C36.3743 47.0625 37.4503 47.6484 38.2244 48.593C38.9986 49.5305 39.3857 50.6918 39.3857 52.0767C39.3857 53.2628 39.0625 54.3281 38.4162 55.2727C37.777 56.2102 36.9034 56.9489 35.7955 57.4886C34.6875 58.0284 33.4268 58.2983 32.0135 58.2983ZM50.8594 58.2983C49.2543 58.2983 47.8871 57.8615 46.7578 56.9879C45.6286 56.1072 44.7656 54.8324 44.169 53.1634C43.5724 51.4872 43.2741 49.4631 43.2741 47.0909C43.2741 44.733 43.5724 42.7195 44.169 41.0504C44.7727 39.3743 45.6392 38.0959 46.7685 37.2152C47.9048 36.3274 49.2685 35.8835 50.8594 35.8835C52.4503 35.8835 53.8104 36.3274 54.9396 37.2152C56.076 38.0959 56.9425 39.3743 57.5391 41.0504C58.1428 42.7195 58.4446 44.733 58.4446 47.0909C58.4446 49.4631 58.1463 51.4872 57.5497 53.1634C56.9531 54.8324 56.0902 56.1072 54.9609 56.9879C53.8317 57.8615 52.4645 58.2983 50.8594 58.2983ZM50.8594 55.9545C52.4503 55.9545 53.6861 55.1875 54.5668 53.6534C55.4474 52.1193 55.8878 49.9318 55.8878 47.0909C55.8878 45.2017 55.6854 43.593 55.2805 42.2649C54.8828 40.9368 54.3075 39.9247 53.5547 39.2287C52.8089 38.5327 51.9105 38.1847 50.8594 38.1847C49.2827 38.1847 48.0504 38.9624 47.1626 40.5178C46.2749 42.0661 45.831 44.2571 45.831 47.0909C45.831 48.9801 46.0298 50.5852 46.4276 51.9062C46.8253 53.2273 47.397 54.2322 48.1428 54.9212C48.8956 55.6101 49.8011 55.9545 50.8594 55.9545ZM69.6094 58.2983C68.0043 58.2983 66.6371 57.8615 65.5078 56.9879C64.3786 56.1072 63.5156 54.8324 62.919 53.1634C62.3224 51.4872 62.0241 49.4631 62.0241 47.0909C62.0241 44.733 62.3224 42.7195 62.919 41.0504C63.5227 39.3743 64.3892 38.0959 65.5185 37.2152C66.6548 36.3274 68.0185 35.8835 69.6094 35.8835C71.2003 35.8835 72.5604 36.3274 73.6896 37.2152C74.826 38.0959 75.6925 39.3743 76.2891 41.0504C76.8928 42.7195 77.1946 44.733 77.1946 47.0909C77.1946 49.4631 76.8963 51.4872 76.2997 53.1634C75.7031 54.8324 74.8402 56.1072 73.7109 56.9879C72.5817 57.8615 71.2145 58.2983 69.6094 58.2983ZM69.6094 55.9545C71.2003 55.9545 72.4361 55.1875 73.3168 53.6534C74.1974 52.1193 74.6378 49.9318 74.6378 47.0909C74.6378 45.2017 74.4354 43.593 74.0305 42.2649C73.6328 40.9368 73.0575 39.9247 72.3047 39.2287C71.5589 38.5327 70.6605 38.1847 69.6094 38.1847C68.0327 38.1847 66.8004 38.9624 65.9126 40.5178C65.0249 42.0661 64.581 44.2571 64.581 47.0909C64.581 48.9801 64.7798 50.5852 65.1776 51.9062C65.5753 53.2273 66.147 54.2322 66.8928 54.9212C67.6456 55.6101 68.5511 55.9545 69.6094 55.9545ZM99.6094 49.1364H88.5298V46.7926H99.6094C100.632 46.7926 101.477 46.6151 102.145 46.2599C102.813 45.8977 103.31 45.4077 103.636 44.7898C103.963 44.1648 104.126 43.4545 104.126 42.6591C104.126 41.8636 103.963 41.157 103.636 40.5391C103.31 39.9141 102.813 39.424 102.145 39.0689C101.477 38.7067 100.632 38.5256 99.6094 38.5256H94.6236V58H91.9815V36.1818H99.6094C101.229 36.1818 102.564 36.4766 103.615 37.0661C104.666 37.6555 105.447 38.4403 105.959 39.4205C106.47 40.4006 106.726 41.4801 106.726 42.6591C106.726 43.8381 106.47 44.9176 105.959 45.8977C105.447 46.8778 104.666 47.6626 103.615 48.2521C102.564 48.8416 101.229 49.1364 99.6094 49.1364ZM99.4389 51.1818V53.5256H88.5298V51.1818H99.4389Z" fill="white"/>
<path d="M134.966 22.2273C133.943 22.2273 133.063 21.9858 132.324 21.5028C131.585 21.0199 131.017 20.3546 130.619 19.5071C130.222 18.6596 130.023 17.6913 130.023 16.6023C130.023 15.4943 130.226 14.5166 130.634 13.669C131.045 12.8168 131.618 12.1515 132.352 11.6733C133.091 11.1903 133.953 10.9489 134.938 10.9489C135.705 10.9489 136.396 11.0909 137.011 11.375C137.627 11.6591 138.131 12.0568 138.524 12.5682C138.917 13.0795 139.161 13.6761 139.256 14.358H137.58C137.452 13.8608 137.168 13.4205 136.727 13.0369C136.292 12.6487 135.705 12.4545 134.966 12.4545C134.313 12.4545 133.74 12.625 133.247 12.9659C132.759 13.3021 132.378 13.7779 132.104 14.3935C131.834 15.0043 131.699 15.7216 131.699 16.5455C131.699 17.3883 131.831 18.1222 132.097 18.7472C132.366 19.3722 132.745 19.8575 133.233 20.2031C133.725 20.5488 134.303 20.7216 134.966 20.7216C135.402 20.7216 135.797 20.6458 136.152 20.4943C136.507 20.3428 136.808 20.125 137.054 19.8409C137.3 19.5568 137.475 19.2159 137.58 18.8182H139.256C139.161 19.4621 138.927 20.0421 138.553 20.5582C138.183 21.0696 137.693 21.4768 137.082 21.7798C136.476 22.0781 135.771 22.2273 134.966 22.2273ZM149.803 7L150.655 8.02273C150.323 8.3447 149.94 8.5696 149.504 8.69744C149.069 8.82528 148.576 8.90341 148.027 8.93182C147.478 8.96023 146.867 8.98864 146.195 9.01705C145.437 9.04545 144.81 9.23011 144.312 9.57102C143.815 9.91193 143.432 10.4044 143.162 11.0483C142.892 11.6922 142.719 12.483 142.643 13.4205H142.786C143.155 12.7386 143.666 12.2367 144.32 11.9148C144.973 11.5928 145.674 11.4318 146.422 11.4318C147.274 11.4318 148.041 11.6307 148.723 12.0284C149.405 12.4261 149.945 13.0156 150.342 13.7969C150.74 14.5781 150.939 15.5417 150.939 16.6875C150.939 17.8286 150.735 18.8134 150.328 19.642C149.926 20.4706 149.36 21.1098 148.631 21.5597C147.906 22.0047 147.056 22.2273 146.081 22.2273C145.106 22.2273 144.251 21.9976 143.517 21.5384C142.783 21.0743 142.213 20.3878 141.805 19.4787C141.398 18.5649 141.195 17.4356 141.195 16.0909V14.9261C141.195 12.4972 141.607 10.6553 142.43 9.40057C143.259 8.14583 144.504 7.49716 146.166 7.45455C146.753 7.43561 147.277 7.43087 147.736 7.44034C148.195 7.44981 148.595 7.4285 148.936 7.37642C149.277 7.32434 149.566 7.19886 149.803 7ZM146.081 20.7216C146.739 20.7216 147.305 20.5559 147.778 20.2244C148.257 19.893 148.624 19.4266 148.879 18.8253C149.135 18.2192 149.263 17.5066 149.263 16.6875C149.263 15.892 149.133 15.215 148.872 14.6562C148.616 14.0975 148.25 13.6714 147.771 13.3778C147.293 13.0843 146.72 12.9375 146.053 12.9375C145.565 12.9375 145.127 13.0204 144.739 13.1861C144.35 13.3518 144.019 13.5956 143.744 13.9176C143.47 14.2396 143.257 14.6326 143.105 15.0966C142.958 15.5606 142.88 16.0909 142.871 16.6875C142.871 17.9091 143.157 18.8868 143.73 19.6207C144.303 20.3546 145.087 20.7216 146.081 20.7216ZM159.753 14.983V16.5455H153.389V14.983H159.753ZM162.702 22V11.0909H167.162C168.337 11.0909 169.269 11.3561 169.961 11.8864C170.652 12.4167 170.998 13.1174 170.998 13.9886C170.998 14.6515 170.801 15.1652 170.408 15.5298C170.015 15.8897 169.511 16.1335 168.895 16.2614C169.298 16.3182 169.688 16.4602 170.067 16.6875C170.451 16.9148 170.768 17.2273 171.019 17.625C171.27 18.018 171.395 18.5009 171.395 19.0739C171.395 19.6326 171.253 20.1321 170.969 20.5724C170.685 21.0128 170.278 21.3608 169.748 21.6165C169.217 21.8722 168.583 22 167.844 22H162.702ZM164.293 20.4659H167.844C168.422 20.4659 168.874 20.3286 169.201 20.054C169.527 19.7794 169.691 19.4053 169.691 18.9318C169.691 18.3684 169.527 17.9257 169.201 17.6037C168.874 17.277 168.422 17.1136 167.844 17.1136H164.293V20.4659ZM164.293 15.6648H167.162C167.612 15.6648 167.998 15.6032 168.32 15.4801C168.642 15.3523 168.888 15.1723 169.059 14.9403C169.234 14.7036 169.321 14.4242 169.321 14.1023C169.321 13.643 169.13 13.2831 168.746 13.0227C168.363 12.7576 167.835 12.625 167.162 12.625H164.293V15.6648ZM178.364 22.2273C177.342 22.2273 176.461 21.9858 175.722 21.5028C174.984 21.0199 174.415 20.3546 174.018 19.5071C173.62 18.6596 173.421 17.6913 173.421 16.6023C173.421 15.4943 173.625 14.5166 174.032 13.669C174.444 12.8168 175.017 12.1515 175.751 11.6733C176.489 11.1903 177.351 10.9489 178.336 10.9489C179.103 10.9489 179.794 11.0909 180.41 11.375C181.025 11.6591 181.53 12.0568 181.923 12.5682C182.316 13.0795 182.559 13.6761 182.654 14.358H180.978C180.85 13.8608 180.566 13.4205 180.126 13.0369C179.69 12.6487 179.103 12.4545 178.364 12.4545C177.711 12.4545 177.138 12.625 176.646 12.9659C176.158 13.3021 175.777 13.7779 175.502 14.3935C175.232 15.0043 175.097 15.7216 175.097 16.5455C175.097 17.3883 175.23 18.1222 175.495 18.7472C175.765 19.3722 176.144 19.8575 176.631 20.2031C177.124 20.5488 177.701 20.7216 178.364 20.7216C178.8 20.7216 179.195 20.6458 179.55 20.4943C179.906 20.3428 180.206 20.125 180.452 19.8409C180.699 19.5568 180.874 19.2159 180.978 18.8182H182.654C182.559 19.4621 182.325 20.0421 181.951 20.5582C181.582 21.0696 181.092 21.4768 180.481 21.7798C179.875 22.0781 179.169 22.2273 178.364 22.2273Z" fill="white"/>
<path d="M138.929 36.1818V58H136.287V38.9517H136.159L130.832 42.4886V39.804L136.287 36.1818H138.929ZM160.46 58.2983C159.21 58.2983 158.084 58.0497 157.082 57.5526C156.081 57.0554 155.278 56.3736 154.675 55.5071C154.071 54.6406 153.741 53.6534 153.684 52.5455H156.241C156.34 53.5327 156.788 54.3494 157.583 54.9957C158.386 55.6349 159.344 55.9545 160.46 55.9545C161.354 55.9545 162.15 55.745 162.846 55.326C163.549 54.907 164.099 54.3317 164.497 53.6001C164.902 52.8615 165.104 52.027 165.104 51.0966C165.104 50.1449 164.895 49.2962 164.476 48.5504C164.064 47.7976 163.496 47.2045 162.771 46.7713C162.047 46.3381 161.219 46.1179 160.289 46.1108C159.621 46.1037 158.936 46.2067 158.233 46.4197C157.53 46.6257 156.951 46.892 156.496 47.2188L154.025 46.9205L155.346 36.1818H166.681V38.5256H157.562L156.795 44.9602H156.923C157.37 44.6051 157.931 44.3104 158.606 44.076C159.281 43.8416 159.984 43.7244 160.715 43.7244C162.05 43.7244 163.24 44.044 164.284 44.6832C165.335 45.3153 166.159 46.1818 166.756 47.2827C167.359 48.3835 167.661 49.6406 167.661 51.054C167.661 52.446 167.349 53.6889 166.724 54.7827C166.106 55.8693 165.254 56.7287 164.167 57.3608C163.08 57.9858 161.844 58.2983 160.46 58.2983ZM179.01 58.2983C177.405 58.2983 176.037 57.8615 174.908 56.9879C173.779 56.1072 172.916 54.8324 172.319 53.1634C171.723 51.4872 171.425 49.4631 171.425 47.0909C171.425 44.733 171.723 42.7195 172.319 41.0504C172.923 39.3743 173.79 38.0959 174.919 37.2152C176.055 36.3274 177.419 35.8835 179.01 35.8835C180.601 35.8835 181.961 36.3274 183.09 37.2152C184.226 38.0959 185.093 39.3743 185.689 41.0504C186.293 42.7195 186.595 44.733 186.595 47.0909C186.595 49.4631 186.297 51.4872 185.7 53.1634C185.104 54.8324 184.241 56.1072 183.111 56.9879C181.982 57.8615 180.615 58.2983 179.01 58.2983ZM179.01 55.9545C180.601 55.9545 181.836 55.1875 182.717 53.6534C183.598 52.1193 184.038 49.9318 184.038 47.0909C184.038 45.2017 183.836 43.593 183.431 42.2649C183.033 40.9368 182.458 39.9247 181.705 39.2287C180.959 38.5327 180.061 38.1847 179.01 38.1847C177.433 38.1847 176.201 38.9624 175.313 40.5178C174.425 42.0661 173.981 44.2571 173.981 47.0909C173.981 48.9801 174.18 50.5852 174.578 51.9062C174.976 53.2273 175.547 54.2322 176.293 54.9212C177.046 55.6101 177.952 55.9545 179.01 55.9545ZM197.76 58.2983C196.155 58.2983 194.787 57.8615 193.658 56.9879C192.529 56.1072 191.666 54.8324 191.069 53.1634C190.473 51.4872 190.175 49.4631 190.175 47.0909C190.175 44.733 190.473 42.7195 191.069 41.0504C191.673 39.3743 192.54 38.0959 193.669 37.2152C194.805 36.3274 196.169 35.8835 197.76 35.8835C199.351 35.8835 200.711 36.3274 201.84 37.2152C202.976 38.0959 203.843 39.3743 204.439 41.0504C205.043 42.7195 205.345 44.733 205.345 47.0909C205.345 49.4631 205.047 51.4872 204.45 53.1634C203.854 54.8324 202.991 56.1072 201.861 56.9879C200.732 57.8615 199.365 58.2983 197.76 58.2983ZM197.76 55.9545C199.351 55.9545 200.586 55.1875 201.467 53.6534C202.348 52.1193 202.788 49.9318 202.788 47.0909C202.788 45.2017 202.586 43.593 202.181 42.2649C201.783 40.9368 201.208 39.9247 200.455 39.2287C199.709 38.5327 198.811 38.1847 197.76 38.1847C196.183 38.1847 194.951 38.9624 194.063 40.5178C193.175 42.0661 192.731 44.2571 192.731 47.0909C192.731 48.9801 192.93 50.5852 193.328 51.9062C193.726 53.2273 194.297 54.2322 195.043 54.9212C195.796 55.6101 196.702 55.9545 197.76 55.9545ZM227.76 49.1364H216.68V46.7926H227.76C228.782 46.7926 229.628 46.6151 230.295 46.2599C230.963 45.8977 231.46 45.4077 231.787 44.7898C232.113 44.1648 232.277 43.4545 232.277 42.6591C232.277 41.8636 232.113 41.157 231.787 40.5391C231.46 39.9141 230.963 39.424 230.295 39.0689C229.628 38.7067 228.782 38.5256 227.76 38.5256H222.774V58H220.132V36.1818H227.76C229.379 36.1818 230.714 36.4766 231.765 37.0661C232.817 37.6555 233.598 38.4403 234.109 39.4205C234.621 40.4006 234.876 41.4801 234.876 42.6591C234.876 43.8381 234.621 44.9176 234.109 45.8977C233.598 46.8778 232.817 47.6626 231.765 48.2521C230.714 48.8416 229.379 49.1364 227.76 49.1364ZM227.589 51.1818V53.5256H216.68V51.1818H227.589Z" fill="white"/>
<path d="M6.61932 70.4545V85H4.85795V72.3011H4.77273L1.22159 74.6591V72.8693L4.85795 70.4545H6.61932ZM23.1889 74.0909V75.6534H18.1321V85H16.456V74.0909H23.1889ZM29.5011 85.2273C28.5162 85.2273 27.6521 84.9929 26.9087 84.5241C26.1701 84.0554 25.5924 83.3996 25.1758 82.5568C24.7638 81.714 24.5579 80.7292 24.5579 79.6023C24.5579 78.4659 24.7638 77.474 25.1758 76.6264C25.5924 75.7789 26.1701 75.1207 26.9087 74.652C27.6521 74.1832 28.5162 73.9489 29.5011 73.9489C30.4859 73.9489 31.3477 74.1832 32.0863 74.652C32.8297 75.1207 33.4073 75.7789 33.8192 76.6264C34.2359 77.474 34.4442 78.4659 34.4442 79.6023C34.4442 80.7292 34.2359 81.714 33.8192 82.5568C33.4073 83.3996 32.8297 84.0554 32.0863 84.5241C31.3477 84.9929 30.4859 85.2273 29.5011 85.2273ZM29.5011 83.7216C30.2492 83.7216 30.8647 83.5298 31.3477 83.1463C31.8306 82.7628 32.1881 82.2585 32.4201 81.6335C32.6521 81.0085 32.7681 80.3314 32.7681 79.6023C32.7681 78.8731 32.6521 78.1937 32.4201 77.5639C32.1881 76.9342 31.8306 76.4252 31.3477 76.0369C30.8647 75.6487 30.2492 75.4545 29.5011 75.4545C28.753 75.4545 28.1374 75.6487 27.6545 76.0369C27.1715 76.4252 26.814 76.9342 26.582 77.5639C26.35 78.1937 26.234 78.8731 26.234 79.6023C26.234 80.3314 26.35 81.0085 26.582 81.6335C26.814 82.2585 27.1715 82.7628 27.6545 83.1463C28.1374 83.5298 28.753 83.7216 29.5011 83.7216ZM41.4347 85.2273C40.4119 85.2273 39.5313 84.9858 38.7926 84.5028C38.054 84.0199 37.4858 83.3546 37.0881 82.5071C36.6903 81.6596 36.4915 80.6913 36.4915 79.6023C36.4915 78.4943 36.6951 77.5166 37.1023 76.669C37.5142 75.8168 38.0871 75.1515 38.821 74.6733C39.5597 74.1903 40.4214 73.9489 41.4062 73.9489C42.1733 73.9489 42.8646 74.0909 43.4801 74.375C44.0956 74.6591 44.5999 75.0568 44.9929 75.5682C45.3859 76.0795 45.6297 76.6761 45.7244 77.358H44.0483C43.9205 76.8608 43.6364 76.4205 43.196 76.0369C42.7604 75.6487 42.1733 75.4545 41.4347 75.4545C40.7813 75.4545 40.2083 75.625 39.7159 75.9659C39.2282 76.3021 38.8471 76.7779 38.5724 77.3935C38.3026 78.0043 38.1676 78.7216 38.1676 79.5455C38.1676 80.3883 38.3002 81.1222 38.5653 81.7472C38.8352 82.3722 39.214 82.8575 39.7017 83.2031C40.1941 83.5488 40.7718 83.7216 41.4347 83.7216C41.8703 83.7216 42.2656 83.6458 42.6207 83.4943C42.9759 83.3428 43.2765 83.125 43.5227 82.8409C43.7689 82.5568 43.9441 82.2159 44.0483 81.8182H45.7244C45.6297 82.4621 45.3954 83.0421 45.0213 83.5582C44.652 84.0696 44.1619 84.4768 43.5511 84.7798C42.9451 85.0781 42.2396 85.2273 41.4347 85.2273ZM47.3153 75.6534V74.0909H56.179V75.6534H52.5994V85H50.9233V75.6534H47.3153ZM60.0728 78.0398H63.1978C64.4762 78.0398 65.454 78.3641 66.131 79.0128C66.8081 79.6615 67.1467 80.483 67.1467 81.4773C67.1467 82.1307 66.9951 82.7249 66.6921 83.2599C66.3891 83.7902 65.944 84.214 65.3569 84.5312C64.7698 84.8438 64.0501 85 63.1978 85H58.6239V74.0909H60.3001V83.4375H63.1978C63.8607 83.4375 64.4052 83.2623 64.8313 82.9119C65.2575 82.5616 65.4705 82.1117 65.4705 81.5625C65.4705 80.9848 65.2575 80.5137 64.8313 80.1491C64.4052 79.7846 63.8607 79.6023 63.1978 79.6023H60.0728V78.0398Z" fill="#C2C2C2"/>
<path d="M280.318 15.6364L280.432 12.5114L277.79 14.1875L277.108 12.9943L279.892 11.5455L277.108 10.0966L277.79 8.90341L280.432 10.5795L280.318 7.45455H281.682L281.568 10.5795L284.21 8.90341L284.892 10.0966L282.108 11.5455L284.892 12.9943L284.21 14.1875L281.568 12.5114L281.682 15.6364H280.318ZM286.511 25.5227V20.4375H287.449C287.771 20.1439 288.074 19.7296 288.358 19.1946C288.647 18.6548 288.891 17.9351 289.089 17.0355C289.293 16.1312 289.428 14.983 289.494 13.5909L289.807 7.45455H298.443V20.4375H300.119V25.4943H298.443V22H288.188V25.5227H286.511ZM289.551 20.4375H296.767V9.01705H291.398L291.17 13.5909C291.114 14.6515 291.014 15.6127 290.872 16.4744C290.73 17.3314 290.548 18.0914 290.325 18.7543C290.103 19.4124 289.845 19.9735 289.551 20.4375ZM301.588 22V20.4375H301.985C302.312 20.4375 302.584 20.3736 302.802 20.2457C303.02 20.1132 303.195 19.8835 303.328 19.5568C303.465 19.2254 303.569 18.7661 303.64 18.179C303.716 17.5871 303.77 16.8343 303.804 15.9205L304.002 11.0909H311.275V22H309.599V12.6534H305.593L305.423 16.5455C305.385 17.4403 305.305 18.2287 305.181 18.9105C305.063 19.5876 304.881 20.1558 304.635 20.6151C304.393 21.0743 304.071 21.42 303.669 21.652C303.266 21.884 302.762 22 302.156 22H301.588ZM320.913 22V12.625H318.015C317.362 12.625 316.848 12.7765 316.474 13.0795C316.1 13.3826 315.913 13.7992 315.913 14.3295C315.913 14.8504 316.081 15.2599 316.417 15.5582C316.758 15.8565 317.225 16.0057 317.816 16.0057H321.339V17.5682H317.816C317.078 17.5682 316.441 17.438 315.906 17.1776C315.371 16.9171 314.959 16.5455 314.67 16.0625C314.381 15.5748 314.237 14.9972 314.237 14.3295C314.237 13.6572 314.388 13.0795 314.691 12.5966C314.994 12.1136 315.428 11.742 315.991 11.4815C316.559 11.2211 317.234 11.0909 318.015 11.0909H322.504V22H320.913ZM313.64 22L316.737 16.5739H318.555L315.458 22H313.64ZM331.206 22V11.0909H339.786V22H338.109V12.6534H332.882V22H331.206ZM347.278 22.2273C346.294 22.2273 345.429 21.9929 344.686 21.5241C343.947 21.0554 343.37 20.3996 342.953 19.5568C342.541 18.714 342.335 17.7292 342.335 16.6023C342.335 15.4659 342.541 14.474 342.953 13.6264C343.37 12.7789 343.947 12.1207 344.686 11.652C345.429 11.1832 346.294 10.9489 347.278 10.9489C348.263 10.9489 349.125 11.1832 349.864 11.652C350.607 12.1207 351.185 12.7789 351.597 13.6264C352.013 14.474 352.222 15.4659 352.222 16.6023C352.222 17.7292 352.013 18.714 351.597 19.5568C351.185 20.3996 350.607 21.0554 349.864 21.5241C349.125 21.9929 348.263 22.2273 347.278 22.2273ZM347.278 20.7216C348.027 20.7216 348.642 20.5298 349.125 20.1463C349.608 19.7628 349.965 19.2585 350.197 18.6335C350.429 18.0085 350.545 17.3314 350.545 16.6023C350.545 15.8731 350.429 15.1937 350.197 14.5639C349.965 13.9342 349.608 13.4252 349.125 13.0369C348.642 12.6487 348.027 12.4545 347.278 12.4545C346.53 12.4545 345.915 12.6487 345.432 13.0369C344.949 13.4252 344.591 13.9342 344.359 14.5639C344.127 15.1937 344.011 15.8731 344.011 16.6023C344.011 17.3314 344.127 18.0085 344.359 18.6335C344.591 19.2585 344.949 19.7628 345.432 20.1463C345.915 20.5298 346.53 20.7216 347.278 20.7216ZM359.212 22.2273C358.189 22.2273 357.309 21.9858 356.57 21.5028C355.831 21.0199 355.263 20.3546 354.865 19.5071C354.468 18.6596 354.269 17.6913 354.269 16.6023C354.269 15.4943 354.472 14.5166 354.88 13.669C355.292 12.8168 355.864 12.1515 356.598 11.6733C357.337 11.1903 358.199 10.9489 359.184 10.9489C359.951 10.9489 360.642 11.0909 361.257 11.375C361.873 11.6591 362.377 12.0568 362.77 12.5682C363.163 13.0795 363.407 13.6761 363.502 14.358H361.826C361.698 13.8608 361.414 13.4205 360.973 13.0369C360.538 12.6487 359.951 12.4545 359.212 12.4545C358.559 12.4545 357.986 12.625 357.493 12.9659C357.006 13.3021 356.624 13.7779 356.35 14.3935C356.08 15.0043 355.945 15.7216 355.945 16.5455C355.945 17.3883 356.078 18.1222 356.343 18.7472C356.613 19.3722 356.991 19.8575 357.479 20.2031C357.971 20.5488 358.549 20.7216 359.212 20.7216C359.648 20.7216 360.043 20.6458 360.398 20.4943C360.753 20.3428 361.054 20.125 361.3 19.8409C361.546 19.5568 361.721 19.2159 361.826 18.8182H363.502C363.407 19.4621 363.173 20.0421 362.799 20.5582C362.429 21.0696 361.939 21.4768 361.328 21.7798C360.722 22.0781 360.017 22.2273 359.212 22.2273ZM365.327 12.6534V11.0909H374.191V12.6534H370.611V22H368.935V12.6534H365.327ZM381.067 22.2273C380.083 22.2273 379.219 21.9929 378.475 21.5241C377.737 21.0554 377.159 20.3996 376.742 19.5568C376.33 18.714 376.124 17.7292 376.124 16.6023C376.124 15.4659 376.33 14.474 376.742 13.6264C377.159 12.7789 377.737 12.1207 378.475 11.652C379.219 11.1832 380.083 10.9489 381.067 10.9489C382.052 10.9489 382.914 11.1832 383.653 11.652C384.396 12.1207 384.974 12.7789 385.386 13.6264C385.802 14.474 386.011 15.4659 386.011 16.6023C386.011 17.7292 385.802 18.714 385.386 19.5568C384.974 20.3996 384.396 21.0554 383.653 21.5241C382.914 21.9929 382.052 22.2273 381.067 22.2273ZM381.067 20.7216C381.816 20.7216 382.431 20.5298 382.914 20.1463C383.397 19.7628 383.754 19.2585 383.987 18.6335C384.219 18.0085 384.335 17.3314 384.335 16.6023C384.335 15.8731 384.219 15.1937 383.987 14.5639C383.754 13.9342 383.397 13.4252 382.914 13.0369C382.431 12.6487 381.816 12.4545 381.067 12.4545C380.319 12.4545 379.704 12.6487 379.221 13.0369C378.738 13.4252 378.38 13.9342 378.148 14.5639C377.916 15.1937 377.8 15.8731 377.8 16.6023C377.8 17.3314 377.916 18.0085 378.148 18.6335C378.38 19.2585 378.738 19.7628 379.221 20.1463C379.704 20.5298 380.319 20.7216 381.067 20.7216ZM395.132 22V12.625H392.234C391.581 12.625 391.067 12.7765 390.693 13.0795C390.319 13.3826 390.132 13.7992 390.132 14.3295C390.132 14.8504 390.3 15.2599 390.636 15.5582C390.977 15.8565 391.443 16.0057 392.035 16.0057H395.558V17.5682H392.035C391.297 17.5682 390.66 17.438 390.125 17.1776C389.59 16.9171 389.178 16.5455 388.889 16.0625C388.6 15.5748 388.456 14.9972 388.456 14.3295C388.456 13.6572 388.607 13.0795 388.91 12.5966C389.213 12.1136 389.646 11.742 390.21 11.4815C390.778 11.2211 391.453 11.0909 392.234 11.0909H396.723V22H395.132ZM387.859 22L390.956 16.5739H392.774L389.677 22H387.859ZM398.834 22V20.4375H399.232C399.558 20.4375 399.83 20.3736 400.048 20.2457C400.266 20.1132 400.441 19.8835 400.574 19.5568C400.711 19.2254 400.815 18.7661 400.886 18.179C400.962 17.5871 401.017 16.8343 401.05 15.9205L401.249 11.0909H408.521V22H406.845V12.6534H402.839L402.669 16.5455C402.631 17.4403 402.551 18.2287 402.428 18.9105C402.309 19.5876 402.127 20.1558 401.881 20.6151C401.639 21.0743 401.317 21.42 400.915 21.652C400.512 21.884 400.008 22 399.402 22H398.834ZM413.045 15.0398H416.17C417.449 15.0398 418.427 15.3641 419.104 16.0128C419.781 16.6615 420.119 17.483 420.119 18.4773C420.119 19.1307 419.968 19.7249 419.665 20.2599C419.362 20.7902 418.917 21.214 418.33 21.5312C417.742 21.8438 417.023 22 416.17 22H411.597V11.0909H413.273V20.4375H416.17C416.833 20.4375 417.378 20.2623 417.804 19.9119C418.23 19.5616 418.443 19.1117 418.443 18.5625C418.443 17.9848 418.23 17.5137 417.804 17.1491C417.378 16.7846 416.833 16.6023 416.17 16.6023H413.045V15.0398ZM431.25 11.0909V20.4375H432.784V25.5227H431.108V22H422.671V11.0909H424.347V20.4375H429.574V11.0909H431.25ZM439.94 22.2273C438.889 22.2273 437.982 21.9953 437.22 21.5312C436.462 21.0625 435.877 20.4091 435.466 19.571C435.058 18.7282 434.855 17.7481 434.855 16.6307C434.855 15.5133 435.058 14.5284 435.466 13.6761C435.877 12.8191 436.45 12.1515 437.184 11.6733C437.923 11.1903 438.785 10.9489 439.77 10.9489C440.338 10.9489 440.899 11.0436 441.453 11.233C442.007 11.4223 442.511 11.7301 442.966 12.1562C443.42 12.5777 443.782 13.1364 444.052 13.8324C444.322 14.5284 444.457 15.3854 444.457 16.4034V17.1136H436.048V15.6648H442.752C442.752 15.0492 442.629 14.5 442.383 14.017C442.142 13.5341 441.796 13.1529 441.346 12.8736C440.901 12.5942 440.376 12.4545 439.77 12.4545C439.102 12.4545 438.524 12.6203 438.037 12.9517C437.554 13.2784 437.182 13.7045 436.922 14.2301C436.661 14.7557 436.531 15.3191 436.531 15.9205V16.8864C436.531 17.7102 436.673 18.4086 436.957 18.9815C437.246 19.5497 437.646 19.983 438.157 20.2812C438.669 20.5748 439.263 20.7216 439.94 20.7216C440.38 20.7216 440.778 20.66 441.133 20.5369C441.493 20.4091 441.803 20.2197 442.064 19.9688C442.324 19.7131 442.525 19.3958 442.667 19.017L444.287 19.4716C444.116 20.0208 443.83 20.5038 443.427 20.9205C443.025 21.3324 442.528 21.6544 441.936 21.8864C441.344 22.1136 440.679 22.2273 439.94 22.2273ZM447.007 22V11.0909H451.467C452.641 11.0909 453.574 11.3561 454.265 11.8864C454.957 12.4167 455.302 13.1174 455.302 13.9886C455.302 14.6515 455.106 15.1652 454.713 15.5298C454.32 15.8897 453.815 16.1335 453.2 16.2614C453.602 16.3182 453.993 16.4602 454.372 16.6875C454.755 16.9148 455.073 17.2273 455.324 17.625C455.574 18.018 455.7 18.5009 455.7 19.0739C455.7 19.6326 455.558 20.1321 455.274 20.5724C454.99 21.0128 454.583 21.3608 454.052 21.6165C453.522 21.8722 452.887 22 452.149 22H447.007ZM448.598 20.4659H452.149C452.726 20.4659 453.179 20.3286 453.505 20.054C453.832 19.7794 453.995 19.4053 453.995 18.9318C453.995 18.3684 453.832 17.9257 453.505 17.6037C453.179 17.277 452.726 17.1136 452.149 17.1136H448.598V20.4659ZM448.598 15.6648H451.467C451.917 15.6648 452.303 15.6032 452.625 15.4801C452.947 15.3523 453.193 15.1723 453.363 14.9403C453.538 14.7036 453.626 14.4242 453.626 14.1023C453.626 13.643 453.434 13.2831 453.051 13.0227C452.667 12.7576 452.139 12.625 451.467 12.625H448.598V15.6648ZM468.294 22.2273C467.271 22.2273 466.391 21.9858 465.652 21.5028C464.913 21.0199 464.345 20.3546 463.947 19.5071C463.55 18.6596 463.351 17.6913 463.351 16.6023C463.351 15.4943 463.554 14.5166 463.962 13.669C464.374 12.8168 464.946 12.1515 465.68 11.6733C466.419 11.1903 467.281 10.9489 468.266 10.9489C469.033 10.9489 469.724 11.0909 470.339 11.375C470.955 11.6591 471.459 12.0568 471.852 12.5682C472.245 13.0795 472.489 13.6761 472.584 14.358H470.908C470.78 13.8608 470.496 13.4205 470.055 13.0369C469.62 12.6487 469.033 12.4545 468.294 12.4545C467.641 12.4545 467.068 12.625 466.575 12.9659C466.088 13.3021 465.706 13.7779 465.432 14.3935C465.162 15.0043 465.027 15.7216 465.027 16.5455C465.027 17.3883 465.16 18.1222 465.425 18.7472C465.695 19.3722 466.073 19.8575 466.561 20.2031C467.054 20.5488 467.631 20.7216 468.294 20.7216C468.73 20.7216 469.125 20.6458 469.48 20.4943C469.835 20.3428 470.136 20.125 470.382 19.8409C470.628 19.5568 470.804 19.2159 470.908 18.8182H472.584C472.489 19.4621 472.255 20.0421 471.881 20.5582C471.511 21.0696 471.021 21.4768 470.411 21.7798C469.804 22.0781 469.099 22.2273 468.294 22.2273ZM474.409 12.6534V11.0909H483.273V12.6534H479.693V22H478.017V12.6534H474.409ZM490.15 22.2273C489.165 22.2273 488.301 21.9929 487.557 21.5241C486.819 21.0554 486.241 20.3996 485.824 19.5568C485.412 18.714 485.206 17.7292 485.206 16.6023C485.206 15.4659 485.412 14.474 485.824 13.6264C486.241 12.7789 486.819 12.1207 487.557 11.652C488.301 11.1832 489.165 10.9489 490.15 10.9489C491.134 10.9489 491.996 11.1832 492.735 11.652C493.478 12.1207 494.056 12.7789 494.468 13.6264C494.884 14.474 495.093 15.4659 495.093 16.6023C495.093 17.7292 494.884 18.714 494.468 19.5568C494.056 20.3996 493.478 21.0554 492.735 21.5241C491.996 21.9929 491.134 22.2273 490.15 22.2273ZM490.15 20.7216C490.898 20.7216 491.513 20.5298 491.996 20.1463C492.479 19.7628 492.837 19.2585 493.069 18.6335C493.301 18.0085 493.417 17.3314 493.417 16.6023C493.417 15.8731 493.301 15.1937 493.069 14.5639C492.837 13.9342 492.479 13.4252 491.996 13.0369C491.513 12.6487 490.898 12.4545 490.15 12.4545C489.401 12.4545 488.786 12.6487 488.303 13.0369C487.82 13.4252 487.462 13.9342 487.23 14.5639C486.998 15.1937 486.882 15.8731 486.882 16.6023C486.882 17.3314 486.998 18.0085 487.23 18.6335C487.462 19.2585 487.82 19.7628 488.303 20.1463C488.786 20.5298 489.401 20.7216 490.15 20.7216ZM499.327 19.5284L504.583 11.0909H506.515V22H504.839V13.5625L499.612 22H497.651V11.0909H499.327V19.5284ZM515.551 19.7273L519.358 11.0909H520.949L516.233 22H514.869L510.238 11.0909H511.801L515.551 19.7273ZM511.261 11.0909V22H509.585V11.0909H511.261ZM519.841 22V11.0909H521.517V22H519.841ZM529.017 22.2273C528.032 22.2273 527.168 21.9929 526.424 21.5241C525.686 21.0554 525.108 20.3996 524.691 19.5568C524.279 18.714 524.074 17.7292 524.074 16.6023C524.074 15.4659 524.279 14.474 524.691 13.6264C525.108 12.7789 525.686 12.1207 526.424 11.652C527.168 11.1832 528.032 10.9489 529.017 10.9489C530.002 10.9489 530.863 11.1832 531.602 11.652C532.345 12.1207 532.923 12.7789 533.335 13.6264C533.752 14.474 533.96 15.4659 533.96 16.6023C533.96 17.7292 533.752 18.714 533.335 19.5568C532.923 20.3996 532.345 21.0554 531.602 21.5241C530.863 21.9929 530.002 22.2273 529.017 22.2273ZM529.017 20.7216C529.765 20.7216 530.38 20.5298 530.863 20.1463C531.346 19.7628 531.704 19.2585 531.936 18.6335C532.168 18.0085 532.284 17.3314 532.284 16.6023C532.284 15.8731 532.168 15.1937 531.936 14.5639C531.704 13.9342 531.346 13.4252 530.863 13.0369C530.38 12.6487 529.765 12.4545 529.017 12.4545C528.269 12.4545 527.653 12.6487 527.17 13.0369C526.687 13.4252 526.33 13.9342 526.098 14.5639C525.866 15.1937 525.75 15.8731 525.75 16.6023C525.75 17.3314 525.866 18.0085 526.098 18.6335C526.33 19.2585 526.687 19.7628 527.17 20.1463C527.653 20.5298 528.269 20.7216 529.017 20.7216ZM540.95 22.2273C539.928 22.2273 539.047 21.9858 538.308 21.5028C537.57 21.0199 537.001 20.3546 536.604 19.5071C536.206 18.6596 536.007 17.6913 536.007 16.6023C536.007 15.4943 536.211 14.5166 536.618 13.669C537.03 12.8168 537.603 12.1515 538.337 11.6733C539.075 11.1903 539.937 10.9489 540.922 10.9489C541.689 10.9489 542.38 11.0909 542.996 11.375C543.611 11.6591 544.116 12.0568 544.509 12.5682C544.902 13.0795 545.145 13.6761 545.24 14.358H543.564C543.436 13.8608 543.152 13.4205 542.712 13.0369C542.276 12.6487 541.689 12.4545 540.95 12.4545C540.297 12.4545 539.724 12.625 539.232 12.9659C538.744 13.3021 538.363 13.7779 538.088 14.3935C537.818 15.0043 537.683 15.7216 537.683 16.5455C537.683 17.3883 537.816 18.1222 538.081 18.7472C538.351 19.3722 538.73 19.8575 539.217 20.2031C539.71 20.5488 540.287 20.7216 540.95 20.7216C541.386 20.7216 541.781 20.6458 542.136 20.4943C542.491 20.3428 542.792 20.125 543.038 19.8409C543.285 19.5568 543.46 19.2159 543.564 18.8182H545.24C545.145 19.4621 544.911 20.0421 544.537 20.5582C544.168 21.0696 543.678 21.4768 543.067 21.7798C542.461 22.0781 541.755 22.2273 540.95 22.2273ZM547.065 12.6534V11.0909H555.929V12.6534H552.349V22H550.673V12.6534H547.065ZM559.823 15.0398H562.948C564.226 15.0398 565.204 15.3641 565.881 16.0128C566.558 16.6615 566.897 17.483 566.897 18.4773C566.897 19.1307 566.745 19.7249 566.442 20.2599C566.139 20.7902 565.694 21.214 565.107 21.5312C564.52 21.8438 563.8 22 562.948 22H558.374V11.0909H560.05V20.4375H562.948C563.611 20.4375 564.155 20.2623 564.581 19.9119C565.007 19.5616 565.221 19.1117 565.221 18.5625C565.221 17.9848 565.007 17.5137 564.581 17.1491C564.155 16.7846 563.611 16.6023 562.948 16.6023H559.823V15.0398ZM575.073 22V11.0909H583.653V22H581.977V12.6534H576.749V22H575.073ZM591.146 22.2273C590.161 22.2273 589.297 21.9929 588.553 21.5241C587.815 21.0554 587.237 20.3996 586.82 19.5568C586.408 18.714 586.202 17.7292 586.202 16.6023C586.202 15.4659 586.408 14.474 586.82 13.6264C587.237 12.7789 587.815 12.1207 588.553 11.652C589.297 11.1832 590.161 10.9489 591.146 10.9489C592.13 10.9489 592.992 11.1832 593.731 11.652C594.474 12.1207 595.052 12.7789 595.464 13.6264C595.88 14.474 596.089 15.4659 596.089 16.6023C596.089 17.7292 595.88 18.714 595.464 19.5568C595.052 20.3996 594.474 21.0554 593.731 21.5241C592.992 21.9929 592.13 22.2273 591.146 22.2273ZM591.146 20.7216C591.894 20.7216 592.509 20.5298 592.992 20.1463C593.475 19.7628 593.833 19.2585 594.065 18.6335C594.297 18.0085 594.413 17.3314 594.413 16.6023C594.413 15.8731 594.297 15.1937 594.065 14.5639C593.833 13.9342 593.475 13.4252 592.992 13.0369C592.509 12.6487 591.894 12.4545 591.146 12.4545C590.397 12.4545 589.782 12.6487 589.299 13.0369C588.816 13.4252 588.459 13.9342 588.227 14.5639C587.995 15.1937 587.879 15.8731 587.879 16.6023C587.879 17.3314 587.995 18.0085 588.227 18.6335C588.459 19.2585 588.816 19.7628 589.299 20.1463C589.782 20.5298 590.397 20.7216 591.146 20.7216ZM603.079 22.2273C602.056 22.2273 601.176 21.9858 600.437 21.5028C599.699 21.0199 599.13 20.3546 598.733 19.5071C598.335 18.6596 598.136 17.6913 598.136 16.6023C598.136 15.4943 598.34 14.5166 598.747 13.669C599.159 12.8168 599.732 12.1515 600.466 11.6733C601.204 11.1903 602.066 10.9489 603.051 10.9489C603.818 10.9489 604.509 11.0909 605.125 11.375C605.74 11.6591 606.244 12.0568 606.637 12.5682C607.03 13.0795 607.274 13.6761 607.369 14.358H605.693C605.565 13.8608 605.281 13.4205 604.841 13.0369C604.405 12.6487 603.818 12.4545 603.079 12.4545C602.426 12.4545 601.853 12.625 601.36 12.9659C600.873 13.3021 600.492 13.7779 600.217 14.3935C599.947 15.0043 599.812 15.7216 599.812 16.5455C599.812 17.3883 599.945 18.1222 600.21 18.7472C600.48 19.3722 600.859 19.8575 601.346 20.2031C601.839 20.5488 602.416 20.7216 603.079 20.7216C603.515 20.7216 603.91 20.6458 604.265 20.4943C604.62 20.3428 604.921 20.125 605.167 19.8409C605.413 19.5568 605.589 19.2159 605.693 18.8182H607.369C607.274 19.4621 607.04 20.0421 606.666 20.5582C606.297 21.0696 605.806 21.4768 605.196 21.7798C604.59 22.0781 603.884 22.2273 603.079 22.2273ZM614.393 22.2273C613.342 22.2273 612.435 21.9953 611.673 21.5312C610.915 21.0625 610.331 20.4091 609.919 19.571C609.511 18.7282 609.308 17.7481 609.308 16.6307C609.308 15.5133 609.511 14.5284 609.919 13.6761C610.331 12.8191 610.904 12.1515 611.637 11.6733C612.376 11.1903 613.238 10.9489 614.223 10.9489C614.791 10.9489 615.352 11.0436 615.906 11.233C616.46 11.4223 616.964 11.7301 617.419 12.1562C617.873 12.5777 618.235 13.1364 618.505 13.8324C618.775 14.5284 618.91 15.3854 618.91 16.4034V17.1136H610.501V15.6648H617.206C617.206 15.0492 617.083 14.5 616.836 14.017C616.595 13.5341 616.249 13.1529 615.799 12.8736C615.354 12.5942 614.829 12.4545 614.223 12.4545C613.555 12.4545 612.977 12.6203 612.49 12.9517C612.007 13.2784 611.635 13.7045 611.375 14.2301C611.114 14.7557 610.984 15.3191 610.984 15.9205V16.8864C610.984 17.7102 611.126 18.4086 611.41 18.9815C611.699 19.5497 612.099 19.983 612.61 20.2812C613.122 20.5748 613.716 20.7216 614.393 20.7216C614.833 20.7216 615.231 20.66 615.586 20.5369C615.946 20.4091 616.256 20.2197 616.517 19.9688C616.777 19.7131 616.978 19.3958 617.12 19.017L618.74 19.4716C618.569 20.0208 618.283 20.5038 617.88 20.9205C617.478 21.3324 616.981 21.6544 616.389 21.8864C615.797 22.1136 615.132 22.2273 614.393 22.2273ZM636.346 20.4375L636.147 25.125H634.414V22H632.994V20.4375H636.346ZM621.46 11.0909H623.136V20.4375H627.255V11.0909H628.931V20.4375H633.051V11.0909H634.727V22H621.46V11.0909ZM643.358 22.2273C642.307 22.2273 641.4 21.9953 640.638 21.5312C639.88 21.0625 639.295 20.4091 638.884 19.571C638.476 18.7282 638.273 17.7481 638.273 16.6307C638.273 15.5133 638.476 14.5284 638.884 13.6761C639.295 12.8191 639.868 12.1515 640.602 11.6733C641.341 11.1903 642.203 10.9489 643.188 10.9489C643.756 10.9489 644.317 11.0436 644.871 11.233C645.425 11.4223 645.929 11.7301 646.384 12.1562C646.838 12.5777 647.2 13.1364 647.47 13.8324C647.74 14.5284 647.875 15.3854 647.875 16.4034V17.1136H639.466V15.6648H646.17C646.17 15.0492 646.047 14.5 645.801 14.017C645.56 13.5341 645.214 13.1529 644.764 12.8736C644.319 12.5942 643.794 12.4545 643.188 12.4545C642.52 12.4545 641.942 12.6203 641.455 12.9517C640.972 13.2784 640.6 13.7045 640.339 14.2301C640.079 14.7557 639.949 15.3191 639.949 15.9205V16.8864C639.949 17.7102 640.091 18.4086 640.375 18.9815C640.664 19.5497 641.064 19.983 641.575 20.2812C642.087 20.5748 642.681 20.7216 643.358 20.7216C643.798 20.7216 644.196 20.66 644.551 20.5369C644.911 20.4091 645.221 20.2197 645.482 19.9688C645.742 19.7131 645.943 19.3958 646.085 19.017L647.705 19.4716C647.534 20.0208 647.248 20.5038 646.845 20.9205C646.443 21.3324 645.946 21.6544 645.354 21.8864C644.762 22.1136 644.097 22.2273 643.358 22.2273ZM657.726 15.7784V17.3409H651.703V15.7784H657.726ZM652.101 11.0909V22H650.425V11.0909H652.101ZM659.004 11.0909V22H657.328V11.0909H659.004ZM663.741 19.5284L668.997 11.0909H670.929V22H669.253V13.5625L664.026 22H662.065V11.0909H663.741V19.5284ZM680.561 22V12.625H677.664C677.01 12.625 676.497 12.7765 676.123 13.0795C675.748 13.3826 675.561 13.7992 675.561 14.3295C675.561 14.8504 675.73 15.2599 676.066 15.5582C676.407 15.8565 676.873 16.0057 677.465 16.0057H680.988V17.5682H677.465C676.726 17.5682 676.089 17.438 675.554 17.1776C675.019 16.9171 674.607 16.5455 674.319 16.0625C674.03 15.5748 673.885 14.9972 673.885 14.3295C673.885 13.6572 674.037 13.0795 674.34 12.5966C674.643 12.1136 675.076 11.742 675.64 11.4815C676.208 11.2211 676.882 11.0909 677.664 11.0909H682.152V22H680.561ZM673.289 22L676.385 16.5739H678.203L675.107 22H673.289ZM285.631 37L286.483 38.0227C286.152 38.3447 285.768 38.5696 285.332 38.6974C284.897 38.8253 284.404 38.9034 283.855 38.9318C283.306 38.9602 282.695 38.9886 282.023 39.017C281.265 39.0455 280.638 39.2301 280.141 39.571C279.643 39.9119 279.26 40.4044 278.99 41.0483C278.72 41.6922 278.547 42.483 278.472 43.4205H278.614C278.983 42.7386 279.494 42.2367 280.148 41.9148C280.801 41.5928 281.502 41.4318 282.25 41.4318C283.102 41.4318 283.869 41.6307 284.551 42.0284C285.233 42.4261 285.773 43.0156 286.17 43.7969C286.568 44.5781 286.767 45.5417 286.767 46.6875C286.767 47.8286 286.563 48.8134 286.156 49.642C285.754 50.4706 285.188 51.1098 284.459 51.5597C283.734 52.0047 282.884 52.2273 281.909 52.2273C280.934 52.2273 280.079 51.9976 279.345 51.5384C278.611 51.0743 278.041 50.3878 277.634 49.4787C277.226 48.5649 277.023 47.4356 277.023 46.0909V44.9261C277.023 42.4972 277.435 40.6553 278.259 39.4006C279.087 38.1458 280.332 37.4972 281.994 37.4545C282.581 37.4356 283.105 37.4309 283.564 37.4403C284.023 37.4498 284.423 37.4285 284.764 37.3764C285.105 37.3243 285.394 37.1989 285.631 37ZM281.909 50.7216C282.567 50.7216 283.133 50.5559 283.607 50.2244C284.085 49.893 284.452 49.4266 284.707 48.8253C284.963 48.2192 285.091 47.5066 285.091 46.6875C285.091 45.892 284.961 45.215 284.7 44.6562C284.445 44.0975 284.078 43.6714 283.599 43.3778C283.121 43.0843 282.548 42.9375 281.881 42.9375C281.393 42.9375 280.955 43.0204 280.567 43.1861C280.179 43.3518 279.847 43.5956 279.572 43.9176C279.298 44.2396 279.085 44.6326 278.933 45.0966C278.786 45.5606 278.708 46.0909 278.699 46.6875C278.699 47.9091 278.985 48.8868 279.558 49.6207C280.131 50.3546 280.915 50.7216 281.909 50.7216ZM292.541 52.2557C291.85 52.2557 291.223 52.1255 290.659 51.8651C290.096 51.5999 289.648 51.2188 289.317 50.7216C288.985 50.2197 288.82 49.6136 288.82 48.9034C288.82 48.2784 288.943 47.7718 289.189 47.3835C289.435 46.9905 289.764 46.6828 290.176 46.4602C290.588 46.2377 291.043 46.072 291.54 45.9631C292.042 45.8494 292.546 45.7595 293.053 45.6932C293.715 45.608 294.253 45.544 294.665 45.5014C295.081 45.4541 295.384 45.3759 295.574 45.267C295.768 45.1581 295.865 44.9687 295.865 44.6989V44.642C295.865 43.9413 295.673 43.3968 295.29 43.0085C294.911 42.6203 294.336 42.4261 293.564 42.4261C292.764 42.4261 292.136 42.6013 291.682 42.9517C291.227 43.3021 290.908 43.6761 290.723 44.0739L289.132 43.5057C289.416 42.8428 289.795 42.3267 290.268 41.9574C290.747 41.5833 291.268 41.3229 291.831 41.1761C292.399 41.0246 292.958 40.9489 293.507 40.9489C293.857 40.9489 294.26 40.9915 294.714 41.0767C295.174 41.1572 295.616 41.3253 296.043 41.581C296.473 41.8366 296.831 42.2225 297.115 42.7386C297.399 43.2547 297.541 43.946 297.541 44.8125V52H295.865V50.5227H295.78C295.666 50.7595 295.477 51.0128 295.212 51.2827C294.946 51.5526 294.594 51.7822 294.153 51.9716C293.713 52.161 293.176 52.2557 292.541 52.2557ZM292.797 50.75C293.46 50.75 294.018 50.6198 294.473 50.3594C294.932 50.099 295.278 49.7628 295.51 49.3509C295.747 48.9389 295.865 48.5057 295.865 48.0511V46.517C295.794 46.6023 295.638 46.6804 295.396 46.7514C295.16 46.8177 294.885 46.8769 294.572 46.929C294.265 46.9763 293.964 47.0189 293.67 47.0568C293.382 47.09 293.147 47.1184 292.967 47.142C292.532 47.1989 292.125 47.2912 291.746 47.419C291.372 47.5421 291.069 47.7292 290.837 47.9801C290.609 48.2263 290.496 48.5625 290.496 48.9886C290.496 49.571 290.711 50.0114 291.142 50.3097C291.578 50.6032 292.129 50.75 292.797 50.75ZM305.032 52.2273C304.01 52.2273 303.129 51.9858 302.39 51.5028C301.652 51.0199 301.083 50.3546 300.686 49.5071C300.288 48.6596 300.089 47.6913 300.089 46.6023C300.089 45.4943 300.293 44.5166 300.7 43.669C301.112 42.8168 301.685 42.1515 302.419 41.6733C303.157 41.1903 304.019 40.9489 305.004 40.9489C305.771 40.9489 306.462 41.0909 307.078 41.375C307.693 41.6591 308.198 42.0568 308.591 42.5682C308.984 43.0795 309.227 43.6761 309.322 44.358H307.646C307.518 43.8608 307.234 43.4205 306.794 43.0369C306.358 42.6487 305.771 42.4545 305.032 42.4545C304.379 42.4545 303.806 42.625 303.314 42.9659C302.826 43.3021 302.445 43.7779 302.17 44.3935C301.9 45.0043 301.765 45.7216 301.765 46.5455C301.765 47.3883 301.898 48.1222 302.163 48.7472C302.433 49.3722 302.812 49.8575 303.299 50.2031C303.792 50.5488 304.369 50.7216 305.032 50.7216C305.468 50.7216 305.863 50.6458 306.218 50.4943C306.574 50.3428 306.874 50.125 307.12 49.8409C307.367 49.5568 307.542 49.2159 307.646 48.8182H309.322C309.227 49.4621 308.993 50.0421 308.619 50.5582C308.25 51.0696 307.76 51.4768 307.149 51.7798C306.543 52.0781 305.837 52.2273 305.032 52.2273ZM316.204 52.2273C315.181 52.2273 314.301 51.9858 313.562 51.5028C312.824 51.0199 312.255 50.3546 311.858 49.5071C311.46 48.6596 311.261 47.6913 311.261 46.6023C311.261 45.4943 311.465 44.5166 311.872 43.669C312.284 42.8168 312.857 42.1515 313.591 41.6733C314.329 41.1903 315.191 40.9489 316.176 40.9489C316.943 40.9489 317.634 41.0909 318.25 41.375C318.865 41.6591 319.369 42.0568 319.762 42.5682C320.155 43.0795 320.399 43.6761 320.494 44.358H318.818C318.69 43.8608 318.406 43.4205 317.966 43.0369C317.53 42.6487 316.943 42.4545 316.204 42.4545C315.551 42.4545 314.978 42.625 314.485 42.9659C313.998 43.3021 313.617 43.7779 313.342 44.3935C313.072 45.0043 312.937 45.7216 312.937 46.5455C312.937 47.3883 313.07 48.1222 313.335 48.7472C313.605 49.3722 313.984 49.8575 314.471 50.2031C314.964 50.5488 315.541 50.7216 316.204 50.7216C316.64 50.7216 317.035 50.6458 317.39 50.4943C317.745 50.3428 318.046 50.125 318.292 49.8409C318.538 49.5568 318.714 49.2159 318.818 48.8182H320.494C320.399 49.4621 320.165 50.0421 319.791 50.5582C319.422 51.0696 318.931 51.4768 318.321 51.7798C317.715 52.0781 317.009 52.2273 316.204 52.2273ZM327.518 52.2273C326.467 52.2273 325.56 51.9953 324.798 51.5312C324.04 51.0625 323.456 50.4091 323.044 49.571C322.636 48.7282 322.433 47.7481 322.433 46.6307C322.433 45.5133 322.636 44.5284 323.044 43.6761C323.456 42.8191 324.029 42.1515 324.762 41.6733C325.501 41.1903 326.363 40.9489 327.348 40.9489C327.916 40.9489 328.477 41.0436 329.031 41.233C329.585 41.4223 330.089 41.7301 330.544 42.1562C330.998 42.5777 331.36 43.1364 331.63 43.8324C331.9 44.5284 332.035 45.3854 332.035 46.4034V47.1136H323.626V45.6648H330.331C330.331 45.0492 330.208 44.5 329.961 44.017C329.72 43.5341 329.374 43.1529 328.924 42.8736C328.479 42.5942 327.954 42.4545 327.348 42.4545C326.68 42.4545 326.102 42.6203 325.615 42.9517C325.132 43.2784 324.76 43.7045 324.5 44.2301C324.239 44.7557 324.109 45.3191 324.109 45.9205V46.8864C324.109 47.7102 324.251 48.4086 324.535 48.9815C324.824 49.5497 325.224 49.983 325.735 50.2812C326.247 50.5748 326.841 50.7216 327.518 50.7216C327.958 50.7216 328.356 50.66 328.711 50.5369C329.071 50.4091 329.381 50.2197 329.642 49.9688C329.902 49.7131 330.103 49.3958 330.245 49.017L331.865 49.4716C331.694 50.0208 331.408 50.5038 331.005 50.9205C330.603 51.3324 330.106 51.6544 329.514 51.8864C328.922 52.1136 328.257 52.2273 327.518 52.2273ZM336.261 49.5284L341.517 41.0909H343.449V52H341.772V43.5625L336.545 52H334.585V41.0909H336.261V49.5284ZM340.409 37.4545H341.971C341.971 38.2216 341.706 38.849 341.176 39.3366C340.645 39.8243 339.926 40.0682 339.017 40.0682C338.122 40.0682 337.409 39.8243 336.879 39.3366C336.353 38.849 336.091 38.2216 336.091 37.4545H337.653C337.653 37.8239 337.755 38.1482 337.958 38.4276C338.167 38.7069 338.52 38.8466 339.017 38.8466C339.514 38.8466 339.869 38.7069 340.082 38.4276C340.3 38.1482 340.409 37.8239 340.409 37.4545ZM353.82 45.7784V47.3409H347.797V45.7784H353.82ZM348.195 41.0909V52H346.518V41.0909H348.195ZM355.098 41.0909V52H353.422V41.0909H355.098ZM361.369 52.2557C360.678 52.2557 360.051 52.1255 359.487 51.8651C358.924 51.5999 358.476 51.2188 358.145 50.7216C357.813 50.2197 357.648 49.6136 357.648 48.9034C357.648 48.2784 357.771 47.7718 358.017 47.3835C358.263 46.9905 358.592 46.6828 359.004 46.4602C359.416 46.2377 359.871 46.072 360.368 45.9631C360.87 45.8494 361.374 45.7595 361.881 45.6932C362.544 45.608 363.081 45.544 363.493 45.5014C363.91 45.4541 364.213 45.3759 364.402 45.267C364.596 45.1581 364.693 44.9687 364.693 44.6989V44.642C364.693 43.9413 364.501 43.3968 364.118 43.0085C363.739 42.6203 363.164 42.4261 362.392 42.4261C361.592 42.4261 360.964 42.6013 360.51 42.9517C360.055 43.3021 359.736 43.6761 359.551 44.0739L357.96 43.5057C358.244 42.8428 358.623 42.3267 359.097 41.9574C359.575 41.5833 360.096 41.3229 360.659 41.1761C361.227 41.0246 361.786 40.9489 362.335 40.9489C362.686 40.9489 363.088 40.9915 363.543 41.0767C364.002 41.1572 364.445 41.3253 364.871 41.581C365.302 41.8366 365.659 42.2225 365.943 42.7386C366.227 43.2547 366.369 43.946 366.369 44.8125V52H364.693V50.5227H364.608C364.494 50.7595 364.305 51.0128 364.04 51.2827C363.775 51.5526 363.422 51.7822 362.982 51.9716C362.541 52.161 362.004 52.2557 361.369 52.2557ZM361.625 50.75C362.288 50.75 362.847 50.6198 363.301 50.3594C363.76 50.099 364.106 49.7628 364.338 49.3509C364.575 48.9389 364.693 48.5057 364.693 48.0511V46.517C364.622 46.6023 364.466 46.6804 364.224 46.7514C363.988 46.8177 363.713 46.8769 363.401 46.929C363.093 46.9763 362.792 47.0189 362.499 47.0568C362.21 47.09 361.975 47.1184 361.795 47.142C361.36 47.1989 360.953 47.2912 360.574 47.419C360.2 47.5421 359.897 47.7292 359.665 47.9801C359.438 48.2263 359.324 48.5625 359.324 48.9886C359.324 49.571 359.539 50.0114 359.97 50.3097C360.406 50.6032 360.957 50.75 361.625 50.75ZM375.054 52V41.0909H379.514C380.688 41.0909 381.621 41.3561 382.312 41.8864C383.003 42.4167 383.349 43.1174 383.349 43.9886C383.349 44.6515 383.153 45.1652 382.76 45.5298C382.367 45.8897 381.862 46.1335 381.247 46.2614C381.649 46.3182 382.04 46.4602 382.419 46.6875C382.802 46.9148 383.119 47.2273 383.37 47.625C383.621 48.018 383.747 48.5009 383.747 49.0739C383.747 49.6326 383.605 50.1321 383.321 50.5724C383.037 51.0128 382.629 51.3608 382.099 51.6165C381.569 51.8722 380.934 52 380.196 52H375.054ZM376.645 50.4659H380.196C380.773 50.4659 381.225 50.3286 381.552 50.054C381.879 49.7794 382.042 49.4053 382.042 48.9318C382.042 48.3684 381.879 47.9257 381.552 47.6037C381.225 47.277 380.773 47.1136 380.196 47.1136H376.645V50.4659ZM376.645 45.6648H379.514C379.964 45.6648 380.35 45.6032 380.672 45.4801C380.993 45.3523 381.24 45.1723 381.41 44.9403C381.585 44.7036 381.673 44.4242 381.673 44.1023C381.673 43.643 381.481 43.2831 381.098 43.0227C380.714 42.7576 380.186 42.625 379.514 42.625H376.645V45.6648ZM387.534 41.0909L390.148 45.5511L392.761 41.0909H394.693L391.17 46.5455L394.693 52H392.761L390.148 47.767L387.534 52H385.602L389.068 46.5455L385.602 41.0909H387.534ZM401.517 52.2273C400.532 52.2273 399.668 51.9929 398.924 51.5241C398.186 51.0554 397.608 50.3996 397.191 49.5568C396.779 48.714 396.574 47.7292 396.574 46.6023C396.574 45.4659 396.779 44.474 397.191 43.6264C397.608 42.7789 398.186 42.1207 398.924 41.652C399.668 41.1832 400.532 40.9489 401.517 40.9489C402.502 40.9489 403.363 41.1832 404.102 41.652C404.845 42.1207 405.423 42.7789 405.835 43.6264C406.252 44.474 406.46 45.4659 406.46 46.6023C406.46 47.7292 406.252 48.714 405.835 49.5568C405.423 50.3996 404.845 51.0554 404.102 51.5241C403.363 51.9929 402.502 52.2273 401.517 52.2273ZM401.517 50.7216C402.265 50.7216 402.88 50.5298 403.363 50.1463C403.846 49.7628 404.204 49.2585 404.436 48.6335C404.668 48.0085 404.784 47.3314 404.784 46.6023C404.784 45.8731 404.668 45.1937 404.436 44.5639C404.204 43.9342 403.846 43.4252 403.363 43.0369C402.88 42.6487 402.265 42.4545 401.517 42.4545C400.769 42.4545 400.153 42.6487 399.67 43.0369C399.187 43.4252 398.83 43.9342 398.598 44.5639C398.366 45.1937 398.25 45.8731 398.25 46.6023C398.25 47.3314 398.366 48.0085 398.598 48.6335C398.83 49.2585 399.187 49.7628 399.67 50.1463C400.153 50.5298 400.769 50.7216 401.517 50.7216ZM407.854 55.125V50.4375H408.763C408.985 50.2055 409.177 49.9545 409.338 49.6847C409.499 49.4148 409.639 49.0952 409.757 48.7259C409.88 48.3518 409.984 47.8973 410.07 47.3622C410.155 46.8224 410.231 46.1714 410.297 45.4091L410.666 41.0909H417.598V50.4375H419.274V55.125H417.598V52H409.53V55.125H407.854ZM410.666 50.4375H415.922V42.6534H412.229L411.945 45.4091C411.826 46.5502 411.679 47.5469 411.504 48.3991C411.329 49.2514 411.05 49.9309 410.666 50.4375ZM423.175 49.5284L428.431 41.0909H430.363V52H428.686V43.5625L423.459 52H421.499V41.0909H423.175V49.5284ZM432.808 42.6534V41.0909H441.671V42.6534H438.092V52H436.415V42.6534H432.808ZM449.741 52V41.0909H454.201C455.376 41.0909 456.308 41.3561 457 41.8864C457.691 42.4167 458.037 43.1174 458.037 43.9886C458.037 44.6515 457.84 45.1652 457.447 45.5298C457.054 45.8897 456.55 46.1335 455.934 46.2614C456.337 46.3182 456.727 46.4602 457.106 46.6875C457.49 46.9148 457.807 47.2273 458.058 47.625C458.309 48.018 458.434 48.5009 458.434 49.0739C458.434 49.6326 458.292 50.1321 458.008 50.5724C457.724 51.0128 457.317 51.3608 456.787 51.6165C456.256 51.8722 455.622 52 454.883 52H449.741ZM451.332 50.4659H454.883C455.461 50.4659 455.913 50.3286 456.24 50.054C456.566 49.7794 456.73 49.4053 456.73 48.9318C456.73 48.3684 456.566 47.9257 456.24 47.6037C455.913 47.277 455.461 47.1136 454.883 47.1136H451.332V50.4659ZM451.332 45.6648H454.201C454.651 45.6648 455.037 45.6032 455.359 45.4801C455.681 45.3523 455.927 45.1723 456.098 44.9403C456.273 44.7036 456.36 44.4242 456.36 44.1023C456.36 43.643 456.169 43.2831 455.785 43.0227C455.402 42.7576 454.874 42.625 454.201 42.625H451.332V45.6648ZM471.028 52.2273C470.006 52.2273 469.125 51.9858 468.386 51.5028C467.648 51.0199 467.08 50.3546 466.682 49.5071C466.284 48.6596 466.085 47.6913 466.085 46.6023C466.085 45.4943 466.289 44.5166 466.696 43.669C467.108 42.8168 467.681 42.1515 468.415 41.6733C469.153 41.1903 470.015 40.9489 471 40.9489C471.767 40.9489 472.458 41.0909 473.074 41.375C473.689 41.6591 474.194 42.0568 474.587 42.5682C474.98 43.0795 475.223 43.6761 475.318 44.358H473.642C473.514 43.8608 473.23 43.4205 472.79 43.0369C472.354 42.6487 471.767 42.4545 471.028 42.4545C470.375 42.4545 469.802 42.625 469.31 42.9659C468.822 43.3021 468.441 43.7779 468.166 44.3935C467.896 45.0043 467.761 45.7216 467.761 46.5455C467.761 47.3883 467.894 48.1222 468.159 48.7472C468.429 49.3722 468.808 49.8575 469.295 50.2031C469.788 50.5488 470.366 50.7216 471.028 50.7216C471.464 50.7216 471.859 50.6458 472.214 50.4943C472.57 50.3428 472.87 50.125 473.116 49.8409C473.363 49.5568 473.538 49.2159 473.642 48.8182H475.318C475.223 49.4621 474.989 50.0421 474.615 50.5582C474.246 51.0696 473.756 51.4768 473.145 51.7798C472.539 52.0781 471.833 52.2273 471.028 52.2273ZM477.143 42.6534V41.0909H486.007V42.6534H482.428V52H480.751V42.6534H477.143ZM492.884 52.2273C491.899 52.2273 491.035 51.9929 490.292 51.5241C489.553 51.0554 488.975 50.3996 488.559 49.5568C488.147 48.714 487.941 47.7292 487.941 46.6023C487.941 45.4659 488.147 44.474 488.559 43.6264C488.975 42.7789 489.553 42.1207 490.292 41.652C491.035 41.1832 491.899 40.9489 492.884 40.9489C493.869 40.9489 494.73 41.1832 495.469 41.652C496.212 42.1207 496.79 42.7789 497.202 43.6264C497.619 44.474 497.827 45.4659 497.827 46.6023C497.827 47.7292 497.619 48.714 497.202 49.5568C496.79 50.3996 496.212 51.0554 495.469 51.5241C494.73 51.9929 493.869 52.2273 492.884 52.2273ZM492.884 50.7216C493.632 50.7216 494.248 50.5298 494.73 50.1463C495.213 49.7628 495.571 49.2585 495.803 48.6335C496.035 48.0085 496.151 47.3314 496.151 46.6023C496.151 45.8731 496.035 45.1937 495.803 44.5639C495.571 43.9342 495.213 43.4252 494.73 43.0369C494.248 42.6487 493.632 42.4545 492.884 42.4545C492.136 42.4545 491.52 42.6487 491.037 43.0369C490.554 43.4252 490.197 43.9342 489.965 44.5639C489.733 45.1937 489.617 45.8731 489.617 46.6023C489.617 47.3314 489.733 48.0085 489.965 48.6335C490.197 49.2585 490.554 49.7628 491.037 50.1463C491.52 50.5298 492.136 50.7216 492.884 50.7216ZM502.062 49.5284L507.317 41.0909H509.249V52H507.573V43.5625L502.346 52H500.386V41.0909H502.062V49.5284ZM518.285 49.7273L522.092 41.0909H523.683L518.967 52H517.603L512.973 41.0909H514.535L518.285 49.7273ZM513.995 41.0909V52H512.319V41.0909H513.995ZM522.575 52V41.0909H524.251V52H522.575ZM531.751 52.2273C530.766 52.2273 529.902 51.9929 529.159 51.5241C528.42 51.0554 527.842 50.3996 527.426 49.5568C527.014 48.714 526.808 47.7292 526.808 46.6023C526.808 45.4659 527.014 44.474 527.426 43.6264C527.842 42.7789 528.42 42.1207 529.159 41.652C529.902 41.1832 530.766 40.9489 531.751 40.9489C532.736 40.9489 533.598 41.1832 534.336 41.652C535.08 42.1207 535.657 42.7789 536.069 43.6264C536.486 44.474 536.694 45.4659 536.694 46.6023C536.694 47.7292 536.486 48.714 536.069 49.5568C535.657 50.3996 535.08 51.0554 534.336 51.5241C533.598 51.9929 532.736 52.2273 531.751 52.2273ZM531.751 50.7216C532.499 50.7216 533.115 50.5298 533.598 50.1463C534.081 49.7628 534.438 49.2585 534.67 48.6335C534.902 48.0085 535.018 47.3314 535.018 46.6023C535.018 45.8731 534.902 45.1937 534.67 44.5639C534.438 43.9342 534.081 43.4252 533.598 43.0369C533.115 42.6487 532.499 42.4545 531.751 42.4545C531.003 42.4545 530.387 42.6487 529.904 43.0369C529.422 43.4252 529.064 43.9342 528.832 44.5639C528.6 45.1937 528.484 45.8731 528.484 46.6023C528.484 47.3314 528.6 48.0085 528.832 48.6335C529.064 49.2585 529.422 49.7628 529.904 50.1463C530.387 50.5298 531.003 50.7216 531.751 50.7216ZM543.685 52.2273C542.662 52.2273 541.781 51.9858 541.043 51.5028C540.304 51.0199 539.736 50.3546 539.338 49.5071C538.94 48.6596 538.741 47.6913 538.741 46.6023C538.741 45.4943 538.945 44.5166 539.352 43.669C539.764 42.8168 540.337 42.1515 541.071 41.6733C541.81 41.1903 542.671 40.9489 543.656 40.9489C544.423 40.9489 545.115 41.0909 545.73 41.375C546.346 41.6591 546.85 42.0568 547.243 42.5682C547.636 43.0795 547.88 43.6761 547.974 44.358H546.298C546.17 43.8608 545.886 43.4205 545.446 43.0369C545.01 42.6487 544.423 42.4545 543.685 42.4545C543.031 42.4545 542.458 42.625 541.966 42.9659C541.478 43.3021 541.097 43.7779 540.822 44.3935C540.553 45.0043 540.418 45.7216 540.418 46.5455C540.418 47.3883 540.55 48.1222 540.815 48.7472C541.085 49.3722 541.464 49.8575 541.952 50.2031C542.444 50.5488 543.022 50.7216 543.685 50.7216C544.12 50.7216 544.516 50.6458 544.871 50.4943C545.226 50.3428 545.527 50.125 545.773 49.8409C546.019 49.5568 546.194 49.2159 546.298 48.8182H547.974C547.88 49.4621 547.645 50.0421 547.271 50.5582C546.902 51.0696 546.412 51.4768 545.801 51.7798C545.195 52.0781 544.49 52.2273 543.685 52.2273ZM549.8 42.6534V41.0909H558.663V42.6534H555.084V52H553.408V42.6534H549.8ZM562.557 45.0398H565.682C566.961 45.0398 567.938 45.3641 568.615 46.0128C569.292 46.6615 569.631 47.483 569.631 48.4773C569.631 49.1307 569.48 49.7249 569.176 50.2599C568.873 50.7902 568.428 51.214 567.841 51.5312C567.254 51.8438 566.534 52 565.682 52H561.108V41.0909H562.784V50.4375H565.682C566.345 50.4375 566.89 50.2623 567.316 49.9119C567.742 49.5616 567.955 49.1117 567.955 48.5625C567.955 47.9848 567.742 47.5137 567.316 47.1491C566.89 46.7846 566.345 46.6023 565.682 46.6023H562.557V45.0398ZM577.808 52V41.0909H586.387V52H584.711V42.6534H579.484V52H577.808ZM589.448 56.0909V41.0909H591.067V42.8239H591.266C591.389 42.6345 591.56 42.393 591.778 42.0994C592 41.8011 592.317 41.536 592.729 41.304C593.146 41.0672 593.71 40.9489 594.42 40.9489C595.338 40.9489 596.148 41.1785 596.849 41.6378C597.549 42.0971 598.096 42.7481 598.489 43.5909C598.882 44.4337 599.079 45.428 599.079 46.5739C599.079 47.7292 598.882 48.7306 598.489 49.5781C598.096 50.4209 597.552 51.0743 596.856 51.5384C596.16 51.9976 595.357 52.2273 594.448 52.2273C593.747 52.2273 593.186 52.1113 592.765 51.8793C592.344 51.6425 592.019 51.375 591.792 51.0767C591.565 50.7737 591.389 50.5227 591.266 50.3239H591.124V56.0909H589.448ZM591.096 46.5455C591.096 47.3693 591.217 48.0961 591.458 48.7259C591.7 49.3509 592.052 49.8409 592.516 50.196C592.98 50.5464 593.549 50.7216 594.221 50.7216C594.922 50.7216 595.506 50.5369 595.975 50.1676C596.449 49.7936 596.804 49.2917 597.04 48.6619C597.282 48.0275 597.403 47.322 597.403 46.5455C597.403 45.7784 597.284 45.0871 597.048 44.4716C596.816 43.8513 596.463 43.3613 595.989 43.0014C595.521 42.6368 594.931 42.4545 594.221 42.4545C593.539 42.4545 592.966 42.6274 592.502 42.973C592.038 43.3139 591.688 43.7921 591.451 44.4077C591.214 45.0185 591.096 45.7311 591.096 46.5455ZM606.067 52.2273C605.083 52.2273 604.219 51.9929 603.475 51.5241C602.737 51.0554 602.159 50.3996 601.742 49.5568C601.33 48.714 601.124 47.7292 601.124 46.6023C601.124 45.4659 601.33 44.474 601.742 43.6264C602.159 42.7789 602.737 42.1207 603.475 41.652C604.219 41.1832 605.083 40.9489 606.067 40.9489C607.052 40.9489 607.914 41.1832 608.653 41.652C609.396 42.1207 609.974 42.7789 610.386 43.6264C610.802 44.474 611.011 45.4659 611.011 46.6023C611.011 47.7292 610.802 48.714 610.386 49.5568C609.974 50.3996 609.396 51.0554 608.653 51.5241C607.914 51.9929 607.052 52.2273 606.067 52.2273ZM606.067 50.7216C606.816 50.7216 607.431 50.5298 607.914 50.1463C608.397 49.7628 608.754 49.2585 608.987 48.6335C609.219 48.0085 609.335 47.3314 609.335 46.6023C609.335 45.8731 609.219 45.1937 608.987 44.5639C608.754 43.9342 608.397 43.4252 607.914 43.0369C607.431 42.6487 606.816 42.4545 606.067 42.4545C605.319 42.4545 604.704 42.6487 604.221 43.0369C603.738 43.4252 603.38 43.9342 603.148 44.5639C602.916 45.1937 602.8 45.8731 602.8 46.6023C602.8 47.3314 602.916 48.0085 603.148 48.6335C603.38 49.2585 603.738 49.7628 604.221 50.1463C604.704 50.5298 605.319 50.7216 606.067 50.7216ZM612.887 52L617.319 46.4602L612.944 41.0909H614.933L618.569 45.75H619.478V41.0909H621.154V45.75H622.035L625.672 41.0909H627.66L623.314 46.4602L627.717 52H625.7L622.007 47.3125H621.154V52H619.478V47.3125H618.626L614.904 52H612.887ZM631.788 49.5284L637.044 41.0909H638.976V52H637.3V43.5625L632.072 52H630.112V41.0909H631.788V49.5284ZM642.046 52V41.0909H646.506C647.68 41.0909 648.613 41.3561 649.304 41.8864C649.996 42.4167 650.341 43.1174 650.341 43.9886C650.341 44.6515 650.145 45.1652 649.752 45.5298C649.359 45.8897 648.855 46.1335 648.239 46.2614C648.641 46.3182 649.032 46.4602 649.411 46.6875C649.794 46.9148 650.112 47.2273 650.363 47.625C650.614 48.018 650.739 48.5009 650.739 49.0739C650.739 49.6326 650.597 50.1321 650.313 50.5724C650.029 51.0128 649.622 51.3608 649.091 51.6165C648.561 51.8722 647.926 52 647.188 52H642.046ZM643.637 50.4659H647.188C647.766 50.4659 648.218 50.3286 648.544 50.054C648.871 49.7794 649.034 49.4053 649.034 48.9318C649.034 48.3684 648.871 47.9257 648.544 47.6037C648.218 47.277 647.766 47.1136 647.188 47.1136H643.637V50.4659ZM643.637 45.6648H646.506C646.956 45.6648 647.342 45.6032 647.664 45.4801C647.986 45.3523 648.232 45.1723 648.402 44.9403C648.578 44.7036 648.665 44.4242 648.665 44.1023C648.665 43.643 648.473 43.2831 648.09 43.0227C647.706 42.7576 647.178 42.625 646.506 42.625H643.637V45.6648ZM656.487 52.2557C655.795 52.2557 655.168 52.1255 654.604 51.8651C654.041 51.5999 653.594 51.2188 653.262 50.7216C652.931 50.2197 652.765 49.6136 652.765 48.9034C652.765 48.2784 652.888 47.7718 653.134 47.3835C653.38 46.9905 653.71 46.6828 654.121 46.4602C654.533 46.2377 654.988 46.072 655.485 45.9631C655.987 45.8494 656.491 45.7595 656.998 45.6932C657.661 45.608 658.198 45.544 658.61 45.5014C659.027 45.4541 659.33 45.3759 659.519 45.267C659.713 45.1581 659.81 44.9687 659.81 44.6989V44.642C659.81 43.9413 659.619 43.3968 659.235 43.0085C658.856 42.6203 658.281 42.4261 657.509 42.4261C656.709 42.4261 656.082 42.6013 655.627 42.9517C655.173 43.3021 654.853 43.6761 654.668 44.0739L653.077 43.5057C653.362 42.8428 653.74 42.3267 654.214 41.9574C654.692 41.5833 655.213 41.3229 655.776 41.1761C656.344 41.0246 656.903 40.9489 657.452 40.9489C657.803 40.9489 658.205 40.9915 658.66 41.0767C659.119 41.1572 659.562 41.3253 659.988 41.581C660.419 41.8366 660.776 42.2225 661.06 42.7386C661.344 43.2547 661.487 43.946 661.487 44.8125V52H659.81V50.5227H659.725C659.612 50.7595 659.422 51.0128 659.157 51.2827C658.892 51.5526 658.539 51.7822 658.099 51.9716C657.658 52.161 657.121 52.2557 656.487 52.2557ZM656.742 50.75C657.405 50.75 657.964 50.6198 658.418 50.3594C658.878 50.099 659.223 49.7628 659.455 49.3509C659.692 48.9389 659.81 48.5057 659.81 48.0511V46.517C659.739 46.6023 659.583 46.6804 659.342 46.7514C659.105 46.8177 658.83 46.8769 658.518 46.929C658.21 46.9763 657.909 47.0189 657.616 47.0568C657.327 47.09 657.093 47.1184 656.913 47.142C656.477 47.1989 656.07 47.2912 655.691 47.419C655.317 47.5421 655.014 47.7292 654.782 47.9801C654.555 48.2263 654.441 48.5625 654.441 48.9886C654.441 49.571 654.656 50.0114 655.087 50.3097C655.523 50.6032 656.075 50.75 656.742 50.75ZM671.847 45.7784V47.3409H665.824V45.7784H671.847ZM666.222 41.0909V52H664.546V41.0909H666.222ZM673.125 41.0909V52H671.449V41.0909H673.125ZM677.863 49.5284L683.118 41.0909H685.05V52H683.374V43.5625L678.147 52H676.186V41.0909H677.863V49.5284ZM694.683 52V42.625H691.785C691.131 42.625 690.618 42.7765 690.244 43.0795C689.87 43.3826 689.683 43.7992 689.683 44.3295C689.683 44.8504 689.851 45.2599 690.187 45.5582C690.528 45.8565 690.994 46.0057 691.586 46.0057H695.109V47.5682H691.586C690.847 47.5682 690.21 47.438 689.675 47.1776C689.14 46.9171 688.728 46.5455 688.44 46.0625C688.151 45.5748 688.006 44.9972 688.006 44.3295C688.006 43.6572 688.158 43.0795 688.461 42.5966C688.764 42.1136 689.197 41.742 689.761 41.4815C690.329 41.2211 691.004 41.0909 691.785 41.0909H696.273V52H694.683ZM687.41 52L690.506 46.5739H692.325L689.228 52H687.41Z" fill="white"/>
</svg>
